  0
SECTION
  2
HEADER
  9
$ACADVER
  1
AC1014
  9
$ACADMAINTVER
 70
     9
  9
$DWGCODEPAGE
  3
ANSI_1252
  9
$INSBASE
 10
0.0
 20
0.0
 30
0.0
  9
$EXTMIN
 10
1.000000000000000E+20
 20
1.000000000000000E+20
 30
1.000000000000000E+20
  9
$EXTMAX
 10
-1.000000000000000E+20
 20
-1.000000000000000E+20
 30
-1.000000000000000E+20
  9
$LIMMIN
 10
0.0
 20
0.0
  9
$LIMMAX
 10
12.0
 20
9.0
  9
$ORTHOMODE
 70
     0
  9
$REGENMODE
 70
     1
  9
$FILLMODE
 70
     1
  9
$QTEXTMODE
 70
     0
  9
$MIRRTEXT
 70
     1
  9
$DRAGMODE
 70
     2
  9
$LTSCALE
 40
1.0
  9
$OSMODE
 70
    37
  9
$ATTMODE
 70
     1
  9
$TEXTSIZE
 40
0.2
  9
$TRACEWID
 40
0.05
  9
$TEXTSTYLE
  7
STANDARD
  9
$CLAYER
  8
0
  9
$CELTYPE
  6
BYLAYER
  9
$CECOLOR
 62
   256
  9
$CELTSCALE
 40
1.0
  9
$DELOBJ
 70
     1
  9
$DISPSILH
 70
     0
  9
$DIMSCALE
 40
1.0
  9
$DIMASZ
 40
0.18
  9
$DIMEXO
 40
0.0625
  9
$DIMDLI
 40
0.38
  9
$DIMRND
 40
0.0
  9
$DIMDLE
 40
0.0
  9
$DIMEXE
 40
0.18
  9
$DIMTP
 40
0.0
  9
$DIMTM
 40
0.0
  9
$DIMTXT
 40
0.18
  9
$DIMCEN
 40
0.09
  9
$DIMTSZ
 40
0.0
  9
$DIMTOL
 70
     0
  9
$DIMLIM
 70
     0
  9
$DIMTIH
 70
     1
  9
$DIMTOH
 70
     1
  9
$DIMSE1
 70
     0
  9
$DIMSE2
 70
     0
  9
$DIMTAD
 70
     0
  9
$DIMZIN
 70
     0
  9
$DIMBLK
  1

  9
$DIMASO
 70
     1
  9
$DIMSHO
 70
     1
  9
$DIMPOST
  1

  9
$DIMAPOST
  1

  9
$DIMALT
 70
     0
  9
$DIMALTD
 70
     2
  9
$DIMALTF
 40
25.4
  9
$DIMLFAC
 40
1.0
  9
$DIMTOFL
 70
     0
  9
$DIMTVP
 40
0.0
  9
$DIMTIX
 70
     0
  9
$DIMSOXD
 70
     0
  9
$DIMSAH
 70
     0
  9
$DIMBLK1
  1

  9
$DIMBLK2
  1

  9
$DIMSTYLE
  2
STANDARD
  9
$DIMCLRD
 70
     0
  9
$DIMCLRE
 70
     0
  9
$DIMCLRT
 70
     0
  9
$DIMTFAC
 40
1.0
  9
$DIMGAP
 40
0.09
  9
$DIMJUST
 70
     0
  9
$DIMSD1
 70
     0
  9
$DIMSD2
 70
     0
  9
$DIMTOLJ
 70
     1
  9
$DIMTZIN
 70
     0
  9
$DIMALTZ
 70
     0
  9
$DIMALTTZ
 70
     0
  9
$DIMFIT
 70
     3
  9
$DIMUPT
 70
     0
  9
$DIMUNIT
 70
     2
  9
$DIMDEC
 70
     4
  9
$DIMTDEC
 70
     4
  9
$DIMALTU
 70
     2
  9
$DIMALTTD
 70
     2
  9
$DIMTXSTY
  7
STANDARD
  9
$DIMAUNIT
 70
     0
  9
$LUNITS
 70
     2
  9
$LUPREC
 70
     4
  9
$SKETCHINC
 40
0.1
  9
$FILLETRAD
 40
0.5
  9
$AUNITS
 70
     0
  9
$AUPREC
 70
     0
  9
$MENU
  1
.
  9
$ELEVATION
 40
0.0
  9
$PELEVATION
 40
0.0
  9
$THICKNESS
 40
0.0
  9
$LIMCHECK
 70
     0
  9
$CHAMFERA
 40
0.0
  9
$CHAMFERB
 40
0.0
  9
$CHAMFERC
 40
0.0
  9
$CHAMFERD
 40
0.0
  9
$SKPOLY
 70
     0
  9
$TDCREATE
 40
2460842.160783623
  9
$TDUPDATE
 40
2460842.160783634
  9
$TDINDWG
 40
0.0000000116
  9
$TDUSRTIMER
 40
0.0000000116
  9
$USRTIMER
 70
     1
  9
$ANGBASE
 50
0.0
  9
$ANGDIR
 70
     0
  9
$PDMODE
 70
     0
  9
$PDSIZE
 40
0.0
  9
$PLINEWID
 40
0.0
  9
$COORDS
 70
     1
  9
$SPLFRAME
 70
     0
  9
$SPLINETYPE
 70
     6
  9
$SPLINESEGS
 70
     8
  9
$ATTDIA
 70
     0
  9
$ATTREQ
 70
     1
  9
$HANDLING
 70
     1
  9
$HANDSEED
  5
100000C5
  9
$SURFTAB1
 70
     6
  9
$SURFTAB2
 70
     6
  9
$SURFTYPE
 70
     6
  9
$SURFU
 70
     6
  9
$SURFV
 70
     6
  9
$UCSNAME
  2

  9
$UCSORG
 10
0.0
 20
0.0
 30
0.0
  9
$UCSXDIR
 10
1.0
 20
0.0
 30
0.0
  9
$UCSYDIR
 10
0.0
 20
1.0
 30
0.0
  9
$PUCSNAME
  2

  9
$PUCSORG
 10
0.0
 20
0.0
 30
0.0
  9
$PUCSXDIR
 10
1.0
 20
0.0
 30
0.0
  9
$PUCSYDIR
 10
0.0
 20
1.0
 30
0.0
  9
$USERI1
 70
     0
  9
$USERI2
 70
     0
  9
$USERI3
 70
     0
  9
$USERI4
 70
     0
  9
$USERI5
 70
     0
  9
$USERR1
 40
0.0
  9
$USERR2
 40
0.0
  9
$USERR3
 40
0.0
  9
$USERR4
 40
0.0
  9
$USERR5
 40
0.0
  9
$WORLDVIEW
 70
     1
  9
$SHADEDGE
 70
     3
  9
$SHADEDIF
 70
    70
  9
$TILEMODE
 70
     1
  9
$MAXACTVP
 70
    64
  9
$PINSBASE
 10
0.0
 20
0.0
 30
0.0
  9
$PLIMCHECK
 70
     0
  9
$PEXTMIN
 10
1.000000000000000E+20
 20
1.000000000000000E+20
 30
1.000000000000000E+20
  9
$PEXTMAX
 10
-1.000000000000000E+20
 20
-1.000000000000000E+20
 30
-1.000000000000000E+20
  9
$PLIMMIN
 10
0.0
 20
0.0
  9
$PLIMMAX
 10
12.0
 20
9.0
  9
$UNITMODE
 70
     0
  9
$VISRETAIN
 70
     1
  9
$PLINEGEN
 70
     0
  9
$PSLTSCALE
 70
     1
  9
$TREEDEPTH
 70
  3020
  9
$PICKSTYLE
 70
     1
  9
$CMLSTYLE
  2
STANDARD
  9
$CMLJUST
 70
     0
  9
$CMLSCALE
 40
1.0
  9
$PROXYGRAPHICS
 70
     1
  9
$MEASUREMENT
 70
     0
  0
ENDSEC
  0
SECTION
  2
CLASSES
  0
CLASS
  1
ACDBDICTIONARYWDFLT
  2
AcDbDictionaryWithDefault
  3
ObjectDBX Classes
 90
        0
280
     0
281
     0
  0
CLASS
  1
VISUALSTYLE
  2
AcDbVisualStyle
  3
ObjectDBX Classes
 90
     4095
280
     0
281
     0
  0
CLASS
  1
MATERIAL
  2
AcDbMaterial
  3
ObjectDBX Classes
 90
     1153
280
     0
281
     0
  0
CLASS
  1
SCALE
  2
AcDbScale
  3
ObjectDBX Classes
 90
     1153
280
     0
281
     0
  0
CLASS
  1
TABLESTYLE
  2
AcDbTableStyle
  3
ObjectDBX Classes
 90
     4095
280
     0
281
     0
  0
CLASS
  1
MLEADERSTYLE
  2
AcDbMLeaderStyle
  3
ACDB_MLEADERSTYLE_CLASS
 90
     4095
280
     0
281
     0
  0
CLASS
  1
SUN
  2
AcDbSun
  3
SCENEOE
 90
     1153
280
     0
281
     0
  0
CLASS
  1
SORTENTSTABLE
  2
AcDbSortentsTable
  3
ObjectDBX Classes
 90
        0
280
     0
281
     0
  0
CLASS
  1
DICTIONARYVAR
  2
AcDbDictionaryVar
  3
ObjectDBX Classes
 90
        0
280
     0
281
     0
  0
CLASS
  1
XRECORD
  2
AcDbXrecord
  3
ObjectDBX Classes
 90
        0
280
     0
281
     0
  0
CLASS
  1
LWPOLYLINE
  2
AcDbPolyline
  3
ObjectDBX Classes
 90
        0
280
     0
281
     1
  0
CLASS
  1
HATCH
  2
AcDbHatch
  3
ObjectDBX Classes
 90
        0
280
     0
281
     1
  0
CLASS
  1
ACDBPLACEHOLDER
  2
AcDbPlaceHolder
  3
ObjectDBX Classes
 90
        0
280
     0
281
     0
  0
CLASS
  1
LAYOUT
  2
AcDbLayout
  3
ObjectDBX Classes
 90
        0
280
     0
281
     0
  0
ENDSEC
  0
SECTION
  2
TABLES
  0
TABLE
  2
VPORT
  5
8
102
{ACAD_XDICTIONARY
360
100000BA
102
}
330
0
100
AcDbSymbolTable
 70
     1
  0
VPORT
  5
29
330
8
100
AcDbSymbolTableRecord
100
AcDbViewportTableRecord
  2
*ACTIVE
 70
     0
 10
0.0
 20
0.0
 11
1.0
 21
1.0
 12
10.42990654205607
 22
4.5
 13
0.0
 23
0.0
 14
0.5
 24
0.5
 15
0.5
 25
0.5
 16
0.0
 26
0.0
 36
1.0
 17
0.0
 27
0.0
 37
0.0
 40
9.0
 41
1.972972972850329
 42
50.0
 43
0.0
 44
0.0
 50
0.0
 51
0.0
 71
     0
 72
   100
 73
     1
 74
     3
 75
     0
 76
     0
 77
     0
 78
     0
  0
ENDTAB
  0
TABLE
  2
LTYPE
  5
5
330
0
100
AcDbSymbolTable
 70
     7
  0
LTYPE
  5
14
330
5
100
AcDbSymbolTableRecord
100
AcDbLinetypeTableRecord
  2
BYBLOCK
 70
     0
  3

 72
    65
 73
     0
 40
0.0
  0
LTYPE
  5
15
330
5
100
AcDbSymbolTableRecord
100
AcDbLinetypeTableRecord
  2
BYLAYER
 70
     0
  3

 72
    65
 73
     0
 40
0.0
  0
LTYPE
  5
16
330
5
100
AcDbSymbolTableRecord
100
AcDbLinetypeTableRecord
  2
CONTINUOUS
 70
     0
  3
Solid line
 72
    65
 73
     0
 40
0.0
  0
LTYPE
  5
10000024
330
5
100
AcDbSymbolTableRecord
100
AcDbLinetypeTableRecord
  2
ONS_PHANTOM
 70
     0
  3
Onshape Phantom line ______ __ __ ______
 72
    65
 73
     6
 40
0.4999999999999999
 49
0.25
 74
     0
 49
-0.05
 74
     0
 49
0.05
 74
     0
 49
-0.05
 74
     0
 49
0.05
 74
     0
 49
-0.05
 74
     0
  0
LTYPE
  5
10000025
330
5
100
AcDbSymbolTableRecord
100
AcDbLinetypeTableRecord
  2
CENTER
 70
     0
  3
Center line ____ _ ____ _ ____ _
 72
    65
 73
     4
 40
0.7199999999999999
 49
0.45
 74
     0
 49
-0.09
 74
     0
 49
0.09
 74
     0
 49
-0.09
 74
     0
  0
LTYPE
  5
10000026
330
5
100
AcDbSymbolTableRecord
100
AcDbLinetypeTableRecord
  2
DASHED
 70
     0
  3
Dashed line __ __ __ __ __
 72
    65
 73
     2
 40
0.75
 49
0.5
 74
     0
 49
-0.25
 74
     0
  0
LTYPE
  5
10000027
330
5
100
AcDbSymbolTableRecord
100
AcDbLinetypeTableRecord
  2
ONS_DASHDOT
 70
     0
  3
Onshape Dashed with Dot _ . ____ . ____
 72
    65
 73
     4
 40
0.71
 49
0.5
 74
     0
 49
-0.1
 74
     0
 49
0.01
 74
     0
 49
-0.1
 74
     0
  0
LTYPE
  5
10000028
330
5
100
AcDbSymbolTableRecord
100
AcDbLinetypeTableRecord
  2
ONS_DOTTED
 70
     0
  3
Onshape Dotted line . . . . . . .
 72
    65
 73
     2
 40
0.11
 49
0.01
 74
     0
 49
-0.1
 74
     0
  0
LTYPE
  5
10000029
330
5
100
AcDbSymbolTableRecord
100
AcDbLinetypeTableRecord
  2
HIDDEN
 70
     0
  3
Hidden line ____ ____ ____ ____ 
 72
    65
 73
     2
 40
0.15
 49
0.1
 74
     0
 49
-0.05
 74
     0
  0
ENDTAB
  0
TABLE
  2
LAYER
  5
2
330
0
100
AcDbSymbolTable
 70
    46
  0
LAYER
  5
10
330
2
100
AcDbSymbolTableRecord
100
AcDbLayerTableRecord
  2
0
 70
     0
 62
     7
  6
CONTINUOUS
  0
LAYER
  5
1000002A
330
2
100
AcDbSymbolTableRecord
100
AcDbLayerTableRecord
  2
SECTION_CUTTING_LINE
 70
     0
 62
     7
  6
ONS_PHANTOM
  0
LAYER
  5
1000002B
330
2
100
AcDbSymbolTableRecord
100
AcDbLayerTableRecord
  2
DETAIL_VIEW_BORDER
 70
     0
 62
     7
  6
CONTINUOUS
  0
LAYER
  5
1000002C
330
2
100
AcDbSymbolTableRecord
100
AcDbLayerTableRecord
  2
DETAIL_VIEW_PARENT_BORDER
 70
     0
 62
     7
  6
ONS_PHANTOM
  0
LAYER
  5
1000002D
330
2
100
AcDbSymbolTableRecord
100
AcDbLayerTableRecord
  2
TEXT
 70
     0
 62
     7
  6
CONTINUOUS
  0
LAYER
  5
1000002E
330
2
100
AcDbSymbolTableRecord
100
AcDbLayerTableRecord
  2
SKETCHED_GEOMETRY
 70
     0
 62
    -7
  6
CONTINUOUS
  0
LAYER
  5
1000002F
330
2
100
AcDbSymbolTableRecord
100
AcDbLayerTableRecord
  2
VIRTUAL_SHARPS
 70
     0
 62
    -7
  6
CONTINUOUS
  0
LAYER
  5
10000030
330
2
100
AcDbSymbolTableRecord
100
AcDbLayerTableRecord
  2
CENTERLINES
 70
     0
 62
    -7
  6
CENTER
  0
LAYER
  5
10000031
330
2
100
AcDbSymbolTableRecord
100
AcDbLayerTableRecord
  2
CENTERMARKS
 70
     0
 62
    -7
  6
CONTINUOUS
  0
LAYER
  5
10000032
330
2
100
AcDbSymbolTableRecord
100
AcDbLayerTableRecord
  2
TABLES
 70
     0
 62
     7
  6
CONTINUOUS
  0
LAYER
  5
10000033
330
2
100
AcDbSymbolTableRecord
100
AcDbLayerTableRecord
  2
IMAGES
 70
     0
 62
    -7
  6
CONTINUOUS
  0
LAYER
  5
10000034
330
2
100
AcDbSymbolTableRecord
100
AcDbLayerTableRecord
  2
ANNOTATION_LINES
 70
     0
 62
    -7
  6
CONTINUOUS
  0
LAYER
  5
10000035
330
2
100
AcDbSymbolTableRecord
100
AcDbLayerTableRecord
  2
ANNOTATION_TEXT
 70
     0
 62
    -7
  6
CONTINUOUS
  0
LAYER
  5
10000036
330
2
100
AcDbSymbolTableRecord
100
AcDbLayerTableRecord
  2
SIDE_THREAD_SYMBOLS
 70
     0
 62
     7
  6
HIDDEN
  0
LAYER
  5
10000037
330
2
100
AcDbSymbolTableRecord
100
AcDbLayerTableRecord
  2
SIDE_THREAD_SYMBOLS_HIDDEN
 70
     0
 62
    -7
  6
HIDDEN
  0
LAYER
  5
10000038
330
2
100
AcDbSymbolTableRecord
100
AcDbLayerTableRecord
  2
SURFACE_THREAD_SYMBOLS
 70
     0
 62
     7
  6
HIDDEN
  0
LAYER
  5
10000039
330
2
100
AcDbSymbolTableRecord
100
AcDbLayerTableRecord
  2
SURFACE_THREAD_SYMBOLS_ON_
 70
     0
 62
     7
  6
HIDDEN
  0
LAYER
  5
1000003A
330
2
100
AcDbSymbolTableRecord
100
AcDbLayerTableRecord
  2
SURFACE_THREAD_SYMBOLS_HID
 70
     0
 62
    -7
  6
HIDDEN
  0
LAYER
  5
1000003B
330
2
100
AcDbSymbolTableRecord
100
AcDbLayerTableRecord
  2
BLIND_THREAD_SYMBOLS
 70
     0
 62
     7
  6
CONTINUOUS
  0
LAYER
  5
1000003C
330
2
100
AcDbSymbolTableRecord
100
AcDbLayerTableRecord
  2
BLIND_THREAD_SYMBOLS_HIDDE
 70
     0
 62
    -7
  6
HIDDEN
  0
LAYER
  5
1000003D
330
2
100
AcDbSymbolTableRecord
100
AcDbLayerTableRecord
  2
EXPLODE_LINES
 70
     0
 62
     7
  6
ONS_PHANTOM
  0
LAYER
  5
1000003E
330
2
100
AcDbSymbolTableRecord
100
AcDbLayerTableRecord
  2
HIDDEN_EXPLODE_LINES
 70
     0
 62
    -7
  6
ONS_PHANTOM
  0
LAYER
  5
1000003F
330
2
100
AcDbSymbolTableRecord
100
AcDbLayerTableRecord
  2
BREAK_LINES
 70
     0
 62
    -7
  6
CONTINUOUS
  0
LAYER
  5
10000040
330
2
100
AcDbSymbolTableRecord
100
AcDbLayerTableRecord
  2
SHEETMETAL_BEND_LINES_UP
 70
     0
 62
     7
  6
CENTER
  0
LAYER
  5
10000041
330
2
100
AcDbSymbolTableRecord
100
AcDbLayerTableRecord
  2
SHEETMETAL_BEND_LINES_DOWN
 70
     0
 62
     7
  6
CENTER
  0
LAYER
  5
10000042
330
2
100
AcDbSymbolTableRecord
100
AcDbLayerTableRecord
  2
SHEETMETAL_BEND_TANGENT_LI
 70
     0
 62
     7
  6
CONTINUOUS
  0
LAYER
  5
10000043
330
2
100
AcDbSymbolTableRecord
100
AcDbLayerTableRecord
  2
SHEETMETAL_CUT_LINES
 70
     0
 62
     7
  6
CONTINUOUS
  0
LAYER
  5
10000044
330
2
100
AcDbSymbolTableRecord
100
AcDbLayerTableRecord
  2
SHEETMETAL_CBORE_CSINK_UP
 70
     0
 62
     7
  6
CONTINUOUS
  0
LAYER
  5
10000045
330
2
100
AcDbSymbolTableRecord
100
AcDbLayerTableRecord
  2
SHEETMETAL_CBORE_CSINK_DOW
 70
     0
 62
     7
  6
CONTINUOUS
  0
LAYER
  5
10000046
330
2
100
AcDbSymbolTableRecord
100
AcDbLayerTableRecord
  2
SHEETMETAL_FORM_TEAR
 70
     0
 62
     7
  6
CONTINUOUS
  0
LAYER
  5
10000047
330
2
100
AcDbSymbolTableRecord
100
AcDbLayerTableRecord
  2
SHEETMETAL_FORM_UP
 70
     0
 62
     7
  6
CENTER
  0
LAYER
  5
10000048
330
2
100
AcDbSymbolTableRecord
100
AcDbLayerTableRecord
  2
SHEETMETAL_FORM_DOWN
 70
     0
 62
     7
  6
CENTER
  0
LAYER
  5
10000049
330
2
100
AcDbSymbolTableRecord
100
AcDbLayerTableRecord
  2
SHEETMETAL_FORM_CENTERMARK
 70
     0
 62
     7
  6
CONTINUOUS
  0
LAYER
  5
1000004A
330
2
100
AcDbSymbolTableRecord
100
AcDbLayerTableRecord
  2
REGION_ASSOC_POINTS
 70
     0
 62
    -7
  6
CONTINUOUS
  0
LAYER
  5
1000004B
330
2
100
AcDbSymbolTableRecord
100
AcDbLayerTableRecord
  2
PATTERN_CENTERLINES
 70
     1
 62
    -7
  6
CENTER
  0
LAYER
  5
1000004C
330
2
100
AcDbSymbolTableRecord
100
AcDbLayerTableRecord
  2
HIDDEN
 70
     0
 62
    -7
  6
HIDDEN
  0
LAYER
  5
1000004D
330
2
100
AcDbSymbolTableRecord
100
AcDbLayerTableRecord
  2
VISIBLE
 70
     0
 62
     7
  6
CONTINUOUS
  0
LAYER
  5
1000004E
330
2
100
AcDbSymbolTableRecord
100
AcDbLayerTableRecord
  2
MODELSKETCH_VISIBLE
 70
     0
 62
     7
  6
CONTINUOUS
  0
LAYER
  5
1000004F
330
2
100
AcDbSymbolTableRecord
100
AcDbLayerTableRecord
  2
MODELSKETCH_POINT
 70
     0
 62
     7
  6
CONTINUOUS
  0
LAYER
  5
10000050
330
2
100
AcDbSymbolTableRecord
100
AcDbLayerTableRecord
  2
MODELSKETCH_CONSTRUCTION
 70
     0
 62
    -7
  6
CENTER
  0
LAYER
  5
10000051
330
2
100
AcDbSymbolTableRecord
100
AcDbLayerTableRecord
  2
HIDDEN_BASE_VIEW
 70
     0
 62
     7
  6
CONTINUOUS
  0
LAYER
  5
10000052
330
2
100
AcDbSymbolTableRecord
100
AcDbLayerTableRecord
  2
TANGENT_LINES
 70
     0
 62
    -7
  6
CONTINUOUS
  0
LAYER
  5
10000053
330
2
100
AcDbSymbolTableRecord
100
AcDbLayerTableRecord
  2
TANGENT_HIDDEN
 70
     0
 62
    -7
  6
HIDDEN
  0
LAYER
  5
10000054
330
2
100
AcDbSymbolTableRecord
100
AcDbLayerTableRecord
  2
INVISIBLE_LINES
 70
     0
 62
    -7
  6
CONTINUOUS
  0
LAYER
  5
10000055
330
2
100
AcDbSymbolTableRecord
100
AcDbLayerTableRecord
  2
VIEW_HATCHES
 70
     0
 62
    -7
  6
CONTINUOUS
  0
LAYER
  5
10000056
330
2
100
AcDbSymbolTableRecord
100
AcDbLayerTableRecord
  2
SECTION_JOG_LINES
 70
     0
 62
    -7
  6
CONTINUOUS
  0
ENDTAB
  0
TABLE
  2
STYLE
  5
3
330
0
100
AcDbSymbolTable
 70
     2
  0
STYLE
  5
11
330
3
100
AcDbSymbolTableRecord
100
AcDbTextStyleTableRecord
  2
STANDARD
 70
     0
 40
0.0
 41
1.0
 50
0.0
 71
     0
 42
0.2
  3
txt
  4

  0
STYLE
  5
10000004
330
3
100
AcDbSymbolTableRecord
100
AcDbTextStyleTableRecord
  2
TTFSTYLE
 70
     0
 40
0.0
 41
1.0
 50
0.0
 71
     0
 42
0.2
  3
Verdana.ttf
  4

1001
ACAD
1000
Verdana
1071
       34
  0
ENDTAB
  0
TABLE
  2
VIEW
  5
6
330
0
100
AcDbSymbolTable
 70
     0
  0
ENDTAB
  0
TABLE
  2
UCS
  5
7
330
0
100
AcDbSymbolTable
 70
     0
  0
ENDTAB
  0
TABLE
  2
APPID
  5
9
330
0
100
AcDbSymbolTable
 70
     2
  0
APPID
  5
12
330
9
100
AcDbSymbolTableRecord
100
AcDbRegAppTableRecord
  2
ACAD
 70
     0
  0
APPID
  5
100000C4
330
9
100
AcDbSymbolTableRecord
100
AcDbRegAppTableRecord
  2
ACAD_MLEADERVER
 70
     0
  0
ENDTAB
  0
TABLE
  2
DIMSTYLE
  5
A
330
0
100
AcDbSymbolTable
 70
     1
  0
DIMSTYLE
105
27
330
A
100
AcDbSymbolTableRecord
100
AcDbDimStyleTableRecord
  2
STANDARD
 70
     0
  3

  4

  5

  6

  7

 40
1.0
 41
0.18
 42
0.0625
 43
0.38
 44
0.18
 45
0.0
 46
0.0
 47
0.0
 48
0.0
140
0.18
141
0.09
142
0.0
143
25.4
144
1.0
145
0.0
146
1.0
147
0.09
 71
     0
 72
     0
 73
     1
 74
     1
 75
     0
 76
     0
 77
     0
 78
     0
170
     0
171
     2
172
     0
173
     0
174
     0
175
     0
176
     0
177
     0
178
     0
270
     2
271
     4
272
     4
273
     2
274
     2
340
11
275
     0
280
     0
281
     0
282
     0
283
     1
284
     0
285
     0
286
     0
287
     3
288
     0
  0
ENDTAB
  0
TABLE
  2
BLOCK_RECORD
  5
1
330
0
100
AcDbSymbolTable
 70
     0
  0
BLOCK_RECORD
  5
1F
102
{ACAD_XDICTIONARY
360
1000008F
102
}
330
1
100
AcDbSymbolTableRecord
100
AcDbBlockTableRecord
  2
*MODEL_SPACE
  0
BLOCK_RECORD
  5
1B
330
1
100
AcDbSymbolTableRecord
100
AcDbBlockTableRecord
  2
*PAPER_SPACE
  0
ENDTAB
  0
ENDSEC
  0
SECTION
  2
BLOCKS
  0
BLOCK
  5
20
330
1F
100
AcDbEntity
  8
0
100
AcDbBlockBegin
  2
*MODEL_SPACE
 70
     0
 10
0.0
 20
0.0
 30
0.0
  3
*MODEL_SPACE
  1

  0
ENDBLK
  5
21
330
1F
100
AcDbEntity
  8
0
100
AcDbBlockEnd
  0
BLOCK
  5
1C
330
1B
100
AcDbEntity
 67
     1
  8
0
100
AcDbBlockBegin
  2
*PAPER_SPACE
 70
     0
 10
0.0
 20
0.0
 30
0.0
  3
*PAPER_SPACE
  1

  0
ENDBLK
  5
1D
330
1B
100
AcDbEntity
 67
     1
  8
0
100
AcDbBlockEnd
  0
ENDSEC
  0
SECTION
  2
ENTITIES
  0
LINE
  5
10000057
102
{ACAD_XDICTIONARY
360
10000058
102
}
330
1F
100
AcDbEntity
  8
MODELSKETCH_VISIBLE
100
AcDbLine
 10
0.5807682555693539
 20
1.371557288351386
 30
0.0
 11
0.1683807381846772
 21
0.9438485699141119
 31
0.0
  0
LINE
  5
1000005B
102
{ACAD_XDICTIONARY
360
1000005C
102
}
330
1F
100
AcDbEntity
  8
MODELSKETCH_VISIBLE
100
AcDbLine
 10
-0.1683807381846774
 20
0.9438485699141119
 30
0.0
 11
-0.051747178859983
 21
1.286959507068603
 31
0.0
  0
LINE
  5
1000005F
102
{ACAD_XDICTIONARY
360
10000060
102
}
330
1F
100
AcDbEntity
  8
MODELSKETCH_VISIBLE
100
AcDbLine
 10
-0.5807682555693537
 20
1.371557288351387
 30
0.0
 11
-0.1683807381846769
 21
0.9438485699141119
 31
0.0
  0
ARC
  5
10000063
102
{ACAD_XDICTIONARY
360
10000064
102
}
330
1F
100
AcDbEntity
  8
MODELSKETCH_VISIBLE
100
AcDbCircle
 10
-0.0287802083061147
 20
-0.0352292849852765
 30
0.0
 40
2.0649577017354
100
AcDbArc
 50
270.798581907589
 51
30.02266383858569
  0
SPLINE
  5
10000067
102
{ACAD_XDICTIONARY
360
10000068
102
}
330
1F
100
AcDbEntity
  8
MODELSKETCH_VISIBLE
100
AcDbSpline
210
0.0
220
0.0
230
1.0
 70
     8
 71
     3
 72
   266
 73
   262
 74
     0
 42
0.000000001
 43
0.00000001
 40
0.0
 40
0.0
 40
0.0
 40
0.0
 40
0.0017638312640054
 40
0.0035276625280108
 40
0.0052914937920162
 40
0.0061734094240189
 40
0.0070553250560216
 40
0.0079372406880243
 40
0.008819156320027
 40
0.0097010719520297
 40
0.0101420297680311
 40
0.0105829875840324
 40
0.0110239454000338
 40
0.0114649032160352
 40
0.0119058610320365
 40
0.0121263399400372
 40
0.0123468188480379
 40
0.0124570583020382
 40
0.0125672977560385
 40
0.0127877766640392
 40
0.0130082555720399
 40
0.0132287344800406
 40
0.0136696922960419
 40
0.0141106501120433
 40
0.0145516079280446
 40
0.014992565744046
 40
0.0158744813760487
 40
0.0167563970080514
 40
0.0176383126400541
 40
0.0185202282720568
 40
0.0194021439040595
 40
0.0202840595360622
 40
0.0211659751680649
 40
0.0216069329840662
 40
0.0220478908000676
 40
0.0224888486160689
 40
0.0229298064320703
 40
0.0233707642480717
 40
0.023811722064073
 40
0.0240322009720737
 40
0.0242526798800744
 40
0.024473158788075
 40
0.0245833982420754
 40
0.0246936376960757
 40
0.0249141166040764
 40
0.0251345955120771
 40
0.0255755533280784
 40
0.0260165111440798
 40
0.0264574689600811
 40
0.0273393845920838
 40
0.0282213002240865
 40
0.0291032158560892
 40
0.0299851314880919
 40
0.0308670471200946
 40
0.0317489627520973
 40
0.0321899205680987
 40
0.0326308783841
 40
0.0330718362001014
 40
0.0335127940161027
 40
0.0337332729241034
 40
0.0339537518321041
 40
0.0340639912861044
 40
0.0341742307401048
 40
0.0342844701941051
 40
0.0343947096481054
 40
0.0346151885561061
 40
0.0348356674641068
 40
0.0352766252801082
 40
0.0357175830961095
 40
0.0361585409121109
 40
0.0370404565441136
 40
0.0379223721761163
 40
0.038804287808119
 40
0.0396862034401217
 40
0.0405681190721244
 40
0.0414500347041271
 40
0.0418909925201284
 40
0.0423319503361298
 40
0.0427729081521311
 40
0.0432138659681325
 40
0.0434343448761332
 40
0.0436548237841338
 40
0.0437650632381342
 40
0.0438753026921345
 40
0.0440957816001352
 40
0.0443162605081359
 40
0.0445367394161365
 40
0.0449776972321379
 40
0.0458596128641406
 40
0.046300570680142
 40
0.0467415284961433
 40
0.0471824863121447
 40
0.047623444128146
 40
0.0480644019441474
 40
0.0485053597601487
 40
0.0487258386681494
 40
0.0489463175761501
 40
0.0491667964841507
 40
0.0492770359381511
 40
0.0493872753921514
 40
0.0496077543001521
 40
0.0498282332081528
 40
0.0502691910241541
 40
0.0507101488401555
 40
0.0511511066561568
 40
0.0515920644721582
 40
0.0520330222881595
 40
0.0524739801041609
 40
0.0529149379201622
 40
0.0533558957361636
 40
0.0535763746441643
 40
0.0537968535521649
 40
0.0539070930061653
 40
0.0540173324601656
 40
0.0542378113681663
 40
0.054458290276167
 40
0.0546787691841676
 40
0.055119727000169
 40
0.0555606848161703
 40
0.0560016426321717
 40
0.056442600448173
 40
0.0568835582641744
 40
0.0573245160801757
 40
0.0577654738961771
 40
0.0579859528041778
 40
0.0582064317121784
 40
0.0584269106201791
 40
0.0585371500741795
 40
0.0586473895281798
 40
0.0587576289821801
 40
0.0588678684361805
 40
0.0590883473441811
 40
0.0593088262521818
 40
0.0595293051601825
 40
0.0599702629761839
 40
0.0604112207921852
 40
0.0608521786081866
 40
0.0617340942401893
 40
0.0621750520561906
 40
0.062616009872192
 40
0.0630569676881933
 40
0.063277446596194
 40
0.0634979255041947
 40
0.063608164958195
 40
0.0637184044121953
 40
0.0638286438661957
 40
0.063938883320196
 40
0.0641593622281967
 40
0.0643798411361974
 40
0.0648207989521987
 40
0.0652617567682001
 40
0.0657027145842014
 40
0.0661436724002028
 40
0.0670255880322055
 40
0.0679075036642082
 40
0.0683484614802095
 40
0.0687894192962109
 40
0.0692303771122122
 40
0.0694508560202129
 40
0.0696713349282136
 40
0.0698918138362143
 40
0.0701122927442149
 40
0.0703327716522156
 40
0.0705532505602163
 40
0.0709942083762177
 40
0.071435166192219
 40
0.0718761240082204
 40
0.0723170818242217
 40
0.0731989974562244
 40
0.0736399552722258
 40
0.0740809130882271
 40
0.0745218709042285
 40
0.0749628287202298
 40
0.0754037865362312
 40
0.0758447443522325
 40
0.0760652232602332
 40
0.0762857021682339
 40
0.0763959416222342
 40
0.0765061810762346
 40
0.0767266599842352
 40
0.0769471388922359
 40
0.0771676178002366
 40
0.0776085756162379
 40
0.0780495334322393
 40
0.0784904912482406
 40
0.078931449064242
 40
0.0793724068802433
 40
0.0798133646962447
 40
0.080254322512246
 40
0.0806952803282474
 40
0.0811362381442488
 40
0.0813567170522494
 40
0.0815771959602501
 40
0.0820181537762515
 40
0.0824591115922528
 40
0.0829000694082542
 40
0.0837819850402569
 40
0.0846639006722596
 40
0.0851048584882609
 40
0.0855458163042623
 40
0.0859867741202636
 40
0.0862072530282643
 40
0.086427731936265
 40
0.0868686897522663
 40
0.0873096475682677
 40
0.087750605384269
 40
0.0879710842922697
 40
0.0881915632002704
 40
0.0884120421082711
 40
0.0885222815622714
 40
0.0886325210162717
 40
0.0888529999242724
 40
0.0890734788322731
 40
0.0895144366482744
 40
0.0899553944642758
 40
0.0903963522802771
 40
0.0908373100962785
 40
0.0912782679122798
 40
0.0917192257282812
 40
0.0921601835442826
 40
0.0926011413602839
 40
0.0930420991762853
 40
0.0934830569922866
 40
0.0943649726242893
 40
0.095246888256292
 40
0.0961288038882947
 40
0.0970107195202974
 40
0.0974516773362988
 40
0.0978926351523001
 40
0.0983335929683015
 40
0.0985540718763022
 40
0.0987745507843028
 40
0.0989950296923035
 40
0.0992155086003042
 40
0.0996564664163055
 40
0.1000974242323069
 40
0.1005383820483082
 40
0.1014202976803109
 40
0.1023022133123137
 40
0.1031841289443164
 40
0.1040660445763191
 40
0.1049479602083218
 40
0.1058298758403245
 40
0.1067117914723272
 40
0.1071527492883285
 40
0.1075937071043299
 40
0.1080346649203312
 40
0.1082551438283319
 40
0.1084756227363326
 40
0.1086961016443332
 40
0.1088063410983336
 40
0.1089165805523339
 40
0.1091370594603346
 40
0.1093575383683353
 40
0.1097984961843366
 40
0.110239454000338
 40
0.1106804118163393
 40
0.1111213696323407
 40
0.111562327448342
 40
0.1120032852643434
 40
0.1128852008963461
 40
0.1128852008963461
 40
0.1128852008963461
 40
0.1128852008963461
 10
1.759117073349264
 20
0.9979568648471984
 30
0.0
 10
1.763856152745489
 20
0.9749706758302942
 30
0.0
 10
1.772291648274091
 20
0.9289592632956262
 30
0.0
 10
1.781764962922756
 20
0.8598230965411898
 30
0.0
 10
1.786936078627156
 20
0.8021076707434945
 30
0.0
 10
1.789373594773686
 20
0.7558717100382365
 30
0.0
 10
1.790331174825407
 20
0.7211621481921804
 30
0.0
 10
1.790393682231922
 20
0.6864190772726985
 30
0.0
 10
1.78956963620093
 20
0.6516428160614496
 30
0.0
 10
1.788151926606431
 20
0.6226352319248482
 30
0.0
 10
1.786583354901268
 20
0.5994129008511901
 30
0.0
 10
1.785190736851239
 20
0.5819880613221493
 30
0.0
 10
1.783582907988296
 20
0.5645551560271406
 30
0.0
 10
1.781760821873199
 20
0.5471142626129227
 30
0.0
 10
1.78006461572991
 20
0.5325734254389062
 30
0.0
 10
1.778601451638089
 20
0.5209370103907013
 30
0.0
 10
1.777642731222419
 20
0.5136620698663077
 30
0.0
 10
1.776849464395382
 20
0.50784233506244
 30
0.0
 10
1.776039519991652
 20
0.502028588166968
 30
0.0
 10
1.774995614657119
 20
0.494770163315236
 30
0.0
 10
1.773693052783755
 20
0.4860747197635647
 30
0.0
 10
1.771890267131037
 20
0.474499933498233
 30
0.0
 10
1.769513910527791
 20
0.4600671905972054
 30
0.0
 10
1.766468565712007
 20
0.4428042043951677
 30
0.0
 10
1.763232299816083
 20
0.4255967216252157
 30
0.0
 10
1.75866631912822
 20
0.4027263648770877
 30
0.0
 10
1.752494890764415
 20
0.3742732911179316
 30
0.0
 10
1.74436689889843
 20
0.3403395700662276
 30
0.0
 10
1.735535432860399
 20
0.3066103503637679
 30
0.0
 10
1.726018201297945
 20
0.273080484031813
 30
0.0
 10
1.715831875877495
 20
0.2397451245953592
 30
0.0
 10
1.704992194206517
 20
0.2065996970972626
 30
0.0
 10
1.69542697718252
 20
0.1791332042628623
 30
0.0
 10
1.687462631013975
 20
0.1572507591604355
 30
0.0
 10
1.681334653954048
 20
0.140883902009047
 30
0.0
 10
1.675054826119955
 20
0.1245611881176647
 30
0.0
 10
1.668618896841125
 20
0.1082838534346324
 30
0.0
 10
1.662013912884864
 20
0.0920556624815846
 30
0.0
 10
1.656359492802931
 20
0.0785758553426059
 30
0.0
 10
1.651739915798295
 20
0.0678199233812291
 30
0.0
 10
1.648225774938918
 20
0.0597673671111611
 30
0.0
 10
1.645254872924337
 20
0.0530691960933055
 30
0.0
 10
1.642852013832834
 20
0.0477183654529491
 30
0.0
 10
1.64043129805104
 20
0.0423723324656311
 30
0.0
 10
1.637376553188455
 20
0.0357100085194881
 30
0.0
 10
1.632425333362299
 20
0.0250924669960738
 30
0.0
 10
1.626115037099972
 20
0.0119020233513111
 30
0.0
 10
1.618341423576228
 20
-0.0037916314385645
 30
0.0
 10
1.607699560825555
 20
-0.0245307131489603
 30
0.0
 10
1.593862282529169
 20
-0.0500958748436897
 30
0.0
 10
1.576359191742448
 20
-0.080171691507251
 30
0.0
 10
1.557924233806166
 20
-0.1096226658424007
 30
0.0
 10
1.538532390428958
 20
-0.1384320211518651
 30
0.0
 10
1.518166952020442
 20
-0.1665885534212197
 30
0.0
 10
1.500376979557559
 20
-0.1895033195232545
 30
0.0
 10
1.485653036451763
 20
-0.2075052553273002
 30
0.0
 10
1.474364626488669
 20
-0.2208421256814855
 30
0.0
 10
1.462831586148341
 20
-0.2340149589357828
 30
0.0
 10
1.453017872109793
 20
-0.244856322414587
 30
0.0
 10
1.445046018633138
 20
-0.2534483198224479
 30
0.0
 10
1.440013378330778
 20
-0.2587847237466789
 30
0.0
 10
1.435957400242513
 20
-0.2630336207318419
 30
0.0
 10
1.432900138035319
 20
-0.2662105970200431
 30
0.0
 10
1.429829177388926
 20
-0.2693762950033097
 30
0.0
 10
1.42572141551696
 20
-0.2735771050762047
 30
0.0
 10
1.420560066041201
 20
-0.2787928798603205
 30
0.0
 10
1.412246706193407
 20
-0.2870630161364742
 30
0.0
 10
1.401752529555864
 20
-0.297262246053297
 30
0.0
 10
1.388999381094792
 20
-0.3092846808280559
 30
0.0
 10
1.371785360192721
 20
-0.3250308433626603
 30
0.0
 10
1.349880080008618
 20
-0.3441891236249159
 30
0.0
 10
1.322982902156322
 20
-0.3663529351756036
 30
0.0
 10
1.295475128276986
 20
-0.3876909499177338
 30
0.0
 10
1.267349024549293
 20
-0.4081927091798915
 30
0.0
 10
1.238589070604364
 20
-0.427837223261174
 30
0.0
 10
1.214074876713914
 20
-0.4434670982530975
 30
0.0
 10
1.1941190633079
 20
-0.4555051437965653
 30
0.0
 10
1.178975072240747
 20
-0.4642941032795203
 30
0.0
 10
1.163648534111785
 20
-0.4728362363237253
 30
0.0
 10
1.150719366259774
 20
-0.4797420952232322
 30
0.0
 10
1.140278123694702
 20
-0.4851347712827311
 30
0.0
 10
1.133711369327549
 20
-0.4884488533739799
 30
0.0
 10
1.128431448171234
 20
-0.4910663632843109
 30
0.0
 10
1.123142517951379
 20
-0.4936568139776845
 30
0.0
 10
1.116514281697754
 20
-0.4968439363258691
 30
0.0
 10
1.108532796501743
 20
-0.5005860231901234
 30
0.0
 10
1.097853566351908
 20
-0.5054642263356679
 30
0.0
 10
1.0790659156681
 20
-0.5137054022855086
 30
0.0
 10
1.057362243030972
 20
-0.5224307645820222
 30
0.0
 10
1.035412707349049
 20
-0.5304218097335958
 30
0.0
 10
1.018823595922185
 20
-0.5360359058433232
 30
0.0
 10
1.002103226507138
 20
-0.5412579711853736
 30
0.0
 10
0.9852468631620441
 20
-0.5460738804143244
 30
0.0
 10
0.9682493618294618
 20
-0.5504681973605408
 30
0.0
 10
0.9539623803996262
 20
-0.5537647443040252
 30
0.0
 10
0.9424564080538049
 20
-0.5561734390837199
 30
0.0
 10
0.9337874867154992
 20
-0.5578632464517979
 30
0.0
 10
0.9265311786573235
 20
-0.5591717681369037
 30
0.0
 10
0.9207032257794976
 20
-0.5601579290705989
 30
0.0
 10
0.9148737619045846
 20
-0.5611009153672889
 30
0.0
 10
0.9075875450333329
 20
-0.5621978070626946
 30
0.0
 10
0.8959294748682751
 20
-0.5637768125427032
 30
0.0
 10
0.8813573189570355
 20
-0.565417289089608
 30
0.0
 10
0.8638712266160544
 20
-0.5668416150890964
 30
0.0
 10
0.8463856957999156
 20
-0.5677103026723436
 30
0.0
 10
0.8289007261265132
 20
-0.5680085790260171
 30
0.0
 10
0.8114163268292448
 20
-0.5677316563565715
 30
0.0
 10
0.7939324904213306
 20
-0.5668840839501015
 30
0.0
 10
0.776449223053526
 20
-0.5654671707361804
 30
0.0
 10
0.76188028470139
 20
-0.5638127144483392
 30
0.0
 10
0.7502254547019217
 20
-0.5622047941219073
 30
0.0
 10
0.7429412137866694
 20
-0.5610812264985804
 30
0.0
 10
0.7371140965546736
 20
-0.560111163950459
 30
0.0
 10
0.7312862779787884
 20
-0.5590933941202768
 30
0.0
 10
0.7240326240583522
 20
-0.5577377125247804
 30
0.0
 10
0.7153728085089139
 20
-0.55597841566565
 30
0.0
 10
0.7038866708940665
 20
-0.5534585637609826
 30
0.0
 10
0.6896398817312012
 20
-0.5499862040974519
 30
0.0
 10
0.672717330456266
 20
-0.5453151149717862
 30
0.0
 10
0.6559647400669979
 20
-0.5401501361959646
 30
0.0
 10
0.639378983500948
 20
-0.5345004051864825
 30
0.0
 10
0.622957321597056
 20
-0.5283738698149784
 30
0.0
 10
0.6066974057017964
 20
-0.5217773480570359
 30
0.0
 10
0.5932806262452003
 20
-0.51589338113378
 30
0.0
 10
0.5826262725874192
 20
-0.510956401493102
 30
0.0
 10
0.5746749323261039
 20
-0.5071392633929825
 30
0.0
 10
0.5680813692991361
 20
-0.5038632400652179
 30
0.0
 10
0.5628263923497067
 20
-0.5011857622725718
 30
0.0
 10
0.5588940587119731
 20
-0.4991488275136595
 30
0.0
 10
0.554974785082734
 20
-0.4970852764237343
 30
0.0
 10
0.5497739087521841
 20
-0.4943025614173499
 30
0.0
 10
0.543315599062967
 20
-0.4907640649939632
 30
0.0
 10
0.5356342615866813
 20
-0.4864235233409636
 30
0.0
 10
0.5254824823104166
 20
-0.4805116900581087
 30
0.0
 10
0.51295969595329
 20
-0.4728914155894214
 30
0.0
 10
0.4981937094619079
 20
-0.4633861390635988
 30
0.0
 10
0.4788478759203276
 20
-0.4502399499955098
 30
0.0
 10
0.4600068405622665
 20
-0.4363966510339059
 30
0.0
 10
0.4416590811757858
 20
-0.4218721548699766
 30
0.0
 10
0.4281433250433243
 20
-0.4106403628883135
 30
0.0
 10
0.4170835151013893
 20
-0.4009997455752597
 30
0.0
 10
0.4083575653464205
 20
-0.3931189434089448
 30
0.0
 10
0.4029546462024077
 20
-0.3881232243973597
 30
0.0
 10
0.3986629172351057
 20
-0.3840845327728151
 30
0.0
 10
0.3954592316935542
 20
-0.3810342357446366
 30
0.0
 10
0.3922715285283708
 20
-0.3779634339231515
 30
0.0
 10
0.3880502886741892
 20
-0.3738492286447161
 30
0.0
 10
0.3828250965138715
 20
-0.3686667294300792
 30
0.0
 10
0.3745748628668477
 20
-0.3602916151286127
 30
0.0
 10
0.364466743756676
 20
-0.3496672356243972
 30
0.0
 10
0.3526620049607567
 20
-0.3366713753750297
 30
0.0
 10
0.341180594937871
 20
-0.3234301023280602
 30
0.0
 10
0.3263035986000224
 20
-0.3054475443437
 30
0.0
 10
0.3085124464753128
 20
-0.2823583076822735
 30
0.0
 10
0.2917575632331358
 20
-0.2584825673221529
 30
0.0
 10
0.2789588510328235
 20
-0.2389226736059772
 30
0.0
 10
0.2696589658550521
 20
-0.2240256498473976
 30
0.0
 10
0.2621559658246
 20
-0.2114242590012643
 30
0.0
 10
0.2563003136385075
 20
-0.2012313478576979
 30
0.0
 10
0.2519822193499237
 20
-0.1935319224771055
 30
0.0
 10
0.2477354731991281
 20
-0.1857739488325717
 30
0.0
 10
0.2435747745625221
 20
-0.1779854904860421
 30
0.0
 10
0.2394984527614534
 20
-0.1701657245180775
 30
0.0
 10
0.2341749687984691
 20
-0.1596984639454038
 30
0.0
 10
0.2277277160220266
 20
-0.1465382519365865
 30
0.0
 10
0.2203166946250542
 20
-0.1306263408908584
 30
0.0
 10
0.213226636236356
 20
-0.1145964874333525
 30
0.0
 10
0.2041964134767058
 20
-0.093067849857101
 30
0.0
 10
0.1957952044840537
 20
-0.0713080799892465
 30
0.0
 10
0.1880199683552074
 20
-0.049318295832371
 30
0.0
 10
0.1825031632275502
 20
-0.032710349352901
 30
0.0
 10
0.1773038731742042
 20
-0.0159857320519762
 30
0.0
 10
0.1724270457692589
 20
0.0008573762867549
 30
0.0
 10
0.1678799712086411
 20
0.0178216461725823
 30
0.0
 10
0.1643740000355695
 20
0.0320626414094379
 30
0.0
 10
0.1617462119790852
 20
0.0435204268959789
 30
0.0
 10
0.1601794314996823
 20
0.0507094209237031
 30
0.0
 10
0.1589726710628281
 20
0.0564775257326116
 30
0.0
 10
0.1577973244670626
 20
0.0622580393053043
 30
0.0
 10
0.1563925190526563
 20
0.0694837270429076
 30
0.0
 10
0.1548108280036658
 20
0.0781573698936795
 30
0.0
 10
0.1528426174088623
 20
0.0897250592539276
 30
0.0
 10
0.1506487323097216
 20
0.1041904812616792
 30
0.0
 10
0.1484450770615029
 20
0.1215582048860382
 30
0.0
 10
0.1466646666786927
 20
0.138935058956013
 30
0.0
 10
0.1452916275878845
 20
0.1563206913080782
 30
0.0
 10
0.1442980145387098
 20
0.1737145023026392
 30
0.0
 10
0.1436420730012692
 20
0.1911155912508067
 30
0.0
 10
0.1432671922543089
 20
0.2085227381690459
 30
0.0
 10
0.1431017386754054
 20
0.2259343990285843
 30
0.0
 10
0.1430693727818207
 20
0.2404463906009514
 30
0.0
 10
0.1430600424170528
 20
0.2520563408399816
 30
0.0
 10
0.1430560159604575
 20
0.2636664053985033
 30
0.0
 10
0.1430641339006734
 20
0.2781792695509379
 30
0.0
 10
0.1430964957391588
 20
0.2955951940876146
 30
0.0
 10
0.1431731097140176
 20
0.3188171480982213
 30
0.0
 10
0.1433371540634715
 20
0.3478460622374646
 30
0.0
 10
0.1436081484178414
 20
0.3768772815583867
 30
0.0
 10
0.1439000792696215
 20
0.4001038764633553
 30
0.0
 10
0.1441597392602647
 20
0.4175247001504815
 30
0.0
 10
0.1444130073612292
 20
0.4320428481886157
 30
0.0
 10
0.1446394905007124
 20
0.4436578811730866
 30
0.0
 10
0.1448833231976344
 20
0.4552732877656304
 30
0.0
 10
0.1452374053836466
 20
0.4697936108614051
 30
0.0
 10
0.1457894989896497
 20
0.4872207289127967
 30
0.0
 10
0.1463941361963893
 20
0.5017464771677979
 30
0.0
 10
0.1469865518216969
 20
0.51336934260894
 30
0.0
 10
0.1474905231823114
 20
0.522087985698307
 30
0.0
 10
0.1479644879152774
 20
0.5293540232898378
 30
0.0
 10
0.1483787335433894
 20
0.5351690940220126
 30
0.0
 10
0.1488165811916594
 20
0.5409775141352086
 30
0.0
 10
0.1494092743457431
 20
0.5482227542658712
 30
0.0
 10
0.1504598257154483
 20
0.5597817647985301
 30
0.0
 10
0.1519742774656856
 20
0.5741643447832637
 30
0.0
 10
0.1541415310496135
 20
0.5913085327246858
 30
0.0
 10
0.1566832495463136
 20
0.6083297079607176
 30
0.0
 10
0.1596210883971309
 20
0.6252207676452514
 30
0.0
 10
0.1629740506249536
 20
0.6419754668325879
 30
0.0
 10
0.1667587639493921
 20
0.6585883443994086
 30
0.0
 10
0.1709898479230835
 20
0.6750545979058732
 30
0.0
 10
0.1756798522533768
 20
0.6913701050742481
 30
0.0
 10
0.1807994364930617
 20
0.7075445036484553
 30
0.0
 10
0.1881586860770734
 20
0.7289352432791483
 30
0.0
 10
0.1982816664976846
 20
0.7553701785948879
 30
0.0
 10
0.211654723538626
 20
0.7866895551066022
 30
0.0
 10
0.2259870373364497
 20
0.8176938327655221
 30
0.0
 10
0.2384989651559648
 20
0.8433440501237284
 30
0.0
 10
0.2487070926868578
 20
0.8637989801732534
 30
0.0
 10
0.2564265145300915
 20
0.8791194103442563
 30
0.0
 10
0.2628821728001637
 20
0.8918788356178791
 30
0.0
 10
0.2680425168937427
 20
0.9020879926171448
 30
0.0
 10
0.2719061193994378
 20
0.9097463828602907
 30
0.0
 10
0.2757591758268078
 20
0.917410959437063
 30
0.0
 10
0.2808826858566552
 20
0.9276405197764998
 30
0.0
 10
0.2872805201729836
 20
0.9404319075615869
 30
0.0
 10
0.2949951666372435
 20
0.9557556081149738
 30
0.0
 10
0.3053864803104656
 20
0.9761137352695051
 30
0.0
 10
0.3186656079602212
 20
1.001358771553356
 30
0.0
 10
0.3353052959247807
 20
1.031160372420193
 30
0.0
 10
0.3528357940490391
 20
1.060339512753245
 30
0.0
 10
0.3714055569212721
 20
1.08879245765795
 30
0.0
 10
0.3911341335285368
 20
1.116435671151286
 30
0.0
 10
0.4121196815546883
 20
1.14320056601087
 30
0.0
 10
0.4307237247329412
 20
1.164724766513323
 30
0.0
 10
0.4463118757101387
 20
1.181451568053683
 30
0.0
 10
0.4583633408365104
 20
1.193744849343688
 30
0.0
 10
0.4687129278749131
 20
1.203775007826444
 30
0.0
 10
0.4771800943238241
 20
1.211667970871452
 30
0.0
 10
0.4836253949577235
 20
1.217521769271276
 30
0.0
 10
0.4890752456626974
 20
1.222343603073897
 30
0.0
 10
0.4934851694026074
 20
1.226169000872724
 30
0.0
 10
0.4979191770853605
 20
1.229964866039339
 30
0.0
 10
0.5035015293232157
 20
1.234652011066416
 30
0.0
 10
0.512516250434238
 20
1.242035331444144
 30
0.0
 10
0.5239325174471418
 20
1.251055722694073
 30
0.0
 10
0.5378492175707493
 20
1.261574125185399
 30
0.0
 10
0.5519658297577997
 20
1.271810647654144
 30
0.0
 10
0.5662671847476615
 20
1.281786718827921
 30
0.0
 10
0.5807398286613847
 20
1.291521295371601
 30
0.0
 10
0.6002492432415553
 20
1.304201058804244
 30
0.0
 10
0.6151042078860219
 20
1.313396619680845
 30
0.0
 10
0.6250945008648999
 20
1.319404360074796
 30
0.0
  0
LINE
  5
1000006B
102
{ACAD_XDICTIONARY
360
1000006C
102
}
330
1F
100
AcDbEntity
  8
MODELSKETCH_VISIBLE
100
AcDbLine
 10
0.5807682555693541
 20
1.371557288351386
 30
0.0
 11
0.6250945008648999
 21
1.319404360074795
 31
0.0
  0
SPLINE
  5
1000006F
102
{ACAD_XDICTIONARY
360
10000070
102
}
330
1F
100
AcDbEntity
  8
MODELSKETCH_VISIBLE
100
AcDbSpline
210
0.0
220
0.0
230
1.0
 70
     8
 71
     3
 72
    47
 73
    43
 74
     0
 42
0.000000001
 43
0.00000001
 40
0.0
 40
0.0
 40
0.0
 40
0.0
 40
0.0004107609421022
 40
0.0008215218842044
 40
0.0012322828263066
 40
0.0016430437684088
 40
0.0018484242394599
 40
0.002053804710511
 40
0.0022591851815621
 40
0.0023618754170876
 40
0.0024645656526132
 40
0.0026699461236643
 40
0.0028753265947154
 40
0.0032860875368176
 40
0.0036968484789198
 40
0.0041076094210219
 40
0.004312989892073
 40
0.0045183703631241
 40
0.0047237508341752
 40
0.0049291313052263
 40
0.0053398922473285
 40
0.0057506531894307
 40
0.0061614141315329
 40
0.0065721750736351
 40
0.0069829360157373
 40
0.0073936969578395
 40
0.0078044578999417
 40
0.0082152188420439
 40
0.0086259797841461
 40
0.0088313602551972
 40
0.0090367407262483
 40
0.0092421211972994
 40
0.0094475016683505
 40
0.0098582626104527
 40
0.0102690235525549
 40
0.0106797844946571
 40
0.0110905454367593
 40
0.0115013063788615
 40
0.0119120673209637
 40
0.0123228282630658
 40
0.012733589205168
 40
0.0131443501472702
 40
0.0131443501472702
 40
0.0131443501472702
 40
0.0131443501472702
 10
0.2221712272916892
 20
1.77044270407721
 30
0.0
 10
0.2193589719029556
 20
1.765823893449268
 30
0.0
 10
0.2137838042167703
 20
1.756561362257178
 30
0.0
 10
0.2055919471806542
 20
1.742581292582326
 30
0.0
 10
0.1976362672712821
 20
1.728481993304996
 30
0.0
 10
0.1912604991163885
 20
1.716604367710941
 30
0.0
 10
0.1863227091010784
 20
1.707020068330102
 30
0.0
 10
0.1826927672176044
 20
1.699794788859949
 30
0.0
 10
0.1797161888186869
 20
1.693749302348427
 30
0.0
 10
0.177351607321222
 20
1.688904491928693
 30
0.0
 10
0.1749936919034444
 20
1.684056316292296
 30
0.0
 10
0.1720605330868225
 20
1.677988910036504
 30
0.0
 10
0.1674024500679586
 20
1.668263406794663
 30
0.0
 10
0.1616536950382139
 20
1.656069237914263
 30
0.0
 10
0.1549004282129421
 20
1.641362953685228
 30
0.0
 10
0.1494188648009773
 20
1.629033810367365
 30
0.0
 10
0.1451423421827241
 20
1.619115876546896
 30
0.0
 10
0.1419877347611509
 20
1.611650040847283
 30
0.0
 10
0.1388816914105734
 20
1.60416250557622
 30
0.0
 10
0.1347987944077018
 20
1.594157630517504
 30
0.0
 10
0.1297865833645206
 20
1.581615959702353
 30
0.0
 10
0.1238555731247982
 20
1.566533881194446
 30
0.0
 10
0.1179475479080683
 20
1.551442906382871
 30
0.0
 10
0.1120079992281467
 20
1.536364085764971
 30
0.0
 10
0.1060907838608879
 20
1.521276666569433
 30
0.0
 10
0.1002414887241022
 20
1.506163045136535
 30
0.0
 10
0.0944986366838246
 20
1.4910085395491
 30
0.0
 10
0.0889020457162258
 20
1.475797205896827
 30
0.0
 10
0.0843980492902628
 20
1.463060992518904
 30
0.0
 10
0.0809170303944768
 20
1.452821637299133
 30
0.0
 10
0.0783804162470567
 20
1.445128164766822
 30
0.0
 10
0.0759275362647997
 20
1.43741993583418
 30
0.0
 10
0.0727823725563845
 20
1.427119853303649
 30
0.0
 10
0.0690939078571752
 20
1.414201393475908
 30
0.0
 10
0.0650854158664322
 20
1.398624668171022
 30
0.0
 10
0.0615264925831799
 20
1.382967686395158
 30
0.0
 10
0.0584526260151706
 20
1.367224109306485
 30
0.0
 10
0.0559029636080133
 20
1.351386949018327
 30
0.0
 10
0.0539224480624269
 20
1.335448181907659
 30
0.0
 10
0.052555039922358
 20
1.319399959996217
 30
0.0
 10
0.0518135150303259
 20
1.303240002463252
 30
0.0
 10
0.0517145118921535
 20
1.292396118275705
 30
0.0
 10
0.051747178859983
 20
1.286959507068604
 30
0.0
  0
LINE
  5
10000073
102
{ACAD_XDICTIONARY
360
10000074
102
}
330
1F
100
AcDbEntity
  8
MODELSKETCH_VISIBLE
100
AcDbLine
 10
-0.2221712272916892
 20
1.770442704077211
 30
0.0
 11
0.0000000000000001
 21
2.022932091294404
 31
0.0
  0
LINE
  5
10000077
102
{ACAD_XDICTIONARY
360
10000078
102
}
330
1F
100
AcDbEntity
  8
MODELSKETCH_VISIBLE
100
AcDbLine
 10
0.22217122729169
 20
1.77044270407721
 30
0.0
 11
0.0
 21
2.022932091294404
 31
0.0
  0
SPLINE
  5
1000007B
102
{ACAD_XDICTIONARY
360
1000007C
102
}
330
1F
100
AcDbEntity
  8
MODELSKETCH_VISIBLE
100
AcDbSpline
210
0.0
220
0.0
230
1.0
 70
     8
 71
     3
 72
    47
 73
    43
 74
     0
 42
0.000000001
 43
0.00000001
 40
0.0
 40
0.0
 40
0.0
 40
0.0
 40
0.0004107609421022
 40
0.0008215218842044
 40
0.0012322828263066
 40
0.0016430437684088
 40
0.0018484242394599
 40
0.002053804710511
 40
0.0022591851815621
 40
0.0023618754170876
 40
0.0024645656526132
 40
0.0026699461236643
 40
0.0028753265947154
 40
0.0032860875368176
 40
0.0036968484789198
 40
0.004107609421022
 40
0.0043129898920731
 40
0.0045183703631242
 40
0.0047237508341753
 40
0.0049291313052264
 40
0.0053398922473286
 40
0.0057506531894308
 40
0.006161414131533
 40
0.0065721750736352
 40
0.0069829360157374
 40
0.0073936969578395
 40
0.0078044578999417
 40
0.0082152188420439
 40
0.0086259797841461
 40
0.0088313602551972
 40
0.0090367407262483
 40
0.0092421211972994
 40
0.0094475016683505
 40
0.0098582626104527
 40
0.0102690235525549
 40
0.0106797844946571
 40
0.0110905454367593
 40
0.0115013063788615
 40
0.0119120673209637
 40
0.0123228282630659
 40
0.0127335892051681
 40
0.0131443501472703
 40
0.0131443501472703
 40
0.0131443501472703
 40
0.0131443501472703
 10
-0.2221712272916902
 20
1.770442704077212
 30
0.0
 10
-0.2193589719029566
 20
1.76582389344927
 30
0.0
 10
-0.2137838042167711
 20
1.75656136225718
 30
0.0
 10
-0.2055919471806554
 20
1.742581292582328
 30
0.0
 10
-0.1976362672712807
 20
1.728481993304994
 30
0.0
 10
-0.191260499116393
 20
1.71660436771095
 30
0.0
 10
-0.1863227091010778
 20
1.707020068330101
 30
0.0
 10
-0.1826927672176044
 20
1.699794788859948
 30
0.0
 10
-0.1797161888186869
 20
1.693749302348426
 30
0.0
 10
-0.1773516073212233
 20
1.688904491928696
 30
0.0
 10
-0.1749936919034444
 20
1.684056316292295
 30
0.0
 10
-0.1720605330868217
 20
1.677988910036502
 30
0.0
 10
-0.1674024500679611
 20
1.668263406794668
 30
0.0
 10
-0.161653695038213
 20
1.656069237914259
 30
0.0
 10
-0.1549004282129436
 20
1.641362953685231
 30
0.0
 10
-0.1494188648009787
 20
1.629033810367368
 30
0.0
 10
-0.1451423421827246
 20
1.619115876546897
 30
0.0
 10
-0.1419877347611517
 20
1.611650040847285
 30
0.0
 10
-0.1388816914105735
 20
1.604162505576221
 30
0.0
 10
-0.1347987944077033
 20
1.594157630517507
 30
0.0
 10
-0.129786583364521
 20
1.581615959702355
 30
0.0
 10
-0.1238555731247986
 20
1.566533881194447
 30
0.0
 10
-0.1179475479080689
 20
1.551442906382872
 30
0.0
 10
-0.1120079992281479
 20
1.536364085764975
 30
0.0
 10
-0.1060907838608878
 20
1.521276666569433
 30
0.0
 10
-0.1002414887241026
 20
1.506163045136535
 30
0.0
 10
-0.0944986366838254
 20
1.491008539549102
 30
0.0
 10
-0.088902045716226
 20
1.475797205896828
 30
0.0
 10
-0.0843980492902632
 20
1.463060992518906
 30
0.0
 10
-0.0809170303944766
 20
1.452821637299133
 30
0.0
 10
-0.0783804162470572
 20
1.445128164766823
 30
0.0
 10
-0.0759275362648002
 20
1.437419935834182
 30
0.0
 10
-0.0727823725563839
 20
1.427119853303648
 30
0.0
 10
-0.0690939078571754
 20
1.414201393475908
 30
0.0
 10
-0.0650854158664322
 20
1.398624668171021
 30
0.0
 10
-0.0615264925831801
 20
1.38296768639516
 30
0.0
 10
-0.0584526260151702
 20
1.367224109306482
 30
0.0
 10
-0.0559029636080135
 20
1.351386949018329
 30
0.0
 10
-0.053922448062427
 20
1.33544818190766
 30
0.0
 10
-0.052555039922358
 20
1.319399959996217
 30
0.0
 10
-0.0518135150303259
 20
1.30324000246325
 30
0.0
 10
-0.0517145118921535
 20
1.292396118275705
 30
0.0
 10
-0.051747178859983
 20
1.286959507068604
 30
0.0
  0
LINE
  5
1000007F
102
{ACAD_XDICTIONARY
360
10000080
102
}
330
1F
100
AcDbEntity
  8
MODELSKETCH_VISIBLE
100
AcDbLine
 10
0.1683807381846776
 20
0.9438485699141119
 30
0.0
 11
0.0517471788599832
 21
1.286959507068603
 31
0.0
  0
LINE
  5
10000083
102
{ACAD_XDICTIONARY
360
10000084
102
}
330
1F
100
AcDbEntity
  8
MODELSKETCH_VISIBLE
100
AcDbLine
 10
-0.5807682555693539
 20
1.371557288351386
 30
0.0
 11
-0.6250945008648999
 21
1.319404360074795
 31
0.0
  0
SPLINE
  5
10000087
102
{ACAD_XDICTIONARY
360
10000088
102
}
330
1F
100
AcDbEntity
  8
MODELSKETCH_VISIBLE
100
AcDbSpline
210
0.0
220
0.0
230
1.0
 70
     8
 71
     3
 72
   266
 73
   262
 74
     0
 42
0.000000001
 43
0.00000001
 40
0.0
 40
0.0
 40
0.0
 40
0.0
 40
0.0017638312640054
 40
0.0035276625280108
 40
0.0052914937920162
 40
0.0061734094240189
 40
0.0070553250560216
 40
0.0079372406880243
 40
0.008819156320027
 40
0.0097010719520297
 40
0.0101420297680311
 40
0.0105829875840324
 40
0.0110239454000338
 40
0.0114649032160352
 40
0.0119058610320365
 40
0.0121263399400372
 40
0.0123468188480379
 40
0.0124570583020382
 40
0.0125672977560385
 40
0.0127877766640392
 40
0.0130082555720399
 40
0.0132287344800406
 40
0.0136696922960419
 40
0.0141106501120433
 40
0.0145516079280446
 40
0.014992565744046
 40
0.0158744813760487
 40
0.0167563970080514
 40
0.0176383126400541
 40
0.0185202282720568
 40
0.0194021439040595
 40
0.0202840595360622
 40
0.0211659751680649
 40
0.0216069329840662
 40
0.0220478908000676
 40
0.0224888486160689
 40
0.0229298064320703
 40
0.0233707642480717
 40
0.023811722064073
 40
0.0240322009720737
 40
0.0242526798800744
 40
0.024473158788075
 40
0.0245833982420754
 40
0.0246936376960757
 40
0.0249141166040764
 40
0.0251345955120771
 40
0.0255755533280784
 40
0.0260165111440798
 40
0.0264574689600811
 40
0.0273393845920838
 40
0.0282213002240865
 40
0.0291032158560892
 40
0.0299851314880919
 40
0.0308670471200946
 40
0.0317489627520973
 40
0.0321899205680987
 40
0.0326308783841
 40
0.0330718362001014
 40
0.0335127940161027
 40
0.0337332729241034
 40
0.0339537518321041
 40
0.0340639912861044
 40
0.0341742307401048
 40
0.0342844701941051
 40
0.0343947096481054
 40
0.0346151885561061
 40
0.0348356674641068
 40
0.0352766252801082
 40
0.0357175830961095
 40
0.0361585409121109
 40
0.0370404565441136
 40
0.0379223721761163
 40
0.038804287808119
 40
0.0396862034401217
 40
0.0405681190721244
 40
0.0414500347041271
 40
0.0418909925201284
 40
0.0423319503361298
 40
0.0427729081521311
 40
0.0432138659681325
 40
0.0434343448761332
 40
0.0436548237841338
 40
0.0437650632381342
 40
0.0438753026921345
 40
0.0440957816001352
 40
0.0443162605081359
 40
0.0445367394161365
 40
0.0449776972321379
 40
0.0458596128641406
 40
0.046300570680142
 40
0.0467415284961433
 40
0.0471824863121447
 40
0.047623444128146
 40
0.0480644019441474
 40
0.0485053597601487
 40
0.0487258386681494
 40
0.0489463175761501
 40
0.0491667964841507
 40
0.0492770359381511
 40
0.0493872753921514
 40
0.0496077543001521
 40
0.0498282332081528
 40
0.0502691910241541
 40
0.0507101488401555
 40
0.0511511066561568
 40
0.0515920644721582
 40
0.0520330222881595
 40
0.0524739801041609
 40
0.0529149379201622
 40
0.0533558957361636
 40
0.0535763746441643
 40
0.0537968535521649
 40
0.0539070930061653
 40
0.0540173324601656
 40
0.0542378113681663
 40
0.054458290276167
 40
0.0546787691841676
 40
0.055119727000169
 40
0.0555606848161703
 40
0.0560016426321717
 40
0.056442600448173
 40
0.0568835582641744
 40
0.0573245160801758
 40
0.0577654738961771
 40
0.0579859528041778
 40
0.0582064317121785
 40
0.0584269106201791
 40
0.0585371500741795
 40
0.0586473895281798
 40
0.0587576289821801
 40
0.0588678684361805
 40
0.0590883473441812
 40
0.0593088262521818
 40
0.0595293051601825
 40
0.0599702629761839
 40
0.0604112207921852
 40
0.0608521786081866
 40
0.0617340942401893
 40
0.0621750520561906
 40
0.062616009872192
 40
0.0630569676881933
 40
0.063277446596194
 40
0.0634979255041947
 40
0.063608164958195
 40
0.0637184044121953
 40
0.0638286438661957
 40
0.063938883320196
 40
0.0641593622281967
 40
0.0643798411361974
 40
0.0648207989521987
 40
0.0652617567682001
 40
0.0657027145842014
 40
0.0661436724002028
 40
0.0670255880322055
 40
0.0679075036642082
 40
0.0683484614802095
 40
0.0687894192962109
 40
0.0692303771122122
 40
0.0694508560202129
 40
0.0696713349282136
 40
0.0698918138362143
 40
0.0701122927442149
 40
0.0703327716522156
 40
0.0705532505602163
 40
0.0709942083762177
 40
0.071435166192219
 40
0.0718761240082204
 40
0.0723170818242217
 40
0.0731989974562244
 40
0.0736399552722258
 40
0.0740809130882271
 40
0.0745218709042285
 40
0.0749628287202298
 40
0.0754037865362312
 40
0.0758447443522325
 40
0.0760652232602332
 40
0.0762857021682339
 40
0.0763959416222342
 40
0.0765061810762346
 40
0.0767266599842352
 40
0.0769471388922359
 40
0.0771676178002366
 40
0.0776085756162379
 40
0.0780495334322393
 40
0.0784904912482406
 40
0.078931449064242
 40
0.0793724068802433
 40
0.0798133646962447
 40
0.080254322512246
 40
0.0806952803282474
 40
0.0811362381442488
 40
0.0813567170522494
 40
0.0815771959602501
 40
0.0820181537762515
 40
0.0824591115922528
 40
0.0829000694082542
 40
0.0837819850402569
 40
0.0846639006722596
 40
0.0851048584882609
 40
0.0855458163042623
 40
0.0859867741202636
 40
0.0862072530282643
 40
0.086427731936265
 40
0.0868686897522663
 40
0.0873096475682677
 40
0.087750605384269
 40
0.0879710842922697
 40
0.0881915632002704
 40
0.0884120421082711
 40
0.0885222815622714
 40
0.0886325210162717
 40
0.0888529999242724
 40
0.0890734788322731
 40
0.0895144366482744
 40
0.0899553944642758
 40
0.0903963522802771
 40
0.0908373100962785
 40
0.0912782679122798
 40
0.0917192257282812
 40
0.0921601835442826
 40
0.0926011413602839
 40
0.0930420991762853
 40
0.0934830569922866
 40
0.0943649726242893
 40
0.095246888256292
 40
0.0961288038882947
 40
0.0970107195202974
 40
0.0974516773362988
 40
0.0978926351523001
 40
0.0983335929683015
 40
0.0985540718763022
 40
0.0987745507843028
 40
0.0989950296923035
 40
0.0992155086003042
 40
0.0996564664163055
 40
0.1000974242323069
 40
0.1005383820483082
 40
0.1014202976803109
 40
0.1023022133123137
 40
0.1031841289443164
 40
0.1040660445763191
 40
0.1049479602083218
 40
0.1058298758403245
 40
0.1067117914723272
 40
0.1071527492883285
 40
0.1075937071043299
 40
0.1080346649203312
 40
0.1082551438283319
 40
0.1084756227363326
 40
0.1086961016443332
 40
0.1088063410983336
 40
0.1089165805523339
 40
0.1091370594603346
 40
0.1093575383683353
 40
0.1097984961843366
 40
0.110239454000338
 40
0.1106804118163393
 40
0.1111213696323407
 40
0.111562327448342
 40
0.1120032852643434
 40
0.1128852008963461
 40
0.1128852008963461
 40
0.1128852008963461
 40
0.1128852008963461
 10
-1.759117073349264
 20
0.9979568648471963
 30
0.0
 10
-1.763856152745489
 20
0.974970675830292
 30
0.0
 10
-1.772291648274092
 20
0.9289592632956236
 30
0.0
 10
-1.781764962922757
 20
0.8598230965411868
 30
0.0
 10
-1.786936078627155
 20
0.8021076707434915
 30
0.0
 10
-1.789373594773688
 20
0.7558717100382347
 30
0.0
 10
-1.790331174825405
 20
0.7211621481921772
 30
0.0
 10
-1.790393682231924
 20
0.6864190772726967
 30
0.0
 10
-1.78956963620093
 20
0.6516428160614465
 30
0.0
 10
-1.788151926606431
 20
0.6226352319248455
 30
0.0
 10
-1.786583354901269
 20
0.5994129008511885
 30
0.0
 10
-1.785190736851239
 20
0.5819880613221456
 30
0.0
 10
-1.783582907988297
 20
0.5645551560271382
 30
0.0
 10
-1.781760821873199
 20
0.5471142626129201
 30
0.0
 10
-1.78006461572991
 20
0.5325734254389047
 30
0.0
 10
-1.778601451638089
 20
0.5209370103906998
 30
0.0
 10
-1.777642731222419
 20
0.5136620698663044
 30
0.0
 10
-1.776849464395382
 20
0.5078423350624379
 30
0.0
 10
-1.776039519991652
 20
0.5020285881669656
 30
0.0
 10
-1.774995614657118
 20
0.4947701633152337
 30
0.0
 10
-1.773693052783755
 20
0.4860747197635624
 30
0.0
 10
-1.771890267131036
 20
0.4744999334982324
 30
0.0
 10
-1.769513910527791
 20
0.4600671905972021
 30
0.0
 10
-1.766468565712007
 20
0.4428042043951665
 30
0.0
 10
-1.763232299816083
 20
0.4255967216252118
 30
0.0
 10
-1.75866631912822
 20
0.4027263648770857
 30
0.0
 10
-1.752494890764416
 20
0.37427329111793
 30
0.0
 10
-1.74436689889843
 20
0.3403395700662261
 30
0.0
 10
-1.735535432860398
 20
0.3066103503637658
 30
0.0
 10
-1.726018201297944
 20
0.273080484031811
 30
0.0
 10
-1.715831875877494
 20
0.2397451245953575
 30
0.0
 10
-1.704992194206518
 20
0.2065996970972613
 30
0.0
 10
-1.695426977182519
 20
0.1791332042628596
 30
0.0
 10
-1.687462631013974
 20
0.1572507591604345
 30
0.0
 10
-1.681334653954047
 20
0.1408839020090437
 30
0.0
 10
-1.675054826119955
 20
0.1245611881176632
 30
0.0
 10
-1.668618896841124
 20
0.1082838534346309
 30
0.0
 10
-1.662013912884864
 20
0.0920556624815825
 30
0.0
 10
-1.656359492802929
 20
0.0785758553426034
 30
0.0
 10
-1.651739915798295
 20
0.0678199233812282
 30
0.0
 10
-1.648225774938917
 20
0.0597673671111588
 30
0.0
 10
-1.645254872924336
 20
0.0530691960933041
 30
0.0
 10
-1.642852013832834
 20
0.0477183654529472
 30
0.0
 10
-1.640431298051039
 20
0.0423723324656292
 30
0.0
 10
-1.637376553188454
 20
0.0357100085194868
 30
0.0
 10
-1.632425333362298
 20
0.0250924669960715
 30
0.0
 10
-1.626115037099972
 20
0.0119020233513102
 30
0.0
 10
-1.618341423576227
 20
-0.003791631438566
 30
0.0
 10
-1.607699560825553
 20
-0.0245307131489624
 30
0.0
 10
-1.593862282529168
 20
-0.050095874843693
 30
0.0
 10
-1.576359191742446
 20
-0.0801716915072516
 30
0.0
 10
-1.557924233806166
 20
-0.1096226658424014
 30
0.0
 10
-1.538532390428957
 20
-0.1384320211518677
 30
0.0
 10
-1.518166952020443
 20
-0.1665885534212198
 30
0.0
 10
-1.500376979557557
 20
-0.1895033195232567
 30
0.0
 10
-1.485653036451763
 20
-0.2075052553273009
 30
0.0
 10
-1.474364626488668
 20
-0.2208421256814866
 30
0.0
 10
-1.46283158614834
 20
-0.2340149589357843
 30
0.0
 10
-1.453017872109793
 20
-0.2448563224145875
 30
0.0
 10
-1.445046018633136
 20
-0.2534483198224499
 30
0.0
 10
-1.440013378330778
 20
-0.2587847237466797
 30
0.0
 10
-1.435957400242512
 20
-0.2630336207318431
 30
0.0
 10
-1.432900138035317
 20
-0.2662105970200448
 30
0.0
 10
-1.429829177388927
 20
-0.2693762950033093
 30
0.0
 10
-1.425721415516958
 20
-0.2735771050762072
 30
0.0
 10
-1.420560066041201
 20
-0.278792879860321
 30
0.0
 10
-1.412246706193406
 20
-0.2870630161364753
 30
0.0
 10
-1.401752529555862
 20
-0.2972622460532979
 30
0.0
 10
-1.388999381094791
 20
-0.3092846808280567
 30
0.0
 10
-1.37178536019272
 20
-0.3250308433626611
 30
0.0
 10
-1.349880080008617
 20
-0.3441891236249164
 30
0.0
 10
-1.32298290215632
 20
-0.366352935175605
 30
0.0
 10
-1.295475128276985
 20
-0.3876909499177346
 30
0.0
 10
-1.267349024549292
 20
-0.4081927091798921
 30
0.0
 10
-1.238589070604362
 20
-0.4278372232611753
 30
0.0
 10
-1.214074876713913
 20
-0.4434670982530984
 30
0.0
 10
-1.194119063307898
 20
-0.4555051437965658
 30
0.0
 10
-1.178975072240746
 20
-0.4642941032795214
 30
0.0
 10
-1.163648534111784
 20
-0.4728362363237256
 30
0.0
 10
-1.150719366259773
 20
-0.479742095223233
 30
0.0
 10
-1.140278123694701
 20
-0.4851347712827317
 30
0.0
 10
-1.133711369327548
 20
-0.4884488533739803
 30
0.0
 10
-1.128431448171233
 20
-0.4910663632843112
 30
0.0
 10
-1.123142517951377
 20
-0.4936568139776854
 30
0.0
 10
-1.116514281697754
 20
-0.4968439363258689
 30
0.0
 10
-1.10853279650174
 20
-0.5005860231901248
 30
0.0
 10
-1.097853566351908
 20
-0.5054642263356678
 30
0.0
 10
-1.079065915668099
 20
-0.5137054022855093
 30
0.0
 10
-1.057362243030971
 20
-0.5224307645820229
 30
0.0
 10
-1.035412707349047
 20
-0.5304218097335959
 30
0.0
 10
-1.018823595922183
 20
-0.5360359058433238
 30
0.0
 10
-1.002103226507137
 20
-0.5412579711853739
 30
0.0
 10
-0.9852468631620436
 20
-0.5460738804143245
 30
0.0
 10
-0.9682493618294596
 20
-0.5504681973605411
 30
0.0
 10
-0.9539623803996258
 20
-0.5537647443040254
 30
0.0
 10
-0.9424564080538025
 20
-0.5561734390837203
 30
0.0
 10
-0.9337874867154993
 20
-0.5578632464517982
 30
0.0
 10
-0.9265311786573216
 20
-0.5591717681369038
 30
0.0
 10
-0.9207032257794968
 20
-0.5601579290705991
 30
0.0
 10
-0.9148737619045826
 20
-0.5611009153672895
 30
0.0
 10
-0.9075875450333328
 20
-0.5621978070626945
 30
0.0
 10
-0.8959294748682735
 20
-0.5637768125427035
 30
0.0
 10
-0.8813573189570328
 20
-0.5654172890896082
 30
0.0
 10
-0.8638712266160535
 20
-0.5668416150890964
 30
0.0
 10
-0.8463856957999142
 20
-0.5677103026723437
 30
0.0
 10
-0.8289007261265116
 20
-0.5680085790260171
 30
0.0
 10
-0.811416326829243
 20
-0.5677316563565717
 30
0.0
 10
-0.7939324904213289
 20
-0.5668840839501013
 30
0.0
 10
-0.7764492230535244
 20
-0.5654671707361802
 30
0.0
 10
-0.7618802847013891
 20
-0.5638127144483391
 30
0.0
 10
-0.75022545470192
 20
-0.562204794121907
 30
0.0
 10
-0.7429412137866683
 20
-0.5610812264985802
 30
0.0
 10
-0.7371140965546723
 20
-0.560111163950459
 30
0.0
 10
-0.7312862779787871
 20
-0.5590933941202763
 30
0.0
 10
-0.7240326240583519
 20
-0.5577377125247802
 30
0.0
 10
-0.7153728085089127
 20
-0.5559784156656497
 30
0.0
 10
-0.7038866708940655
 20
-0.5534585637609828
 30
0.0
 10
-0.6896398817311998
 20
-0.5499862040974511
 30
0.0
 10
-0.6727173304562653
 20
-0.5453151149717862
 30
0.0
 10
-0.6559647400669971
 20
-0.5401501361959643
 30
0.0
 10
-0.6393789835009464
 20
-0.5345004051864818
 30
0.0
 10
-0.6229573215970545
 20
-0.5283738698149781
 30
0.0
 10
-0.6066974057017963
 20
-0.5217773480570357
 30
0.0
 10
-0.5932806262451981
 20
-0.5158933811337792
 30
0.0
 10
-0.582626272587418
 20
-0.5109564014931012
 30
0.0
 10
-0.5746749323261025
 20
-0.5071392633929821
 30
0.0
 10
-0.5680813692991352
 20
-0.5038632400652172
 30
0.0
 10
-0.5628263923497054
 20
-0.501185762272571
 30
0.0
 10
-0.5588940587119711
 20
-0.4991488275136583
 30
0.0
 10
-0.5549747850827328
 20
-0.4970852764237335
 30
0.0
 10
-0.5497739087521833
 20
-0.4943025614173494
 30
0.0
 10
-0.5433155990629654
 20
-0.4907640649939622
 30
0.0
 10
-0.5356342615866798
 20
-0.4864235233409626
 30
0.0
 10
-0.5254824823104162
 20
-0.4805116900581084
 30
0.0
 10
-0.5129596959532895
 20
-0.4728914155894207
 30
0.0
 10
-0.4981937094619067
 20
-0.463386139063598
 30
0.0
 10
-0.4788478759203256
 20
-0.4502399499955083
 30
0.0
 10
-0.4600068405622653
 20
-0.4363966510339052
 30
0.0
 10
-0.4416590811757848
 20
-0.4218721548699754
 30
0.0
 10
-0.4281433250433234
 20
-0.4106403628883128
 30
0.0
 10
-0.4170835151013883
 20
-0.4009997455752586
 30
0.0
 10
-0.4083575653464194
 20
-0.3931189434089438
 30
0.0
 10
-0.4029546462024068
 20
-0.3881232243973587
 30
0.0
 10
-0.3986629172351047
 20
-0.3840845327728141
 30
0.0
 10
-0.3954592316935534
 20
-0.3810342357446356
 30
0.0
 10
-0.3922715285283698
 20
-0.3779634339231503
 30
0.0
 10
-0.3880502886741882
 20
-0.373849228644715
 30
0.0
 10
-0.3828250965138704
 20
-0.368666729430078
 30
0.0
 10
-0.3745748628668468
 20
-0.360291615128612
 30
0.0
 10
-0.3644667437566751
 20
-0.349667235624396
 30
0.0
 10
-0.3526620049607557
 20
-0.3366713753750283
 30
0.0
 10
-0.3411805949378705
 20
-0.3234301023280596
 30
0.0
 10
-0.3263035986000204
 20
-0.3054475443436975
 30
0.0
 10
-0.3085124464753128
 20
-0.2823583076822732
 30
0.0
 10
-0.2917575632331352
 20
-0.2584825673221516
 30
0.0
 10
-0.2789588510328229
 20
-0.2389226736059763
 30
0.0
 10
-0.2696589658550514
 20
-0.2240256498473965
 30
0.0
 10
-0.2621559658245999
 20
-0.2114242590012635
 30
0.0
 10
-0.2563003136385067
 20
-0.2012313478576966
 30
0.0
 10
-0.2519822193499234
 20
-0.1935319224771049
 30
0.0
 10
-0.2477354731991266
 20
-0.1857739488325694
 30
0.0
 10
-0.2435747745625218
 20
-0.1779854904860414
 30
0.0
 10
-0.2394984527614527
 20
-0.1701657245180757
 30
0.0
 10
-0.2341749687984678
 20
-0.159698463945402
 30
0.0
 10
-0.227727716022026
 20
-0.1465382519365855
 30
0.0
 10
-0.2203166946250537
 20
-0.1306263408908575
 30
0.0
 10
-0.2132266362363556
 20
-0.1145964874333512
 30
0.0
 10
-0.2041964134767054
 20
-0.0930678498571001
 30
0.0
 10
-0.1957952044840532
 20
-0.0713080799892457
 30
0.0
 10
-0.1880199683552072
 20
-0.0493182958323701
 30
0.0
 10
-0.1825031632275496
 20
-0.0327103493528999
 30
0.0
 10
-0.177303873174204
 20
-0.0159857320519753
 30
0.0
 10
-0.1724270457692583
 20
0.0008573762867569
 30
0.0
 10
-0.1678799712086408
 20
0.0178216461725828
 30
0.0
 10
-0.1643740000355693
 20
0.0320626414094388
 30
0.0
 10
-0.1617462119790848
 20
0.04352042689598
 30
0.0
 10
-0.160179431499682
 20
0.0507094209237037
 30
0.0
 10
-0.1589726710628278
 20
0.0564775257326128
 30
0.0
 10
-0.1577973244670623
 20
0.0622580393053053
 30
0.0
 10
-0.1563925190526562
 20
0.0694837270429085
 30
0.0
 10
-0.1548108280036655
 20
0.0781573698936805
 30
0.0
 10
-0.1528426174088623
 20
0.0897250592539285
 30
0.0
 10
-0.1506487323097214
 20
0.1041904812616797
 30
0.0
 10
-0.1484450770615028
 20
0.12155820488604
 30
0.0
 10
-0.1466646666786925
 20
0.1389350589560143
 30
0.0
 10
-0.1452916275878843
 20
0.156320691308081
 30
0.0
 10
-0.1442980145387099
 20
0.1737145023026398
 30
0.0
 10
-0.143642073001269
 20
0.191115591250808
 30
0.0
 10
-0.143267192254309
 20
0.2085227381690476
 30
0.0
 10
-0.1431017386754053
 20
0.2259343990285861
 30
0.0
 10
-0.1430693727818207
 20
0.2404463906009525
 30
0.0
 10
-0.1430600424170526
 20
0.2520563408399831
 30
0.0
 10
-0.1430560159604576
 20
0.2636664053985049
 30
0.0
 10
-0.1430641339006734
 20
0.2781792695509387
 30
0.0
 10
-0.1430964957391589
 20
0.2955951940876162
 30
0.0
 10
-0.1431731097140176
 20
0.3188171480982224
 30
0.0
 10
-0.1433371540634715
 20
0.3478460622374666
 30
0.0
 10
-0.1436081484178414
 20
0.3768772815583887
 30
0.0
 10
-0.1439000792696215
 20
0.4001038764633574
 30
0.0
 10
-0.1441597392602647
 20
0.4175247001504832
 30
0.0
 10
-0.1444130073612291
 20
0.432042848188617
 30
0.0
 10
-0.1446394905007124
 20
0.443657881173088
 30
0.0
 10
-0.1448833231976344
 20
0.455273287765632
 30
0.0
 10
-0.1452374053836466
 20
0.4697936108614061
 30
0.0
 10
-0.1457894989896497
 20
0.4872207289127994
 30
0.0
 10
-0.1463941361963892
 20
0.5017464771677994
 30
0.0
 10
-0.1469865518216971
 20
0.5133693426089417
 30
0.0
 10
-0.1474905231823114
 20
0.522087985698308
 30
0.0
 10
-0.1479644879152776
 20
0.5293540232898406
 30
0.0
 10
-0.1483787335433894
 20
0.5351690940220144
 30
0.0
 10
-0.1488165811916596
 20
0.54097751413521
 30
0.0
 10
-0.1494092743457432
 20
0.5482227542658736
 30
0.0
 10
-0.1504598257154483
 20
0.559781764798532
 30
0.0
 10
-0.1519742774656859
 20
0.5741643447832672
 30
0.0
 10
-0.1541415310496136
 20
0.591308532724687
 30
0.0
 10
-0.156683249546314
 20
0.6083297079607204
 30
0.0
 10
-0.1596210883971313
 20
0.6252207676452537
 30
0.0
 10
-0.162974050624954
 20
0.6419754668325901
 30
0.0
 10
-0.1667587639493927
 20
0.658588344399411
 30
0.0
 10
-0.1709898479230839
 20
0.6750545979058749
 30
0.0
 10
-0.1756798522533775
 20
0.6913701050742511
 30
0.0
 10
-0.1807994364930627
 20
0.7075445036484576
 30
0.0
 10
-0.1881586860770741
 20
0.7289352432791509
 30
0.0
 10
-0.1982816664976857
 20
0.7553701785948909
 30
0.0
 10
-0.211654723538627
 20
0.7866895551066048
 30
0.0
 10
-0.2259870373364508
 20
0.8176938327655244
 30
0.0
 10
-0.2384989651559655
 20
0.8433440501237296
 30
0.0
 10
-0.2487070926868589
 20
0.8637989801732554
 30
0.0
 10
-0.2564265145300922
 20
0.8791194103442578
 30
0.0
 10
-0.2628821728001648
 20
0.8918788356178813
 30
0.0
 10
-0.2680425168937438
 20
0.9020879926171467
 30
0.0
 10
-0.2719061193994391
 20
0.9097463828602933
 30
0.0
 10
-0.2757591758268081
 20
0.9174109594370643
 30
0.0
 10
-0.2808826858566564
 20
0.927640519776502
 30
0.0
 10
-0.2872805201729846
 20
0.9404319075615892
 30
0.0
 10
-0.2949951666372447
 20
0.9557556081149764
 30
0.0
 10
-0.3053864803104666
 20
0.9761137352695065
 30
0.0
 10
-0.3186656079602216
 20
1.001358771553357
 30
0.0
 10
-0.335305295924782
 20
1.031160372420196
 30
0.0
 10
-0.3528357940490394
 20
1.060339512753245
 30
0.0
 10
-0.3714055569212736
 20
1.088792457657952
 30
0.0
 10
-0.391134133528537
 20
1.116435671151286
 30
0.0
 10
-0.4121196815546893
 20
1.143200566010871
 30
0.0
 10
-0.4307237247329408
 20
1.164724766513323
 30
0.0
 10
-0.4463118757101395
 20
1.181451568053683
 30
0.0
 10
-0.4583633408365103
 20
1.193744849343688
 30
0.0
 10
-0.4687129278749119
 20
1.203775007826444
 30
0.0
 10
-0.4771800943238247
 20
1.211667970871452
 30
0.0
 10
-0.4836253949577219
 20
1.217521769271275
 30
0.0
 10
-0.4890752456626972
 20
1.222343603073897
 30
0.0
 10
-0.4934851694026066
 20
1.226169000872723
 30
0.0
 10
-0.49791917708536
 20
1.229964866039338
 30
0.0
 10
-0.5035015293232157
 20
1.234652011066416
 30
0.0
 10
-0.5125162504342378
 20
1.242035331444143
 30
0.0
 10
-0.5239325174471394
 20
1.25105572269407
 30
0.0
 10
-0.5378492175707488
 20
1.261574125185399
 30
0.0
 10
-0.551965829757801
 20
1.271810647654146
 30
0.0
 10
-0.56626718474766
 20
1.281786718827919
 30
0.0
 10
-0.580739828661385
 20
1.291521295371602
 30
0.0
 10
-0.6002492432415547
 20
1.304201058804244
 30
0.0
 10
-0.6151042078860217
 20
1.313396619680844
 30
0.0
 10
-0.6250945008648998
 20
1.319404360074795
 30
0.0
  0
ARC
  5
1000008B
102
{ACAD_XDICTIONARY
360
1000008C
102
}
330
1F
100
AcDbEntity
  8
MODELSKETCH_VISIBLE
100
AcDbCircle
 10
0.0287802083061147
 20
-0.0352292849852765
 30
0.0
 40
2.0649577017354
100
AcDbArc
 50
149.9773361614144
 51
269.201418092411
  0
ENDSEC
  0
SECTION
  2
OBJECTS
  0
DICTIONARY
  5
C
330
0
100
AcDbDictionary
  3
ACAD_GROUP
350
D
  3
ACAD_LAYOUT
350
1A
  3
ACAD_MATERIAL
350
43
  3
ACAD_MLEADERSTYLE
350
6B
  3
ACAD_MLINESTYLE
350
17
  3
ACAD_PLOTSETTINGS
350
19
  3
ACAD_SCALELIST
350
47
  3
ACAD_VISUALSTYLE
350
2A
  3
ACDBHEADERROUNDTRIPXREC
350
10000091
  3
ACDBVARIABLEDICTIONARY
350
100000B2
  3
DWGPROPS
350
100000B9
  3
ONSHAPE_DATA
350
10000001
  0
DICTIONARY
  5
100000BA
330
8
100
AcDbDictionary
280
     1
  3
ACAD_XREC_ROUNDTRIP
360
100000BB
  0
DICTIONARY
  5
1000008F
330
1F
100
AcDbDictionary
280
     1
  3
ACAD_SORTENTS
360
10000090
  0
DICTIONARY
  5
10000058
330
10000057
100
AcDbDictionary
280
     1
  3
BTDETID
360
10000059
  3
BTPARTID
360
1000005A
  0
DICTIONARY
  5
1000005C
330
1000005B
100
AcDbDictionary
280
     1
  3
BTDETID
360
1000005D
  3
BTPARTID
360
1000005E
  0
DICTIONARY
  5
10000060
330
1000005F
100
AcDbDictionary
280
     1
  3
BTDETID
360
10000061
  3
BTPARTID
360
10000062
  0
DICTIONARY
  5
10000064
330
10000063
100
AcDbDictionary
280
     1
  3
BTDETID
360
10000065
  3
BTPARTID
360
10000066
  0
DICTIONARY
  5
10000068
330
10000067
100
AcDbDictionary
280
     1
  3
BTDETID
360
10000069
  3
BTPARTID
360
1000006A
  0
DICTIONARY
  5
1000006C
330
1000006B
100
AcDbDictionary
280
     1
  3
BTDETID
360
1000006D
  3
BTPARTID
360
1000006E
  0
DICTIONARY
  5
10000070
330
1000006F
100
AcDbDictionary
280
     1
  3
BTDETID
360
10000071
  3
BTPARTID
360
10000072
  0
DICTIONARY
  5
10000074
330
10000073
100
AcDbDictionary
280
     1
  3
BTDETID
360
10000075
  3
BTPARTID
360
10000076
  0
DICTIONARY
  5
10000078
330
10000077
100
AcDbDictionary
280
     1
  3
BTDETID
360
10000079
  3
BTPARTID
360
1000007A
  0
DICTIONARY
  5
1000007C
330
1000007B
100
AcDbDictionary
280
     1
  3
BTDETID
360
1000007D
  3
BTPARTID
360
1000007E
  0
DICTIONARY
  5
10000080
330
1000007F
100
AcDbDictionary
280
     1
  3
BTDETID
360
10000081
  3
BTPARTID
360
10000082
  0
DICTIONARY
  5
10000084
330
10000083
100
AcDbDictionary
280
     1
  3
BTDETID
360
10000085
  3
BTPARTID
360
10000086
  0
DICTIONARY
  5
10000088
330
10000087
100
AcDbDictionary
280
     1
  3
BTDETID
360
10000089
  3
BTPARTID
360
1000008A
  0
DICTIONARY
  5
1000008C
330
1000008B
100
AcDbDictionary
280
     1
  3
BTDETID
360
1000008D
  3
BTPARTID
360
1000008E
  0
DICTIONARY
  5
D
102
{ACAD_REACTORS
330
C
102
}
330
C
100
AcDbDictionary
  0
DICTIONARY
  5
1A
102
{ACAD_REACTORS
330
C
102
}
330
C
100
AcDbDictionary
  0
DICTIONARY
  5
43
102
{ACAD_REACTORS
330
C
102
}
330
C
100
AcDbDictionary
  3
BYBLOCK
350
45
  3
BYLAYER
350
44
  3
GLOBAL
350
46
  0
DICTIONARY
  5
6B
102
{ACAD_REACTORS
330
C
102
}
330
C
100
AcDbDictionary
  3
STANDARD
350
6C
  0
DICTIONARY
  5
17
102
{ACAD_REACTORS
330
C
102
}
330
C
100
AcDbDictionary
  3
STANDARD
350
18
  0
DICTIONARY
  5
19
102
{ACAD_REACTORS
330
C
102
}
330
C
100
AcDbDictionary
  0
DICTIONARY
  5
47
102
{ACAD_REACTORS
330
C
102
}
330
C
100
AcDbDictionary
  3
SCALE100_1
350
10000023
  3
SCALE10_1
350
1000001D
  3
SCALE12_1
350
1000001E
  3
SCALE16_1
350
1000001F
  3
SCALE1_1
350
10000006
  3
SCALE1_10
350
1000000D
  3
SCALE1_100
350
10000016
  3
SCALE1_12
350
1000000E
  3
SCALE1_16
350
1000000F
  3
SCALE1_2
350
10000007
  3
SCALE1_20
350
10000010
  3
SCALE1_25
350
10000011
  3
SCALE1_3
350
10000008
  3
SCALE1_32
350
10000012
  3
SCALE1_4
350
10000009
  3
SCALE1_40
350
10000013
  3
SCALE1_5
350
1000000A
  3
SCALE1_50
350
10000014
  3
SCALE1_6
350
1000000B
  3
SCALE1_8
350
1000000C
  3
SCALE1_80
350
10000015
  3
SCALE20_1
350
10000020
  3
SCALE2_1
350
10000017
  3
SCALE32_1
350
10000021
  3
SCALE3_1
350
10000018
  3
SCALE4_1
350
10000019
  3
SCALE50_1
350
10000022
  3
SCALE5_1
350
1000001A
  3
SCALE6_1
350
1000001B
  3
SCALE8_1
350
1000001C
  0
DICTIONARY
  5
2A
102
{ACAD_REACTORS
330
C
102
}
330
C
100
AcDbDictionary
  3
2DWIREFRAME
350
2F
  3
BASIC
350
32
  3
BRIGHTEN
350
36
  3
COLORCHANGE
350
3A
  3
CONCEPTUAL
350
34
  3
DIM
350
35
  3
EDGECOLOROFF
350
3D
  3
FACEPATTERN
350
39
  3
FLAT
350
2B
  3
FLATWITHEDGES
350
2C
  3
GOURAUD
350
2D
  3
GOURAUDWITHEDGES
350
2E
  3
HIDDEN
350
31
  3
JITTEROFF
350
3B
  3
LINEPATTERN
350
38
  3
OVERHANGOFF
350
3C
  3
REALISTIC
350
33
  3
SHADED
350
42
  3
SHADED_WITH_EDGES
350
41
  3
SHADES_OF_GRAY
350
3E
  3
SKETCHY
350
3F
  3
THICKEN
350
37
  3
WIREFRAME
350
30
  3
X-RAY
350
40
  0
DICTIONARY
  5
10000091
102
{ACAD_REACTORS
330
C
102
}
330
C
100
AcDbDictionary
  3
CEPSNID
350
1000009B
  3
CEPSNTYPE
350
1000009A
  3
DIMSTYLEDATA
350
100000B1
  3
FINGERPRINTGUID
350
1000009C
  3
HYPERLINKBASE
350
10000094
  3
INSUNITS
350
10000099
  3
LAYOUTDICT
350
10000096
  3
LWETCUNION
350
10000098
  3
PLOTSETDICT
350
10000097
  3
PSVPSCALE
350
1000009E
  3
PUCSBASE
350
100000A1
  3
PUCSORGBACK
350
100000A7
  3
PUCSORGBOTTOM
350
100000A3
  3
PUCSORGFRONT
350
100000A6
  3
PUCSORGLEFT
350
100000A4
  3
PUCSORGRIGHT
350
100000A5
  3
PUCSORGTOP
350
100000A2
  3
PUCSORTHOREF
350
1000009F
  3
PUCSORTHOVIEW
350
100000A0
  3
STYLESHEET
350
10000095
  3
TSTACKALIGN
350
10000092
  3
TSTACKSIZE
350
10000093
  3
UCSBASE
350
100000AA
  3
UCSORGBACK
350
100000B0
  3
UCSORGBOTTOM
350
100000AC
  3
UCSORGFRONT
350
100000AF
  3
UCSORGLEFT
350
100000AD
  3
UCSORGRIGHT
350
100000AE
  3
UCSORGTOP
350
100000AB
  3
UCSORTHOREF
350
100000A8
  3
UCSORTHOVIEW
350
100000A9
  3
VERSIONGUID
350
1000009D
  0
DICTIONARY
  5
100000B2
102
{ACAD_REACTORS
330
C
102
}
330
C
100
AcDbDictionary
  3
CANNOSCALE
350
100000BC
  3
CMLEADERSTYLE
350
100000B4
  3
CTABLESTYLE
350
100000B3
  3
DIMASSOC
350
100000B7
  3
HIDETEXT
350
100000B8
  3
MSLTSCALE
350
100000BD
  0
XRECORD
  5
100000B9
102
{ACAD_REACTORS
330
C
102
}
330
C
100
AcDbXrecord
  1
DWGPROPS COOKIE
  2

  3

  4

  6
File was created by BTDwgCreate
  7

  8

  9

300
=
301
=
302
=
303
=
304
=
305
=
306
=
307
=
308
=
309
=
 40
0.0
 41
2460842.160783623
 42
2460842.160783634
  1

 90
        0
  0
DICTIONARY
  5
10000001
102
{ACAD_REACTORS
330
C
102
}
330
C
100
AcDbDictionary
280
     1
  3
DIM_UNITS
360
10000003
  3
DWGGEN_VERSION
360
10000002
  3
FIRST_ANGLE
360
10000005
  0
XRECORD
  5
100000BB
102
{ACAD_REACTORS
330
100000BA
102
}
330
100000BA
100
AcDbXrecord
102
VTR_0.000_0.000_1.000_1.000_VISUALSTYLE
340
2F
102
VTR_0.000_0.000_1.000_1.000_GRIDDISPLAY
 70
     3
102
VTR_0.000_0.000_1.000_1.000_GRIDMAJOR
 70
     5
102
VTR_0.000_0.000_1.000_1.000_DEFAULTLIGHTING
280
     1
102
VTR_0.000_0.000_1.000_1.000_DEFAULTLIGHTINGTYPE
 70
     1
102
VTR_0.000_0.000_1.000_1.000_BRIGHTNESS
141
0.0
102
VTR_0.000_0.000_1.000_1.000_CONTRAST
142
0.0
  0
SORTENTSTABLE
  5
10000090
102
{ACAD_REACTORS
330
1000008F
102
}
330
1000008F
100
AcDbSortentsTable
330
1F
  0
XRECORD
  5
10000059
102
{ACAD_REACTORS
330
10000058
102
}
330
10000058
100
AcDbXrecord
1000
JJx
  0
XRECORD
  5
1000005A
102
{ACAD_REACTORS
330
10000058
102
}
330
10000058
100
AcDbXrecord
1000
JJz
  0
XRECORD
  5
1000005D
102
{ACAD_REACTORS
330
1000005C
102
}
330
1000005C
100
AcDbXrecord
1000
JJt
  0
XRECORD
  5
1000005E
102
{ACAD_REACTORS
330
1000005C
102
}
330
1000005C
100
AcDbXrecord
1000
JJv
  0
XRECORD
  5
10000061
102
{ACAD_REACTORS
330
10000060
102
}
330
10000060
100
AcDbXrecord
1000
JJp
  0
XRECORD
  5
10000062
102
{ACAD_REACTORS
330
10000060
102
}
330
10000060
100
AcDbXrecord
1000
JJr
  0
XRECORD
  5
10000065
102
{ACAD_REACTORS
330
10000064
102
}
330
10000064
100
AcDbXrecord
1000
JJl
  0
XRECORD
  5
10000066
102
{ACAD_REACTORS
330
10000064
102
}
330
10000064
100
AcDbXrecord
1000
JJn
  0
XRECORD
  5
10000069
102
{ACAD_REACTORS
330
10000068
102
}
330
10000068
100
AcDbXrecord
1000
JJh
  0
XRECORD
  5
1000006A
102
{ACAD_REACTORS
330
10000068
102
}
330
10000068
100
AcDbXrecord
1000
JJj
  0
XRECORD
  5
1000006D
102
{ACAD_REACTORS
330
1000006C
102
}
330
1000006C
100
AcDbXrecord
1000
JJd
  0
XRECORD
  5
1000006E
102
{ACAD_REACTORS
330
1000006C
102
}
330
1000006C
100
AcDbXrecord
1000
JJf
  0
XRECORD
  5
10000071
102
{ACAD_REACTORS
330
10000070
102
}
330
10000070
100
AcDbXrecord
1000
JJZ
  0
XRECORD
  5
10000072
102
{ACAD_REACTORS
330
10000070
102
}
330
10000070
100
AcDbXrecord
1000
JJb
  0
XRECORD
  5
10000075
102
{ACAD_REACTORS
330
10000074
102
}
330
10000074
100
AcDbXrecord
1000
JJR
  0
XRECORD
  5
10000076
102
{ACAD_REACTORS
330
10000074
102
}
330
10000074
100
AcDbXrecord
1000
JJT
  0
XRECORD
  5
10000079
102
{ACAD_REACTORS
330
10000078
102
}
330
10000078
100
AcDbXrecord
1000
JJV
  0
XRECORD
  5
1000007A
102
{ACAD_REACTORS
330
10000078
102
}
330
10000078
100
AcDbXrecord
1000
JJX
  0
XRECORD
  5
1000007D
102
{ACAD_REACTORS
330
1000007C
102
}
330
1000007C
100
AcDbXrecord
1000
JJN
  0
XRECORD
  5
1000007E
102
{ACAD_REACTORS
330
1000007C
102
}
330
1000007C
100
AcDbXrecord
1000
JJP
  0
XRECORD
  5
10000081
102
{ACAD_REACTORS
330
10000080
102
}
330
10000080
100
AcDbXrecord
1000
JJ1
  0
XRECORD
  5
10000082
102
{ACAD_REACTORS
330
10000080
102
}
330
10000080
100
AcDbXrecord
1000
JJ3
  0
XRECORD
  5
10000085
102
{ACAD_REACTORS
330
10000084
102
}
330
10000084
100
AcDbXrecord
1000
JJJ
  0
XRECORD
  5
10000086
102
{ACAD_REACTORS
330
10000084
102
}
330
10000084
100
AcDbXrecord
1000
JJL
  0
XRECORD
  5
10000089
102
{ACAD_REACTORS
330
10000088
102
}
330
10000088
100
AcDbXrecord
1000
JJF
  0
XRECORD
  5
1000008A
102
{ACAD_REACTORS
330
10000088
102
}
330
10000088
100
AcDbXrecord
1000
JJH
  0
XRECORD
  5
1000008D
102
{ACAD_REACTORS
330
1000008C
102
}
330
1000008C
100
AcDbXrecord
1000
JJB
  0
XRECORD
  5
1000008E
102
{ACAD_REACTORS
330
1000008C
102
}
330
1000008C
100
AcDbXrecord
1000
JJD
  0
MATERIAL
  5
45
102
{ACAD_REACTORS
330
43
102
}
102
{ACAD_XDICTIONARY
360
100000C0
102
}
330
43
100
AcDbMaterial
  1
BYBLOCK
  0
MATERIAL
  5
44
102
{ACAD_REACTORS
330
43
102
}
102
{ACAD_XDICTIONARY
360
100000BE
102
}
330
43
100
AcDbMaterial
  1
BYLAYER
  0
MATERIAL
  5
46
102
{ACAD_REACTORS
330
43
102
}
102
{ACAD_XDICTIONARY
360
100000C2
102
}
330
43
100
AcDbMaterial
  1
GLOBAL
  0
ACAD_PROXY_OBJECT
  5
6C
102
{ACAD_REACTORS
330
6B
102
}
330
6B
100
AcDbProxyObject
 90
      499
 91
      505
 93
      610
310
40901902A4063FBFFFFFE056BD1B81E855B9FC0AD7A3703D0AD73F4214DD185B99185C9900AD7A3703D0AC73F90141901A02B5E8DC0F42B1CFC02B5E8DC0F42B1CFE5764000000000000300FC0
340
14
340
0
340
11
340
0
 94
        0
1001
ACAD_MLEADERVER
1070
     2
  0
MLINESTYLE
  5
18
102
{ACAD_REACTORS
330
17
102
}
330
17
100
AcDbMlineStyle
  2
Standard
 70
     0
  3

 62
   256
 51
90.0
 52
90.0
 71
     2
 49
0.5
 62
   256
  6
BYLAYER
 49
-0.5
 62
   256
  6
BYLAYER
  0
ACAD_PROXY_OBJECT
  5
10000023
102
{ACAD_REACTORS
330
47
102
}
330
47
100
AcDbProxyObject
 90
      499
 91
      503
 93
      121
310
9053130303A310000000000001650100
  0
ACAD_PROXY_OBJECT
  5
1000001D
102
{ACAD_REACTORS
330
47
102
}
330
47
100
AcDbProxyObject
 90
      499
 91
      503
 93
      113
310
90431303A310000000000000910100
  0
ACAD_PROXY_OBJECT
  5
1000001E
102
{ACAD_REACTORS
330
47
102
}
330
47
100
AcDbProxyObject
 90
      499
 91
      503
 93
      113
310
90431323A310000000000000A10100
  0
ACAD_PROXY_OBJECT
  5
1000001F
102
{ACAD_REACTORS
330
47
102
}
330
47
100
AcDbProxyObject
 90
      499
 91
      503
 93
      113
310
90431363A310000000000000C10100
  0
ACAD_PROXY_OBJECT
  5
10000006
102
{ACAD_REACTORS
330
47
102
}
330
47
100
AcDbProxyObject
 90
      499
 91
      503
 93
       41
310
903313A31500
  0
ACAD_PROXY_OBJECT
  5
1000000D
102
{ACAD_REACTORS
330
47
102
}
330
47
100
AcDbProxyObject
 90
      499
 91
      503
 93
      113
310
904313A31304000000000000244000
  0
ACAD_PROXY_OBJECT
  5
10000016
102
{ACAD_REACTORS
330
47
102
}
330
47
100
AcDbProxyObject
 90
      499
 91
      503
 93
      121
310
905313A3130304000000000000594000
  0
ACAD_PROXY_OBJECT
  5
1000000E
102
{ACAD_REACTORS
330
47
102
}
330
47
100
AcDbProxyObject
 90
      499
 91
      503
 93
      113
310
904313A31324000000000000284000
  0
ACAD_PROXY_OBJECT
  5
1000000F
102
{ACAD_REACTORS
330
47
102
}
330
47
100
AcDbProxyObject
 90
      499
 91
      503
 93
      113
310
904313A31364000000000000304000
  0
ACAD_PROXY_OBJECT
  5
10000007
102
{ACAD_REACTORS
330
47
102
}
330
47
100
AcDbProxyObject
 90
      499
 91
      503
 93
      105
310
903313A324000000000000004000
  0
ACAD_PROXY_OBJECT
  5
10000010
102
{ACAD_REACTORS
330
47
102
}
330
47
100
AcDbProxyObject
 90
      499
 91
      503
 93
      113
310
904313A32304000000000000344000
  0
ACAD_PROXY_OBJECT
  5
10000011
102
{ACAD_REACTORS
330
47
102
}
330
47
100
AcDbProxyObject
 90
      499
 91
      503
 93
      113
310
904313A32354000000000000394000
  0
ACAD_PROXY_OBJECT
  5
10000008
102
{ACAD_REACTORS
330
47
102
}
330
47
100
AcDbProxyObject
 90
      499
 91
      503
 93
      105
310
903313A334000000000000084000
  0
ACAD_PROXY_OBJECT
  5
10000012
102
{ACAD_REACTORS
330
47
102
}
330
47
100
AcDbProxyObject
 90
      499
 91
      503
 93
      113
310
904313A33324000000000000404000
  0
ACAD_PROXY_OBJECT
  5
10000009
102
{ACAD_REACTORS
330
47
102
}
330
47
100
AcDbProxyObject
 90
      499
 91
      503
 93
      105
310
903313A344000000000000104000
  0
ACAD_PROXY_OBJECT
  5
10000013
102
{ACAD_REACTORS
330
47
102
}
330
47
100
AcDbProxyObject
 90
      499
 91
      503
 93
      113
310
904313A34304000000000000444000
  0
ACAD_PROXY_OBJECT
  5
1000000A
102
{ACAD_REACTORS
330
47
102
}
330
47
100
AcDbProxyObject
 90
      499
 91
      503
 93
      105
310
903313A354000000000000144000
  0
ACAD_PROXY_OBJECT
  5
10000014
102
{ACAD_REACTORS
330
47
102
}
330
47
100
AcDbProxyObject
 90
      499
 91
      503
 93
      113
310
904313A35304000000000000494000
  0
ACAD_PROXY_OBJECT
  5
1000000B
102
{ACAD_REACTORS
330
47
102
}
330
47
100
AcDbProxyObject
 90
      499
 91
      503
 93
      105
310
903313A364000000000000184000
  0
ACAD_PROXY_OBJECT
  5
1000000C
102
{ACAD_REACTORS
330
47
102
}
330
47
100
AcDbProxyObject
 90
      499
 91
      503
 93
      105
310
903313A384000000000000204000
  0
ACAD_PROXY_OBJECT
  5
10000015
102
{ACAD_REACTORS
330
47
102
}
330
47
100
AcDbProxyObject
 90
      499
 91
      503
 93
      113
310
904313A38304000000000000544000
  0
ACAD_PROXY_OBJECT
  5
10000020
102
{ACAD_REACTORS
330
47
102
}
330
47
100
AcDbProxyObject
 90
      499
 91
      503
 93
      113
310
90432303A310000000000000D10100
  0
ACAD_PROXY_OBJECT
  5
10000017
102
{ACAD_REACTORS
330
47
102
}
330
47
100
AcDbProxyObject
 90
      499
 91
      503
 93
      105
310
903323A310000000000000010100
  0
ACAD_PROXY_OBJECT
  5
10000021
102
{ACAD_REACTORS
330
47
102
}
330
47
100
AcDbProxyObject
 90
      499
 91
      503
 93
      113
310
90433323A310000000000001010100
  0
ACAD_PROXY_OBJECT
  5
10000018
102
{ACAD_REACTORS
330
47
102
}
330
47
100
AcDbProxyObject
 90
      499
 91
      503
 93
      105
310
903333A310000000000000210100
  0
ACAD_PROXY_OBJECT
  5
10000019
102
{ACAD_REACTORS
330
47
102
}
330
47
100
AcDbProxyObject
 90
      499
 91
      503
 93
      105
310
903343A310000000000000410100
  0
ACAD_PROXY_OBJECT
  5
10000022
102
{ACAD_REACTORS
330
47
102
}
330
47
100
AcDbProxyObject
 90
      499
 91
      503
 93
      113
310
90435303A310000000000001250100
  0
ACAD_PROXY_OBJECT
  5
1000001A
102
{ACAD_REACTORS
330
47
102
}
330
47
100
AcDbProxyObject
 90
      499
 91
      503
 93
      105
310
903353A310000000000000510100
  0
ACAD_PROXY_OBJECT
  5
1000001B
102
{ACAD_REACTORS
330
47
102
}
330
47
100
AcDbProxyObject
 90
      499
 91
      503
 93
      105
310
903363A310000000000000610100
  0
ACAD_PROXY_OBJECT
  5
1000001C
102
{ACAD_REACTORS
330
47
102
}
330
47
100
AcDbProxyObject
 90
      499
 91
      503
 93
      105
310
903383A310000000000000810100
  0
ACAD_PROXY_OBJECT
  5
2F
102
{ACAD_REACTORS
330
2A
102
}
330
2A
100
AcDbProxyObject
 90
      499
 91
      501
 93
      436
310
42CC9915DA5C99599C985B595049028333333333333E33F0000000000000F90107901411070040501600405405064090741402480A0340
1001
ACAD
1000
AcDbSavedByObjectVersion
1070
     0
  0
ACAD_PROXY_OBJECT
  5
32
102
{ACAD_REACTORS
330
2A
102
}
330
2A
100
AcDbProxyObject
 90
      499
 91
      501
 93
      388
310
4150985CDA58D07406404333333333333E33F0000000000000F90107A41107004050150841D405064090741402480A0350
1001
ACAD
1000
AcDbSavedByObjectVersion
1070
     0
  0
ACAD_PROXY_OBJECT
  5
36
102
{ACAD_REACTORS
330
2A
102
}
330
2A
100
AcDbProxyObject
 90
      499
 91
      501
 93
      428
310
42109C9A59DA1D195B90C409028333333333333E33F0000000000000F9010790141107004050150841D405064090741402480A029950
1001
ACAD
1000
AcDbSavedByObjectVersion
1070
     0
  0
ACAD_PROXY_OBJECT
  5
3A
102
{ACAD_REACTORS
330
2A
102
}
330
2A
100
AcDbProxyObject
 90
      499
 91
      501
 93
      452
310
42D0DBDB1BDC90DA185B99D95104090240C333333333333E33F0000000000000F90108901411070040501508421405064090741402480A0350
1001
ACAD
1000
AcDbSavedByObjectVersion
1070
     0
  0
ACAD_PROXY_OBJECT
  5
34
102
{ACAD_REACTORS
330
2A
102
}
330
2A
100
AcDbProxyObject
 90
      499
 91
      501
 93
      500
310
4290DBDB98D95C1D1D585B10940D028333333333333E33F0000000000000F90107902409070040501000000000018199010841D405064090740C02480A0340
1001
ACAD
1000
AcDbSavedByObjectVersion
1070
     0
  0
ACAD_PROXY_OBJECT
  5
35
102
{ACAD_REACTORS
330
2A
102
}
330
2A
100
AcDbProxyObject
 90
      499
 91
      501
 93
      412
310
40D11A5B50B409028333333333333E33F0000000000000F9010790141107004050150841D405064090741402480A02677FFFFFD0
1001
ACAD
1000
AcDbSavedByObjectVersion
1070
     0
  0
ACAD_PROXY_OBJECT
  5
3D
102
{ACAD_REACTORS
330
2A
102
}
330
2A
100
AcDbProxyObject
 90
      499
 91
      501
 93
      452
310
43115919D950DBDB1BDC93D999916409028333333333333E33F0000000000000F9010790141107004050150841D405064090741402480A0350
1001
ACAD
1000
AcDbSavedByObjectVersion
1070
     0
  0
ACAD_PROXY_OBJECT
  5
39
102
{ACAD_REACTORS
330
2A
102
}
330
2A
100
AcDbProxyObject
 90
      499
 91
      501
 93
      444
310
42D19858D95C185D1D195C9B90F409028333333333333E33F0000000000000F9010790141107004050150841D405064090741402480A0350
1001
ACAD
1000
AcDbSavedByObjectVersion
1070
     0
  0
ACAD_PROXY_OBJECT
  5
2B
102
{ACAD_REACTORS
330
2A
102
}
330
2A
100
AcDbProxyObject
 90
      499
 91
      501
 93
      380
310
41119B185D240901404333333333333E33F0000000000000F9010740A907004050150841D405064090741402480A1B50
1001
ACAD
1000
AcDbSavedByObjectVersion
1070
     0
  0
ACAD_PROXY_OBJECT
  5
2C
102
{ACAD_REACTORS
330
2A
102
}
330
2A
100
AcDbProxyObject
 90
      499
 91
      501
 93
      468
310
43519B185D15DA5D1A115919D95CD0140901404333333333333E33F0000000000000F90107409019070040501600405405064090741402480A1B50
1001
ACAD
1000
AcDbSavedByObjectVersion
1070
     0
  0
ACAD_PROXY_OBJECT
  5
2D
102
{ACAD_REACTORS
330
2A
102
}
330
2A
100
AcDbProxyObject
 90
      499
 91
      501
 93
      404
310
41D1DBDD5C985D5910240902404333333333333E33F0000000000000F9010740A9070040501641D405064090741402480A1B50
1001
ACAD
1000
AcDbSavedByObjectVersion
1070
     0
  0
ACAD_PROXY_OBJECT
  5
2E
102
{ACAD_REACTORS
330
2A
102
}
330
2A
100
AcDbProxyObject
 90
      499
 91
      501
 93
      492
310
4411DBDD5C985D5915DA5D1A115919D95CD0340902404333333333333E33F0000000000000F90107409019070040501600405405064090741402480A1B50
1001
ACAD
1000
AcDbSavedByObjectVersion
1070
     0
  0
ACAD_PROXY_OBJECT
  5
31
102
{ACAD_REACTORS
330
2A
102
}
330
2A
100
AcDbProxyObject
 90
      499
 91
      501
 93
      476
310
41921A5919195B90640502408333333333333E33F0000000000000F901079024090700405020000000000001110200405405064090740C02480A0340
1001
ACAD
1000
AcDbSavedByObjectVersion
1070
     0
  0
ACAD_PROXY_OBJECT
  5
3B
102
{ACAD_REACTORS
330
2A
102
}
330
2A
100
AcDbProxyObject
 90
      499
 91
      501
 93
      428
310
42529A5D1D195C93D999914409028333333333333E33F0000000000000F9010790141107004050150A41D405064090741402480A0350
1001
ACAD
1000
AcDbSavedByObjectVersion
1070
     0
  0
ACAD_PROXY_OBJECT
  5
38
102
{ACAD_REACTORS
330
2A
102
}
330
2A
100
AcDbProxyObject
 90
      499
 91
      501
 93
      444
310
42D31A5B995C185D1D195C9B90E409028333333333333E33F0000000000000F9010790141107004050750841D405064090741402483A0350
1001
ACAD
1000
AcDbSavedByObjectVersion
1070
     0
  0
ACAD_PROXY_OBJECT
  5
3C
102
{ACAD_REACTORS
330
2A
102
}
330
2A
100
AcDbProxyObject
 90
      499
 91
      501
 93
      444
310
42D3DD995C9A185B99D3D999915409028333333333333E33F0000000000000F9010790141107004050150941D405064090741402480A0350
1001
ACAD
1000
AcDbSavedByObjectVersion
1070
     0
  0
ACAD_PROXY_OBJECT
  5
33
102
{ACAD_REACTORS
330
2A
102
}
330
2A
100
AcDbProxyObject
 90
      499
 91
      501
 93
      428
310
425499585B1A5CDD1A58D08409038333333333333E33F0000000000000F9010740A907004050150800405405064090740C02480A1B40
1001
ACAD
1000
AcDbSavedByObjectVersion
1070
     0
  0
ACAD_PROXY_OBJECT
  5
42
102
{ACAD_REACTORS
330
2A
102
}
330
2A
100
AcDbProxyObject
 90
      499
 91
      501
 93
      420
310
4194DA1859195911B40902404333333333333E33F0000000000000F9010740A41107004050150800405405064090840C02480A0B40
1001
ACAD
1000
AcDbSavedByObjectVersion
1070
     0
  0
ACAD_PROXY_OBJECT
  5
41
102
{ACAD_REACTORS
330
2A
102
}
330
2A
100
AcDbProxyObject
 90
      499
 91
      501
 93
      516
310
4454DA18591959081DDA5D1A08195919D95CD1A40902404333333333333E33F0000000000000F901074090142907004050250800405405064090740C02480A0B40
1001
ACAD
1000
AcDbSavedByObjectVersion
1070
     0
  0
ACAD_PROXY_OBJECT
  5
3E
102
{ACAD_REACTORS
330
2A
102
}
330
2A
100
AcDbProxyObject
 90
      499
 91
      501
 93
      532
310
4394DA1859195CC81BD98811DC985E5174090240C333333333333E33F0000000000000F901079024090741D01000000000000111010841D405064090740C02480A0340
1001
ACAD
1000
AcDbSavedByObjectVersion
1070
     0
  0
ACAD_PROXY_OBJECT
  5
3F
102
{ACAD_REACTORS
330
2A
102
}
330
2A
100
AcDbProxyObject
 90
      499
 91
      501
 93
      476
310
41D4DAD95D18DA1E51840502408333333333333E33F0000000000000F901079024090741D01000000000000111010B41D405064090741802480A0340
1001
ACAD
1000
AcDbSavedByObjectVersion
1070
     0
  0
ACAD_PROXY_OBJECT
  5
37
102
{ACAD_REACTORS
330
2A
102
}
330
2A
100
AcDbProxyObject
 90
      499
 91
      501
 93
      412
310
41D51A1A58DAD95B90D409028333333333333E33F0000000000000F9010790141107004050150C41D405064090741402480A0350
1001
ACAD
1000
AcDbSavedByObjectVersion
1070
     0
  0
ACAD_PROXY_OBJECT
  5
30
102
{ACAD_REACTORS
330
2A
102
}
330
2A
100
AcDbProxyObject
 90
      499
 91
      501
 93
      420
310
4255DA5C99599C985B595059028333333333333E33F0000000000000F90107901411070040501600405405064090740C02480A0340
1001
ACAD
1000
AcDbSavedByObjectVersion
1070
     0
  0
ACAD_PROXY_OBJECT
  5
40
102
{ACAD_REACTORS
330
2A
102
}
330
2A
100
AcDbProxyObject
 90
      499
 91
      501
 93
      404
310
41560B54985E51940902404000000000000E03F0000000000000F9010740501907004050150841D405064090740C02480A1B40
1001
ACAD
1000
AcDbSavedByObjectVersion
1070
     0
  0
XRECORD
  5
1000009B
102
{ACAD_REACTORS
330
10000091
102
}
330
10000091
100
AcDbXrecord
340
0
  0
XRECORD
  5
1000009A
102
{ACAD_REACTORS
330
10000091
102
}
330
10000091
100
AcDbXrecord
 90
        0
  0
XRECORD
  5
100000B1
102
{ACAD_REACTORS
330
10000091
102
}
330
10000091
100
AcDbXrecord
1000
DSTYLE
1002
{
1070
   340
340
11
1002
}
  0
XRECORD
  5
1000009C
102
{ACAD_REACTORS
330
10000091
102
}
330
10000091
100
AcDbXrecord
  1
{71e33473-3173-6176-b578-396171353633}
  0
XRECORD
  5
10000094
102
{ACAD_REACTORS
330
10000091
102
}
330
10000091
100
AcDbXrecord
  1

  0
XRECORD
  5
10000099
102
{ACAD_REACTORS
330
10000091
102
}
330
10000091
100
AcDbXrecord
 90
        1
  0
XRECORD
  5
10000096
102
{ACAD_REACTORS
330
10000091
102
}
330
10000091
100
AcDbXrecord
340
1A
  0
XRECORD
  5
10000098
102
{ACAD_REACTORS
330
10000091
102
}
330
10000091
100
AcDbXrecord
 90
    10781
  0
XRECORD
  5
10000097
102
{ACAD_REACTORS
330
10000091
102
}
330
10000091
100
AcDbXrecord
340
19
  0
XRECORD
  5
1000009E
102
{ACAD_REACTORS
330
10000091
102
}
330
10000091
100
AcDbXrecord
 40
0.0
  0
XRECORD
  5
100000A1
102
{ACAD_REACTORS
330
10000091
102
}
330
10000091
100
AcDbXrecord
340
0
  0
XRECORD
  5
100000A7
102
{ACAD_REACTORS
330
10000091
102
}
330
10000091
100
AcDbXrecord
 10
0.0
 20
0.0
 30
0.0
  0
XRECORD
  5
100000A3
102
{ACAD_REACTORS
330
10000091
102
}
330
10000091
100
AcDbXrecord
 10
0.0
 20
0.0
 30
0.0
  0
XRECORD
  5
100000A6
102
{ACAD_REACTORS
330
10000091
102
}
330
10000091
100
AcDbXrecord
 10
0.0
 20
0.0
 30
0.0
  0
XRECORD
  5
100000A4
102
{ACAD_REACTORS
330
10000091
102
}
330
10000091
100
AcDbXrecord
 10
0.0
 20
0.0
 30
0.0
  0
XRECORD
  5
100000A5
102
{ACAD_REACTORS
330
10000091
102
}
330
10000091
100
AcDbXrecord
 10
0.0
 20
0.0
 30
0.0
  0
XRECORD
  5
100000A2
102
{ACAD_REACTORS
330
10000091
102
}
330
10000091
100
AcDbXrecord
 10
0.0
 20
0.0
 30
0.0
  0
XRECORD
  5
1000009F
102
{ACAD_REACTORS
330
10000091
102
}
330
10000091
100
AcDbXrecord
340
0
  0
XRECORD
  5
100000A0
102
{ACAD_REACTORS
330
10000091
102
}
330
10000091
100
AcDbXrecord
 70
     0
  0
XRECORD
  5
10000095
102
{ACAD_REACTORS
330
10000091
102
}
330
10000091
100
AcDbXrecord
  1

  0
XRECORD
  5
10000092
102
{ACAD_REACTORS
330
10000091
102
}
330
10000091
100
AcDbXrecord
 90
        1
  0
XRECORD
  5
10000093
102
{ACAD_REACTORS
330
10000091
102
}
330
10000091
100
AcDbXrecord
 90
       70
  0
XRECORD
  5
100000AA
102
{ACAD_REACTORS
330
10000091
102
}
330
10000091
100
AcDbXrecord
340
0
  0
XRECORD
  5
100000B0
102
{ACAD_REACTORS
330
10000091
102
}
330
10000091
100
AcDbXrecord
 10
0.0
 20
0.0
 30
0.0
  0
XRECORD
  5
100000AC
102
{ACAD_REACTORS
330
10000091
102
}
330
10000091
100
AcDbXrecord
 10
0.0
 20
0.0
 30
0.0
  0
XRECORD
  5
100000AF
102
{ACAD_REACTORS
330
10000091
102
}
330
10000091
100
AcDbXrecord
 10
0.0
 20
0.0
 30
0.0
  0
XRECORD
  5
100000AD
102
{ACAD_REACTORS
330
10000091
102
}
330
10000091
100
AcDbXrecord
 10
0.0
 20
0.0
 30
0.0
  0
XRECORD
  5
100000AE
102
{ACAD_REACTORS
330
10000091
102
}
330
10000091
100
AcDbXrecord
 10
0.0
 20
0.0
 30
0.0
  0
XRECORD
  5
100000AB
102
{ACAD_REACTORS
330
10000091
102
}
330
10000091
100
AcDbXrecord
 10
0.0
 20
0.0
 30
0.0
  0
XRECORD
  5
100000A8
102
{ACAD_REACTORS
330
10000091
102
}
330
10000091
100
AcDbXrecord
340
0
  0
XRECORD
  5
100000A9
102
{ACAD_REACTORS
330
10000091
102
}
330
10000091
100
AcDbXrecord
 70
     0
  0
XRECORD
  5
1000009D
102
{ACAD_REACTORS
330
10000091
102
}
330
10000091
100
AcDbXrecord
  1
{FAEB1C32-E019-11D5-929B-00C0DF256EC4}
  0
DICTIONARYVAR
  5
100000BC
102
{ACAD_REACTORS
330
100000B2
102
}
330
100000B2
100
DictionaryVariables
280
     0
  1
1:1
  0
DICTIONARYVAR
  5
100000B4
102
{ACAD_REACTORS
330
100000B2
102
}
330
100000B2
100
DictionaryVariables
280
     0
  1
Standard
  0
DICTIONARYVAR
  5
100000B3
102
{ACAD_REACTORS
330
100000B2
102
}
330
100000B2
100
DictionaryVariables
280
     0
  1
Standard
  0
DICTIONARYVAR
  5
100000B7
102
{ACAD_REACTORS
330
100000B2
102
}
330
100000B2
100
DictionaryVariables
280
     0
  1
2
  0
DICTIONARYVAR
  5
100000B8
102
{ACAD_REACTORS
330
100000B2
102
}
330
100000B2
100
DictionaryVariables
280
     0
  1
1
  0
DICTIONARYVAR
  5
100000BD
102
{ACAD_REACTORS
330
100000B2
102
}
330
100000B2
100
DictionaryVariables
280
     0
  1
1
  0
XRECORD
  5
10000003
102
{ACAD_REACTORS
330
10000001
102
}
330
10000001
100
AcDbXrecord
 70
     1
  0
XRECORD
  5
10000002
102
{ACAD_REACTORS
330
10000001
102
}
330
10000001
100
AcDbXrecord
1040
89.0
  0
ACAD_PROXY_OBJECT
  5
10000005
102
{ACAD_REACTORS
330
10000001
102
}
330
10000001
100
AcDbProxyObject
 90
      499
 91
      509
 93
       34
310
40C8804000
  0
DICTIONARY
  5
100000C0
330
45
100
AcDbDictionary
280
     1
  3
ACAD_XREC_ROUNDTRIP
360
100000C1
  0
DICTIONARY
  5
100000BE
330
44
100
AcDbDictionary
280
     1
  3
ACAD_XREC_ROUNDTRIP
360
100000BF
  0
DICTIONARY
  5
100000C2
330
46
100
AcDbDictionary
280
     1
  3
ACAD_XREC_ROUNDTRIP
360
100000C3
  0
XRECORD
  5
100000C1
102
{ACAD_REACTORS
330
100000C0
102
}
330
100000C0
100
AcDbXrecord
102
MATERIAL
148
0.0
149
0.0
149
0.0
 93
        0
 94
      127
282
     0
 72
     1
 77
     1
171
     1
175
     1
179
     1
273
     0
  0
XRECORD
  5
100000BF
102
{ACAD_REACTORS
330
100000BE
102
}
330
100000BE
100
AcDbXrecord
102
MATERIAL
148
0.0
149
0.0
149
0.0
 93
        0
 94
      127
282
     0
 72
     1
 77
     1
171
     1
175
     1
179
     1
273
     0
  0
XRECORD
  5
100000C3
102
{ACAD_REACTORS
330
100000C2
102
}
330
100000C2
100
AcDbXrecord
102
MATERIAL
148
0.0
149
0.0
149
0.0
 93
        0
 94
      127
282
     0
 72
     1
 77
     1
171
     1
175
     1
179
     1
273
     0
  0
ENDSEC
  0
EOF
