  0
SECTION
  2
HEADER
  9
$ACADVER
  1
AC1014
  9
$ACADMAINTVER
 70
     9
  9
$DWGCODEPAGE
  3
ANSI_1252
  9
$INSBASE
 10
0.0
 20
0.0
 30
0.0
  9
$EXTMIN
 10
1.000000000000000E+20
 20
1.000000000000000E+20
 30
1.000000000000000E+20
  9
$EXTMAX
 10
-1.000000000000000E+20
 20
-1.000000000000000E+20
 30
-1.000000000000000E+20
  9
$LIMMIN
 10
0.0
 20
0.0
  9
$LIMMAX
 10
12.0
 20
9.0
  9
$ORTHOMODE
 70
     0
  9
$REGENMODE
 70
     1
  9
$FILLMODE
 70
     1
  9
$QTEXTMODE
 70
     0
  9
$MIRRTEXT
 70
     1
  9
$DRAGMODE
 70
     2
  9
$LTSCALE
 40
1.0
  9
$OSMODE
 70
    37
  9
$ATTMODE
 70
     1
  9
$TEXTSIZE
 40
0.2
  9
$TRACEWID
 40
0.05
  9
$TEXTSTYLE
  7
STANDARD
  9
$CLAYER
  8
0
  9
$CELTYPE
  6
BYLAYER
  9
$CECOLOR
 62
   256
  9
$CELTSCALE
 40
1.0
  9
$DELOBJ
 70
     1
  9
$DISPSILH
 70
     0
  9
$DIMSCALE
 40
1.0
  9
$DIMASZ
 40
0.18
  9
$DIMEXO
 40
0.0625
  9
$DIMDLI
 40
0.38
  9
$DIMRND
 40
0.0
  9
$DIMDLE
 40
0.0
  9
$DIMEXE
 40
0.18
  9
$DIMTP
 40
0.0
  9
$DIMTM
 40
0.0
  9
$DIMTXT
 40
0.18
  9
$DIMCEN
 40
0.09
  9
$DIMTSZ
 40
0.0
  9
$DIMTOL
 70
     0
  9
$DIMLIM
 70
     0
  9
$DIMTIH
 70
     1
  9
$DIMTOH
 70
     1
  9
$DIMSE1
 70
     0
  9
$DIMSE2
 70
     0
  9
$DIMTAD
 70
     0
  9
$DIMZIN
 70
     0
  9
$DIMBLK
  1

  9
$DIMASO
 70
     1
  9
$DIMSHO
 70
     1
  9
$DIMPOST
  1

  9
$DIMAPOST
  1

  9
$DIMALT
 70
     0
  9
$DIMALTD
 70
     2
  9
$DIMALTF
 40
25.4
  9
$DIMLFAC
 40
1.0
  9
$DIMTOFL
 70
     0
  9
$DIMTVP
 40
0.0
  9
$DIMTIX
 70
     0
  9
$DIMSOXD
 70
     0
  9
$DIMSAH
 70
     0
  9
$DIMBLK1
  1

  9
$DIMBLK2
  1

  9
$DIMSTYLE
  2
STANDARD
  9
$DIMCLRD
 70
     0
  9
$DIMCLRE
 70
     0
  9
$DIMCLRT
 70
     0
  9
$DIMTFAC
 40
1.0
  9
$DIMGAP
 40
0.09
  9
$DIMJUST
 70
     0
  9
$DIMSD1
 70
     0
  9
$DIMSD2
 70
     0
  9
$DIMTOLJ
 70
     1
  9
$DIMTZIN
 70
     0
  9
$DIMALTZ
 70
     0
  9
$DIMALTTZ
 70
     0
  9
$DIMFIT
 70
     3
  9
$DIMUPT
 70
     0
  9
$DIMUNIT
 70
     2
  9
$DIMDEC
 70
     4
  9
$DIMTDEC
 70
     4
  9
$DIMALTU
 70
     2
  9
$DIMALTTD
 70
     2
  9
$DIMTXSTY
  7
STANDARD
  9
$DIMAUNIT
 70
     0
  9
$LUNITS
 70
     2
  9
$LUPREC
 70
     4
  9
$SKETCHINC
 40
0.1
  9
$FILLETRAD
 40
0.5
  9
$AUNITS
 70
     0
  9
$AUPREC
 70
     0
  9
$MENU
  1
.
  9
$ELEVATION
 40
0.0
  9
$PELEVATION
 40
0.0
  9
$THICKNESS
 40
0.0
  9
$LIMCHECK
 70
     0
  9
$CHAMFERA
 40
0.0
  9
$CHAMFERB
 40
0.0
  9
$CHAMFERC
 40
0.0
  9
$CHAMFERD
 40
0.0
  9
$SKPOLY
 70
     0
  9
$TDCREATE
 40
2460843.204291782
  9
$TDUPDATE
 40
2460843.204291794
  9
$TDINDWG
 40
0.0000000116
  9
$TDUSRTIMER
 40
0.0000000116
  9
$USRTIMER
 70
     1
  9
$ANGBASE
 50
0.0
  9
$ANGDIR
 70
     0
  9
$PDMODE
 70
     0
  9
$PDSIZE
 40
0.0
  9
$PLINEWID
 40
0.0
  9
$COORDS
 70
     1
  9
$SPLFRAME
 70
     0
  9
$SPLINETYPE
 70
     6
  9
$SPLINESEGS
 70
     8
  9
$ATTDIA
 70
     0
  9
$ATTREQ
 70
     1
  9
$HANDLING
 70
     1
  9
$HANDSEED
  5
100000BD
  9
$SURFTAB1
 70
     6
  9
$SURFTAB2
 70
     6
  9
$SURFTYPE
 70
     6
  9
$SURFU
 70
     6
  9
$SURFV
 70
     6
  9
$UCSNAME
  2

  9
$UCSORG
 10
0.0
 20
0.0
 30
0.0
  9
$UCSXDIR
 10
1.0
 20
0.0
 30
0.0
  9
$UCSYDIR
 10
0.0
 20
1.0
 30
0.0
  9
$PUCSNAME
  2

  9
$PUCSORG
 10
0.0
 20
0.0
 30
0.0
  9
$PUCSXDIR
 10
1.0
 20
0.0
 30
0.0
  9
$PUCSYDIR
 10
0.0
 20
1.0
 30
0.0
  9
$USERI1
 70
     0
  9
$USERI2
 70
     0
  9
$USERI3
 70
     0
  9
$USERI4
 70
     0
  9
$USERI5
 70
     0
  9
$USERR1
 40
0.0
  9
$USERR2
 40
0.0
  9
$USERR3
 40
0.0
  9
$USERR4
 40
0.0
  9
$USERR5
 40
0.0
  9
$WORLDVIEW
 70
     1
  9
$SHADEDGE
 70
     3
  9
$SHADEDIF
 70
    70
  9
$TILEMODE
 70
     1
  9
$MAXACTVP
 70
    64
  9
$PINSBASE
 10
0.0
 20
0.0
 30
0.0
  9
$PLIMCHECK
 70
     0
  9
$PEXTMIN
 10
1.000000000000000E+20
 20
1.000000000000000E+20
 30
1.000000000000000E+20
  9
$PEXTMAX
 10
-1.000000000000000E+20
 20
-1.000000000000000E+20
 30
-1.000000000000000E+20
  9
$PLIMMIN
 10
0.0
 20
0.0
  9
$PLIMMAX
 10
12.0
 20
9.0
  9
$UNITMODE
 70
     0
  9
$VISRETAIN
 70
     1
  9
$PLINEGEN
 70
     0
  9
$PSLTSCALE
 70
     1
  9
$TREEDEPTH
 70
  3020
  9
$PICKSTYLE
 70
     1
  9
$CMLSTYLE
  2
STANDARD
  9
$CMLJUST
 70
     0
  9
$CMLSCALE
 40
1.0
  9
$PROXYGRAPHICS
 70
     1
  9
$MEASUREMENT
 70
     0
  0
ENDSEC
  0
SECTION
  2
CLASSES
  0
CLASS
  1
ACDBDICTIONARYWDFLT
  2
AcDbDictionaryWithDefault
  3
ObjectDBX Classes
 90
        0
280
     0
281
     0
  0
CLASS
  1
VISUALSTYLE
  2
AcDbVisualStyle
  3
ObjectDBX Classes
 90
     4095
280
     0
281
     0
  0
CLASS
  1
MATERIAL
  2
AcDbMaterial
  3
ObjectDBX Classes
 90
     1153
280
     0
281
     0
  0
CLASS
  1
SCALE
  2
AcDbScale
  3
ObjectDBX Classes
 90
     1153
280
     0
281
     0
  0
CLASS
  1
TABLESTYLE
  2
AcDbTableStyle
  3
ObjectDBX Classes
 90
     4095
280
     0
281
     0
  0
CLASS
  1
MLEADERSTYLE
  2
AcDbMLeaderStyle
  3
ACDB_MLEADERSTYLE_CLASS
 90
     4095
280
     0
281
     0
  0
CLASS
  1
SUN
  2
AcDbSun
  3
SCENEOE
 90
     1153
280
     0
281
     0
  0
CLASS
  1
SORTENTSTABLE
  2
AcDbSortentsTable
  3
ObjectDBX Classes
 90
        0
280
     0
281
     0
  0
CLASS
  1
DICTIONARYVAR
  2
AcDbDictionaryVar
  3
ObjectDBX Classes
 90
        0
280
     0
281
     0
  0
CLASS
  1
XRECORD
  2
AcDbXrecord
  3
ObjectDBX Classes
 90
        0
280
     0
281
     0
  0
CLASS
  1
LWPOLYLINE
  2
AcDbPolyline
  3
ObjectDBX Classes
 90
        0
280
     0
281
     1
  0
CLASS
  1
HATCH
  2
AcDbHatch
  3
ObjectDBX Classes
 90
        0
280
     0
281
     1
  0
CLASS
  1
ACDBPLACEHOLDER
  2
AcDbPlaceHolder
  3
ObjectDBX Classes
 90
        0
280
     0
281
     0
  0
CLASS
  1
LAYOUT
  2
AcDbLayout
  3
ObjectDBX Classes
 90
        0
280
     0
281
     0
  0
ENDSEC
  0
SECTION
  2
TABLES
  0
TABLE
  2
VPORT
  5
8
102
{ACAD_XDICTIONARY
360
100000B2
102
}
330
0
100
AcDbSymbolTable
 70
     1
  0
VPORT
  5
29
330
8
100
AcDbSymbolTableRecord
100
AcDbViewportTableRecord
  2
*ACTIVE
 70
     0
 10
0.0
 20
0.0
 11
1.0
 21
1.0
 12
10.42990654205607
 22
4.5
 13
0.0
 23
0.0
 14
0.5
 24
0.5
 15
0.5
 25
0.5
 16
0.0
 26
0.0
 36
1.0
 17
0.0
 27
0.0
 37
0.0
 40
9.0
 41
1.972972972850329
 42
50.0
 43
0.0
 44
0.0
 50
0.0
 51
0.0
 71
     0
 72
   100
 73
     1
 74
     3
 75
     0
 76
     0
 77
     0
 78
     0
  0
ENDTAB
  0
TABLE
  2
LTYPE
  5
5
330
0
100
AcDbSymbolTable
 70
     7
  0
LTYPE
  5
14
330
5
100
AcDbSymbolTableRecord
100
AcDbLinetypeTableRecord
  2
BYBLOCK
 70
     0
  3

 72
    65
 73
     0
 40
0.0
  0
LTYPE
  5
15
330
5
100
AcDbSymbolTableRecord
100
AcDbLinetypeTableRecord
  2
BYLAYER
 70
     0
  3

 72
    65
 73
     0
 40
0.0
  0
LTYPE
  5
16
330
5
100
AcDbSymbolTableRecord
100
AcDbLinetypeTableRecord
  2
CONTINUOUS
 70
     0
  3
Solid line
 72
    65
 73
     0
 40
0.0
  0
LTYPE
  5
10000024
330
5
100
AcDbSymbolTableRecord
100
AcDbLinetypeTableRecord
  2
ONS_PHANTOM
 70
     0
  3
Onshape Phantom line ______ __ __ ______
 72
    65
 73
     6
 40
0.4999999999999999
 49
0.25
 74
     0
 49
-0.05
 74
     0
 49
0.05
 74
     0
 49
-0.05
 74
     0
 49
0.05
 74
     0
 49
-0.05
 74
     0
  0
LTYPE
  5
10000025
330
5
100
AcDbSymbolTableRecord
100
AcDbLinetypeTableRecord
  2
CENTER
 70
     0
  3
Center line ____ _ ____ _ ____ _
 72
    65
 73
     4
 40
0.7199999999999999
 49
0.45
 74
     0
 49
-0.09
 74
     0
 49
0.09
 74
     0
 49
-0.09
 74
     0
  0
LTYPE
  5
10000026
330
5
100
AcDbSymbolTableRecord
100
AcDbLinetypeTableRecord
  2
DASHED
 70
     0
  3
Dashed line __ __ __ __ __
 72
    65
 73
     2
 40
0.75
 49
0.5
 74
     0
 49
-0.25
 74
     0
  0
LTYPE
  5
10000027
330
5
100
AcDbSymbolTableRecord
100
AcDbLinetypeTableRecord
  2
ONS_DASHDOT
 70
     0
  3
Onshape Dashed with Dot _ . ____ . ____
 72
    65
 73
     4
 40
0.71
 49
0.5
 74
     0
 49
-0.1
 74
     0
 49
0.01
 74
     0
 49
-0.1
 74
     0
  0
LTYPE
  5
10000028
330
5
100
AcDbSymbolTableRecord
100
AcDbLinetypeTableRecord
  2
ONS_DOTTED
 70
     0
  3
Onshape Dotted line . . . . . . .
 72
    65
 73
     2
 40
0.11
 49
0.01
 74
     0
 49
-0.1
 74
     0
  0
LTYPE
  5
10000029
330
5
100
AcDbSymbolTableRecord
100
AcDbLinetypeTableRecord
  2
HIDDEN
 70
     0
  3
Hidden line ____ ____ ____ ____ 
 72
    65
 73
     2
 40
0.15
 49
0.1
 74
     0
 49
-0.05
 74
     0
  0
ENDTAB
  0
TABLE
  2
LAYER
  5
2
330
0
100
AcDbSymbolTable
 70
    46
  0
LAYER
  5
10
330
2
100
AcDbSymbolTableRecord
100
AcDbLayerTableRecord
  2
0
 70
     0
 62
     7
  6
CONTINUOUS
  0
LAYER
  5
1000002A
330
2
100
AcDbSymbolTableRecord
100
AcDbLayerTableRecord
  2
SECTION_CUTTING_LINE
 70
     0
 62
     7
  6
ONS_PHANTOM
  0
LAYER
  5
1000002B
330
2
100
AcDbSymbolTableRecord
100
AcDbLayerTableRecord
  2
DETAIL_VIEW_BORDER
 70
     0
 62
     7
  6
CONTINUOUS
  0
LAYER
  5
1000002C
330
2
100
AcDbSymbolTableRecord
100
AcDbLayerTableRecord
  2
DETAIL_VIEW_PARENT_BORDER
 70
     0
 62
     7
  6
ONS_PHANTOM
  0
LAYER
  5
1000002D
330
2
100
AcDbSymbolTableRecord
100
AcDbLayerTableRecord
  2
TEXT
 70
     0
 62
     7
  6
CONTINUOUS
  0
LAYER
  5
1000002E
330
2
100
AcDbSymbolTableRecord
100
AcDbLayerTableRecord
  2
SKETCHED_GEOMETRY
 70
     0
 62
    -7
  6
CONTINUOUS
  0
LAYER
  5
1000002F
330
2
100
AcDbSymbolTableRecord
100
AcDbLayerTableRecord
  2
VIRTUAL_SHARPS
 70
     0
 62
    -7
  6
CONTINUOUS
  0
LAYER
  5
10000030
330
2
100
AcDbSymbolTableRecord
100
AcDbLayerTableRecord
  2
CENTERLINES
 70
     0
 62
    -7
  6
CENTER
  0
LAYER
  5
10000031
330
2
100
AcDbSymbolTableRecord
100
AcDbLayerTableRecord
  2
CENTERMARKS
 70
     0
 62
    -7
  6
CONTINUOUS
  0
LAYER
  5
10000032
330
2
100
AcDbSymbolTableRecord
100
AcDbLayerTableRecord
  2
TABLES
 70
     0
 62
     7
  6
CONTINUOUS
  0
LAYER
  5
10000033
330
2
100
AcDbSymbolTableRecord
100
AcDbLayerTableRecord
  2
IMAGES
 70
     0
 62
    -7
  6
CONTINUOUS
  0
LAYER
  5
10000034
330
2
100
AcDbSymbolTableRecord
100
AcDbLayerTableRecord
  2
ANNOTATION_LINES
 70
     0
 62
    -7
  6
CONTINUOUS
  0
LAYER
  5
10000035
330
2
100
AcDbSymbolTableRecord
100
AcDbLayerTableRecord
  2
ANNOTATION_TEXT
 70
     0
 62
    -7
  6
CONTINUOUS
  0
LAYER
  5
10000036
330
2
100
AcDbSymbolTableRecord
100
AcDbLayerTableRecord
  2
SIDE_THREAD_SYMBOLS
 70
     0
 62
     7
  6
HIDDEN
  0
LAYER
  5
10000037
330
2
100
AcDbSymbolTableRecord
100
AcDbLayerTableRecord
  2
SIDE_THREAD_SYMBOLS_HIDDEN
 70
     0
 62
    -7
  6
HIDDEN
  0
LAYER
  5
10000038
330
2
100
AcDbSymbolTableRecord
100
AcDbLayerTableRecord
  2
SURFACE_THREAD_SYMBOLS
 70
     0
 62
     7
  6
HIDDEN
  0
LAYER
  5
10000039
330
2
100
AcDbSymbolTableRecord
100
AcDbLayerTableRecord
  2
SURFACE_THREAD_SYMBOLS_ON_
 70
     0
 62
     7
  6
HIDDEN
  0
LAYER
  5
1000003A
330
2
100
AcDbSymbolTableRecord
100
AcDbLayerTableRecord
  2
SURFACE_THREAD_SYMBOLS_HID
 70
     0
 62
    -7
  6
HIDDEN
  0
LAYER
  5
1000003B
330
2
100
AcDbSymbolTableRecord
100
AcDbLayerTableRecord
  2
BLIND_THREAD_SYMBOLS
 70
     0
 62
     7
  6
CONTINUOUS
  0
LAYER
  5
1000003C
330
2
100
AcDbSymbolTableRecord
100
AcDbLayerTableRecord
  2
BLIND_THREAD_SYMBOLS_HIDDE
 70
     0
 62
    -7
  6
HIDDEN
  0
LAYER
  5
1000003D
330
2
100
AcDbSymbolTableRecord
100
AcDbLayerTableRecord
  2
EXPLODE_LINES
 70
     0
 62
     7
  6
ONS_PHANTOM
  0
LAYER
  5
1000003E
330
2
100
AcDbSymbolTableRecord
100
AcDbLayerTableRecord
  2
HIDDEN_EXPLODE_LINES
 70
     0
 62
    -7
  6
ONS_PHANTOM
  0
LAYER
  5
1000003F
330
2
100
AcDbSymbolTableRecord
100
AcDbLayerTableRecord
  2
BREAK_LINES
 70
     0
 62
    -7
  6
CONTINUOUS
  0
LAYER
  5
10000040
330
2
100
AcDbSymbolTableRecord
100
AcDbLayerTableRecord
  2
SHEETMETAL_BEND_LINES_UP
 70
     0
 62
     7
  6
CENTER
  0
LAYER
  5
10000041
330
2
100
AcDbSymbolTableRecord
100
AcDbLayerTableRecord
  2
SHEETMETAL_BEND_LINES_DOWN
 70
     0
 62
     7
  6
CENTER
  0
LAYER
  5
10000042
330
2
100
AcDbSymbolTableRecord
100
AcDbLayerTableRecord
  2
SHEETMETAL_BEND_TANGENT_LI
 70
     0
 62
     7
  6
CONTINUOUS
  0
LAYER
  5
10000043
330
2
100
AcDbSymbolTableRecord
100
AcDbLayerTableRecord
  2
SHEETMETAL_CUT_LINES
 70
     0
 62
     7
  6
CONTINUOUS
  0
LAYER
  5
10000044
330
2
100
AcDbSymbolTableRecord
100
AcDbLayerTableRecord
  2
SHEETMETAL_CBORE_CSINK_UP
 70
     0
 62
     7
  6
CONTINUOUS
  0
LAYER
  5
10000045
330
2
100
AcDbSymbolTableRecord
100
AcDbLayerTableRecord
  2
SHEETMETAL_CBORE_CSINK_DOW
 70
     0
 62
     7
  6
CONTINUOUS
  0
LAYER
  5
10000046
330
2
100
AcDbSymbolTableRecord
100
AcDbLayerTableRecord
  2
SHEETMETAL_FORM_TEAR
 70
     0
 62
     7
  6
CONTINUOUS
  0
LAYER
  5
10000047
330
2
100
AcDbSymbolTableRecord
100
AcDbLayerTableRecord
  2
SHEETMETAL_FORM_UP
 70
     0
 62
     7
  6
CENTER
  0
LAYER
  5
10000048
330
2
100
AcDbSymbolTableRecord
100
AcDbLayerTableRecord
  2
SHEETMETAL_FORM_DOWN
 70
     0
 62
     7
  6
CENTER
  0
LAYER
  5
10000049
330
2
100
AcDbSymbolTableRecord
100
AcDbLayerTableRecord
  2
SHEETMETAL_FORM_CENTERMARK
 70
     0
 62
     7
  6
CONTINUOUS
  0
LAYER
  5
1000004A
330
2
100
AcDbSymbolTableRecord
100
AcDbLayerTableRecord
  2
REGION_ASSOC_POINTS
 70
     0
 62
    -7
  6
CONTINUOUS
  0
LAYER
  5
1000004B
330
2
100
AcDbSymbolTableRecord
100
AcDbLayerTableRecord
  2
PATTERN_CENTERLINES
 70
     1
 62
    -7
  6
CENTER
  0
LAYER
  5
1000004C
330
2
100
AcDbSymbolTableRecord
100
AcDbLayerTableRecord
  2
HIDDEN
 70
     0
 62
    -7
  6
HIDDEN
  0
LAYER
  5
1000004D
330
2
100
AcDbSymbolTableRecord
100
AcDbLayerTableRecord
  2
VISIBLE
 70
     0
 62
     7
  6
CONTINUOUS
  0
LAYER
  5
1000004E
330
2
100
AcDbSymbolTableRecord
100
AcDbLayerTableRecord
  2
MODELSKETCH_VISIBLE
 70
     0
 62
     7
  6
CONTINUOUS
  0
LAYER
  5
1000004F
330
2
100
AcDbSymbolTableRecord
100
AcDbLayerTableRecord
  2
MODELSKETCH_POINT
 70
     0
 62
     7
  6
CONTINUOUS
  0
LAYER
  5
10000050
330
2
100
AcDbSymbolTableRecord
100
AcDbLayerTableRecord
  2
MODELSKETCH_CONSTRUCTION
 70
     0
 62
    -7
  6
CENTER
  0
LAYER
  5
10000051
330
2
100
AcDbSymbolTableRecord
100
AcDbLayerTableRecord
  2
HIDDEN_BASE_VIEW
 70
     0
 62
     7
  6
CONTINUOUS
  0
LAYER
  5
10000052
330
2
100
AcDbSymbolTableRecord
100
AcDbLayerTableRecord
  2
TANGENT_LINES
 70
     0
 62
    -7
  6
CONTINUOUS
  0
LAYER
  5
10000053
330
2
100
AcDbSymbolTableRecord
100
AcDbLayerTableRecord
  2
TANGENT_HIDDEN
 70
     0
 62
    -7
  6
HIDDEN
  0
LAYER
  5
10000054
330
2
100
AcDbSymbolTableRecord
100
AcDbLayerTableRecord
  2
INVISIBLE_LINES
 70
     0
 62
    -7
  6
CONTINUOUS
  0
LAYER
  5
10000055
330
2
100
AcDbSymbolTableRecord
100
AcDbLayerTableRecord
  2
VIEW_HATCHES
 70
     0
 62
    -7
  6
CONTINUOUS
  0
LAYER
  5
10000056
330
2
100
AcDbSymbolTableRecord
100
AcDbLayerTableRecord
  2
SECTION_JOG_LINES
 70
     0
 62
    -7
  6
CONTINUOUS
  0
ENDTAB
  0
TABLE
  2
STYLE
  5
3
330
0
100
AcDbSymbolTable
 70
     2
  0
STYLE
  5
11
330
3
100
AcDbSymbolTableRecord
100
AcDbTextStyleTableRecord
  2
STANDARD
 70
     0
 40
0.0
 41
1.0
 50
0.0
 71
     0
 42
0.2
  3
txt
  4

  0
STYLE
  5
10000004
330
3
100
AcDbSymbolTableRecord
100
AcDbTextStyleTableRecord
  2
TTFSTYLE
 70
     0
 40
0.0
 41
1.0
 50
0.0
 71
     0
 42
0.2
  3
Verdana.ttf
  4

1001
ACAD
1000
Verdana
1071
       34
  0
ENDTAB
  0
TABLE
  2
VIEW
  5
6
330
0
100
AcDbSymbolTable
 70
     0
  0
ENDTAB
  0
TABLE
  2
UCS
  5
7
330
0
100
AcDbSymbolTable
 70
     0
  0
ENDTAB
  0
TABLE
  2
APPID
  5
9
330
0
100
AcDbSymbolTable
 70
     2
  0
APPID
  5
12
330
9
100
AcDbSymbolTableRecord
100
AcDbRegAppTableRecord
  2
ACAD
 70
     0
  0
APPID
  5
100000BC
330
9
100
AcDbSymbolTableRecord
100
AcDbRegAppTableRecord
  2
ACAD_MLEADERVER
 70
     0
  0
ENDTAB
  0
TABLE
  2
DIMSTYLE
  5
A
330
0
100
AcDbSymbolTable
 70
     1
  0
DIMSTYLE
105
27
330
A
100
AcDbSymbolTableRecord
100
AcDbDimStyleTableRecord
  2
STANDARD
 70
     0
  3

  4

  5

  6

  7

 40
1.0
 41
0.18
 42
0.0625
 43
0.38
 44
0.18
 45
0.0
 46
0.0
 47
0.0
 48
0.0
140
0.18
141
0.09
142
0.0
143
25.4
144
1.0
145
0.0
146
1.0
147
0.09
 71
     0
 72
     0
 73
     1
 74
     1
 75
     0
 76
     0
 77
     0
 78
     0
170
     0
171
     2
172
     0
173
     0
174
     0
175
     0
176
     0
177
     0
178
     0
270
     2
271
     4
272
     4
273
     2
274
     2
340
11
275
     0
280
     0
281
     0
282
     0
283
     1
284
     0
285
     0
286
     0
287
     3
288
     0
  0
ENDTAB
  0
TABLE
  2
BLOCK_RECORD
  5
1
330
0
100
AcDbSymbolTable
 70
     0
  0
BLOCK_RECORD
  5
1F
102
{ACAD_XDICTIONARY
360
10000087
102
}
330
1
100
AcDbSymbolTableRecord
100
AcDbBlockTableRecord
  2
*MODEL_SPACE
  0
BLOCK_RECORD
  5
1B
330
1
100
AcDbSymbolTableRecord
100
AcDbBlockTableRecord
  2
*PAPER_SPACE
  0
ENDTAB
  0
ENDSEC
  0
SECTION
  2
BLOCKS
  0
BLOCK
  5
20
330
1F
100
AcDbEntity
  8
0
100
AcDbBlockBegin
  2
*MODEL_SPACE
 70
     0
 10
0.0
 20
0.0
 30
0.0
  3
*MODEL_SPACE
  1

  0
ENDBLK
  5
21
330
1F
100
AcDbEntity
  8
0
100
AcDbBlockEnd
  0
BLOCK
  5
1C
330
1B
100
AcDbEntity
 67
     1
  8
0
100
AcDbBlockBegin
  2
*PAPER_SPACE
 70
     0
 10
0.0
 20
0.0
 30
0.0
  3
*PAPER_SPACE
  1

  0
ENDBLK
  5
1D
330
1B
100
AcDbEntity
 67
     1
  8
0
100
AcDbBlockEnd
  0
ENDSEC
  0
SECTION
  2
ENTITIES
  0
LINE
  5
10000057
102
{ACAD_XDICTIONARY
360
10000058
102
}
330
1F
100
AcDbEntity
  8
MODELSKETCH_VISIBLE
100
AcDbLine
 10
1.029012088982824
 20
2.629999450296884
 30
0.0
 11
1.322424406318311
 21
2.322386551771176
 31
0.0
  0
SPLINE
  5
1000005B
102
{ACAD_XDICTIONARY
360
1000005C
102
}
330
1F
100
AcDbEntity
  8
MODELSKETCH_VISIBLE
100
AcDbSpline
210
0.0
220
0.0
230
1.0
 70
     8
 71
     3
 72
    72
 73
    68
 74
     0
 42
0.000000001
 43
0.00000001
 40
0.0
 40
0.0
 40
0.0
 40
0.0
 40
0.0004466176992872
 40
0.0006699265489309
 40
0.0008932353985745
 40
0.0011165442482181
 40
0.0013398530978617
 40
0.0015631619475054
 40
0.0016748163723272
 40
0.001786470797149
 40
0.0018981252219708
 40
0.0020097796467926
 40
0.0021214340716144
 40
0.0022330884964362
 40
0.0024563973460799
 40
0.0026797061957235
 40
0.0029030150453671
 40
0.0031263238950107
 40
0.003572941594298
 40
0.0040195592935852
 40
0.0042428681432288
 40
0.0044661769928725
 40
0.0046894858425161
 40
0.0049127946921597
 40
0.0051361035418033
 40
0.005359412391447
 40
0.0058060300907342
 40
0.0062526477900215
 40
0.0066992654893087
 40
0.007145883188596
 40
0.0075925008878832
 40
0.0080391185871704
 40
0.0084857362864577
 40
0.0087090451361013
 40
0.0089323539857449
 40
0.0091556628353886
 40
0.0093789716850322
 40
0.0096022805346758
 40
0.0098255893843194
 40
0.0102722070836067
 40
0.0107188247828939
 40
0.0111654424821812
 40
0.0116120601814684
 40
0.0120586778807557
 40
0.0125052955800429
 40
0.0129519132793302
 40
0.0133985309786174
 40
0.0138451486779047
 40
0.0142917663771919
 40
0.0147383840764792
 40
0.0151850017757664
 40
0.0156316194750537
 40
0.0160782371743409
 40
0.0165248548736281
 40
0.0169714725729154
 40
0.0174180902722026
 40
0.0178647079714899
 40
0.0183113256707771
 40
0.0187579433700644
 40
0.0196511787686389
 40
0.0205444141672134
 40
0.0214376495657879
 40
0.0223308849643624
 40
0.0232241203629369
 40
0.0250105911600858
 40
0.0267970619572348
 40
0.0285835327543838
 40
0.0285835327543838
 40
0.0285835327543838
 40
0.0285835327543838
 10
1.029012088982825
 20
2.629999450296886
 30
0.0
 10
1.024008004380819
 20
2.626848395482224
 30
0.0
 10
1.01650474625502
 20
2.622118374079476
 30
0.0
 10
1.006563617346254
 20
2.615735894425788
 30
0.0
 10
0.9991579246725232
 20
2.610888908476134
 30
0.0
 10
0.9918236612313044
 20
2.605956290905411
 30
0.0
 10
0.9845862822200705
 20
2.60090752521858
 30
0.0
 10
0.9786609264999895
 20
2.596573391941597
 30
0.0
 10
0.9740020476593286
 20
2.593008493552082
 30
0.0
 10
0.9705534371871781
 20
2.59028021458901
 30
0.0
 10
0.9671564149220913
 20
2.587490090053185
 30
0.0
 10
0.9638134141165039
 20
2.58463520288468
 30
0.0
 10
0.9605127175852791
 20
2.581729600015298
 30
0.0
 10
0.9561580087926267
 20
2.577800052960737
 30
0.0
 10
0.9507838026672785
 20
2.572805184133809
 30
0.0
 10
0.9444042512102372
 20
2.566728027668503
 30
0.0
 10
0.9380646234014202
 20
2.560603009472076
 30
0.0
 10
0.9296353429468817
 20
2.552408078119069
 30
0.0
 10
0.9190980512984457
 20
2.542165242411814
 30
0.0
 10
0.9084772079195731
 20
2.532022571177804
 30
0.0
 10
0.8998991615625164
 20
2.524005985059756
 30
0.0
 10
0.8934192638806976
 20
2.518049126909024
 30
0.0
 10
0.886888201047049
 20
2.51215360673373
 30
0.0
 10
0.8803015690648445
 20
2.506324706199551
 30
0.0
 10
0.8736659634680584
 20
2.500554510847845
 30
0.0
 10
0.8647625961542023
 20
2.492927953090909
 30
0.0
 10
0.8535450549275159
 20
2.483500444555038
 30
0.0
 10
0.8399938670700654
 20
2.47229644260443
 30
0.0
 10
0.8263982904070387
 20
2.461142195779583
 30
0.0
 10
0.8128064908014846
 20
2.44998256487201
 30
0.0
 10
0.7992732153076038
 20
2.438767036858452
 30
0.0
 10
0.7858540028858554
 20
2.427441528079911
 30
0.0
 10
0.7748169418408962
 20
2.41786338871539
 30
0.0
 10
0.7661093825394596
 20
2.410083285697213
 30
0.0
 10
0.7596499752046706
 20
2.404179576030501
 30
0.0
 10
0.7532722032857498
 20
2.398197242347471
 30
0.0
 10
0.7469909673164935
 20
2.392121934083697
 30
0.0
 10
0.7408069488199397
 20
2.385952994784755
 30
0.0
 10
0.7326801582354572
 20
2.377613549056383
 30
0.0
 10
0.7227297770218963
 20
2.36698881215198
 30
0.0
 10
0.7110783124386905
 20
2.353960796279007
 30
0.0
 10
0.6996769597832999
 20
2.340691895226263
 30
0.0
 10
0.6884891306646421
 20
2.327217348261682
 30
0.0
 10
0.6774791618087417
 20
2.313571500541286
 30
0.0
 10
0.6666101938533892
 20
2.299789860838159
 30
0.0
 10
0.6558434447823117
 20
2.285909746159092
 30
0.0
 10
0.6451311014907009
 20
2.271977333746012
 30
0.0
 10
0.6344557453308668
 20
2.258008921907193
 30
0.0
 10
0.6238022128715933
 20
2.244023656649322
 30
0.0
 10
0.6131452716868123
 20
2.230040971942147
 30
0.0
 10
0.6024578123075421
 20
2.216082537086362
 30
0.0
 10
0.5917145973328858
 20
2.202168336018133
 30
0.0
 10
0.5808901972168643
 20
2.188318558694413
 30
0.0
 10
0.5699909732936089
 20
2.174528154290341
 30
0.0
 10
0.5590337831582609
 20
2.160783746920806
 30
0.0
 10
0.5480314041867559
 20
2.147075197371832
 30
0.0
 10
0.5369966738391841
 20
2.133392319027988
 30
0.0
 10
0.5259414221683593
 20
2.119725724589296
 30
0.0
 10
0.5111907434122162
 20
2.101511806117652
 30
0.0
 10
0.4927540095070236
 20
2.078743126871453
 30
0.0
 10
0.4706292366429816
 20
2.051421261027325
 30
0.0
 10
0.4485046492262078
 20
2.024099248028587
 30
0.0
 10
0.4263800121981695
 20
1.996777274396973
 30
0.0
 10
0.3968805134911665
 20
1.960347962469629
 30
0.0
 10
0.3600061341577236
 20
1.914811327281598
 30
0.0
 10
0.3157568815205326
 20
1.860167363022235
 30
0.0
 10
0.2862573792742274
 20
1.82373805390337
 30
0.0
 10
0.2715076282120968
 20
1.805523399295515
 30
0.0
  0
SPLINE
  5
1000005F
102
{ACAD_XDICTIONARY
360
10000060
102
}
330
1F
100
AcDbEntity
  8
MODELSKETCH_VISIBLE
100
AcDbSpline
210
0.0
220
0.0
230
1.0
 70
     8
 71
     3
 72
    75
 73
    71
 74
     0
 42
0.000000001
 43
0.00000001
 40
0.0
 40
0.0
 40
0.0
 40
0.0
 40
0.0011124350371659
 40
0.0022248700743318
 40
0.0033373051114977
 40
0.0044497401486637
 40
0.0055621751858296
 40
0.0066746102229955
 40
0.0077870452601614
 40
0.0083432627787444
 40
0.0088994802973273
 40
0.0094556978159103
 40
0.0097338065752017
 40
0.0100119153344932
 40
0.0102900240937847
 40
0.0105681328530762
 40
0.0111243503716591
 40
0.0116805678902421
 40
0.0122367854088251
 40
0.012793002927408
 40
0.0130711116866995
 40
0.013349220445991
 40
0.0136273292052824
 40
0.0139054379645739
 40
0.0144616554831569
 40
0.0150178730017398
 40
0.0155740905203228
 40
0.0161303080389058
 40
0.0166865255574887
 40
0.0172427430760717
 40
0.0175208518353631
 40
0.0177989605946546
 40
0.0180770693539461
 40
0.0183551781132376
 40
0.0186332868725291
 40
0.0189113956318205
 40
0.0194676131504035
 40
0.019745721909695
 40
0.0200238306689864
 40
0.0203019394282779
 40
0.0204409938079237
 40
0.0205800481875694
 40
0.0208581569468609
 40
0.0211362657061524
 40
0.0216924832247353
 40
0.0222487007433183
 40
0.0228049182619012
 40
0.0233611357804842
 40
0.0244735708176501
 40
0.025586005854816
 40
0.026142223373399
 40
0.0266984408919819
 40
0.0272546584105649
 40
0.0278108759291479
 40
0.0283670934477308
 40
0.0289233109663138
 40
0.0294795284848967
 40
0.0300357460034797
 40
0.0305919635220626
 40
0.0311481810406456
 40
0.0317043985592285
 40
0.0322606160778115
 40
0.0328168335963945
 40
0.0333730511149774
 40
0.0339292686335604
 40
0.0344854861521433
 40
0.0347635949114348
 40
0.0350417036707263
 40
0.0353198124300178
 40
0.0355979211893092
 40
0.0355979211893092
 40
0.0355979211893092
 40
0.0355979211893092
 10
0.2715076282120967
 20
1.805523399295515
 30
0.0
 10
0.2707711438124342
 20
1.820103695384274
 30
0.0
 10
0.2692981750159596
 20
1.849264287561692
 30
0.0
 10
0.2670887218041452
 20
1.893005175828431
 30
0.0
 10
0.2648792686521913
 20
1.936746064093026
 30
0.0
 10
0.262669815277897
 20
1.980486952365581
 30
0.0
 10
0.2604603627331031
 20
2.024227840608445
 30
0.0
 10
0.258250907092648
 20
2.067968728962106
 30
0.0
 10
0.256409703686557
 20
2.104419468912246
 30
0.0
 10
0.2549367194032224
 20
2.133580061643945
 30
0.0
 10
0.2538320400895348
 20
2.155450504084708
 30
0.0
 10
0.2529112866481088
 20
2.173675879490546
 30
0.0
 10
0.2521751040776087
 20
2.188256164776738
 30
0.0
 10
0.2516218190098231
 20
2.199191419833699
 30
0.0
 10
0.2510732126262205
 20
2.210126533003035
 30
0.0
 10
0.2503916175720487
 20
2.224699279079652
 30
0.0
 10
0.2496980075409838
 20
2.242892263688943
 30
0.0
 10
0.2492863487141792
 20
2.264662724699371
 30
0.0
 10
0.2494121960508552
 20
2.286355126770168
 30
0.0
 10
0.2500321741123889
 20
2.304357315191529
 30
0.0
 10
0.2508632668434609
 20
2.318710396136255
 30
0.0
 10
0.2516579889045952
 20
2.329450312979642
 30
0.0
 10
0.2526291030681697
 20
2.340164611340896
 30
0.0
 10
0.2541522302967299
 20
2.354417183882499
 30
0.0
 10
0.2564492564983981
 20
2.372175804774788
 30
0.0
 10
0.2597479195661099
 20
2.393407398263234
 30
0.0
 10
0.2635131515871738
 20
2.414571229118068
 30
0.0
 10
0.2676788870965475
 20
2.435676892426502
 30
0.0
 10
0.2721859926561646
 20
2.45673297649603
 30
0.0
 10
0.2761811486160119
 20
2.474244967722004
 30
0.0
 10
0.2794949072847016
 20
2.488237476020478
 30
0.0
 10
0.2820326469164074
 20
2.498724243875353
 30
0.0
 10
0.2846161134005579
 20
2.509204370555962
 30
0.0
 10
0.287239124382661
 20
2.5196787538998
 30
0.0
 10
0.2899106214086969
 20
2.530146095508292
 30
0.0
 10
0.2935482544588511
 20
2.544091564837291
 30
0.0
 10
0.2973160101516069
 20
2.558018140858317
 30
0.0
 10
0.3012451052738678
 20
2.571921269699144
 30
0.0
 10
0.3042797878259066
 20
2.582335895157298
 30
0.0
 10
0.3068875596601744
 20
2.591003169703078
 30
0.0
 10
0.3090243556496657
 20
2.59792992445934
 30
0.0
 10
0.3111954995224006
 20
2.604850667108192
 30
0.0
 10
0.313969853811305
 20
2.613472223557503
 30
0.0
 10
0.3185446255895177
 20
2.627207214321935
 30
0.0
 10
0.3245257942666714
 20
2.644257900842982
 30
0.0
 10
0.332142527431461
 20
2.664522236807215
 30
0.0
 10
0.3402126052704986
 20
2.684583569301712
 30
0.0
 10
0.3515040293003021
 20
2.711094170120112
 30
0.0
 10
0.366476920865286
 20
2.743848033446857
 30
0.0
 10
0.3823028286931079
 20
2.776220022871898
 30
0.0
 10
0.3953252621596082
 20
2.801955684657163
 30
0.0
 10
0.4052366890877113
 20
2.821192698586481
 30
0.0
 10
0.4152484571991279
 20
2.840384782125138
 30
0.0
 10
0.4253433861644306
 20
2.859539673163499
 30
0.0
 10
0.4355112977384049
 20
2.878661754230678
 30
0.0
 10
0.445732144851354
 20
2.897755793260145
 30
0.0
 10
0.455986552681511
 20
2.916832751232745
 30
0.0
 10
0.4662543006420106
 20
2.935902781750942
 30
0.0
 10
0.4765172849120037
 20
2.954975281078015
 30
0.0
 10
0.4867622340642058
 20
2.974057066904099
 30
0.0
 10
0.4969624217757531
 20
2.993161911894096
 30
0.0
 10
0.5070921503291004
 20
3.012303052436685
 30
0.0
 10
0.5171254192886933
 20
3.031493882577522
 30
0.0
 10
0.5270325531250589
 20
3.050749689064393
 30
0.0
 10
0.5367763771359844
 20
3.070089621839898
 30
0.0
 10
0.5447187222837762
 20
3.086297672816759
 30
0.0
 10
0.5509274153055099
 20
3.099338902205053
 30
0.0
 10
0.5554973198614908
 20
3.109164442600858
 30
0.0
 10
0.559959880242942
 20
3.119045279525174
 30
0.0
 10
0.5628502985818513
 20
3.125676095683963
 30
0.0
 10
0.5642746182571844
 20
3.129002264631496
 30
0.0
  0
LINE
  5
10000063
102
{ACAD_XDICTIONARY
360
10000064
102
}
330
1F
100
AcDbEntity
  8
MODELSKETCH_VISIBLE
100
AcDbLine
 10
0.5642746182571874
 20
3.129002264631502
 30
0.0
 11
0.0000000000000001
 21
3.760955484044338
 31
0.0
  0
LINE
  5
10000067
102
{ACAD_XDICTIONARY
360
10000068
102
}
330
1F
100
AcDbEntity
  8
MODELSKETCH_VISIBLE
100
AcDbLine
 10
-0.5642746182571879
 20
3.129002264631501
 30
0.0
 11
0.0000000000000001
 21
3.760955484044338
 31
0.0
  0
SPLINE
  5
1000006B
102
{ACAD_XDICTIONARY
360
1000006C
102
}
330
1F
100
AcDbEntity
  8
MODELSKETCH_VISIBLE
100
AcDbSpline
210
0.0
220
0.0
230
1.0
 70
     8
 71
     3
 72
    75
 73
    71
 74
     0
 42
0.000000001
 43
0.00000001
 40
0.0
 40
0.0
 40
0.0
 40
0.0
 40
0.0011124350371659
 40
0.0022248700743318
 40
0.0033373051114977
 40
0.0044497401486636
 40
0.0055621751858296
 40
0.0066746102229955
 40
0.0077870452601614
 40
0.0083432627787443
 40
0.0088994802973273
 40
0.0094556978159102
 40
0.0097338065752017
 40
0.0100119153344932
 40
0.0102900240937847
 40
0.0105681328530762
 40
0.0111243503716591
 40
0.0116805678902421
 40
0.012236785408825
 40
0.012793002927408
 40
0.0130711116866995
 40
0.0133492204459909
 40
0.0136273292052824
 40
0.0139054379645739
 40
0.0144616554831568
 40
0.0150178730017398
 40
0.0155740905203228
 40
0.0161303080389057
 40
0.0166865255574887
 40
0.0172427430760716
 40
0.0175208518353631
 40
0.0177989605946546
 40
0.0180770693539461
 40
0.0183551781132375
 40
0.018633286872529
 40
0.0189113956318205
 40
0.0194676131504034
 40
0.0197457219096949
 40
0.0200238306689864
 40
0.0203019394282779
 40
0.0204409938079236
 40
0.0205800481875694
 40
0.0208581569468608
 40
0.0211362657061523
 40
0.0216924832247353
 40
0.0222487007433182
 40
0.0228049182619012
 40
0.0233611357804841
 40
0.02447357081765
 40
0.025586005854816
 40
0.0261422233733989
 40
0.0266984408919819
 40
0.0272546584105648
 40
0.0278108759291478
 40
0.0283670934477307
 40
0.0289233109663137
 40
0.0294795284848966
 40
0.0300357460034796
 40
0.0305919635220626
 40
0.0311481810406455
 40
0.0317043985592285
 40
0.0322606160778114
 40
0.0328168335963944
 40
0.0333730511149773
 40
0.0339292686335603
 40
0.0344854861521432
 40
0.0347635949114347
 40
0.0350417036707262
 40
0.0353198124300177
 40
0.0355979211893092
 40
0.0355979211893092
 40
0.0355979211893092
 40
0.0355979211893092
 10
-0.2715076282120967
 20
1.805523399295514
 30
0.0
 10
-0.2707711438124342
 20
1.820103695384274
 30
0.0
 10
-0.2692981750159599
 20
1.849264287561694
 30
0.0
 10
-0.2670887218041453
 20
1.893005175828429
 30
0.0
 10
-0.2648792686521912
 20
1.936746064093026
 30
0.0
 10
-0.2626698152778971
 20
1.980486952365578
 30
0.0
 10
-0.2604603627331035
 20
2.024227840608445
 30
0.0
 10
-0.2582509070926478
 20
2.067968728962104
 30
0.0
 10
-0.2564097036865571
 20
2.104419468912246
 30
0.0
 10
-0.2549367194032223
 20
2.133580061643943
 30
0.0
 10
-0.2538320400895347
 20
2.155450504084707
 30
0.0
 10
-0.2529112866481088
 20
2.173675879490545
 30
0.0
 10
-0.2521751040776087
 20
2.188256164776737
 30
0.0
 10
-0.2516218190098233
 20
2.199191419833697
 30
0.0
 10
-0.2510732126262206
 20
2.210126533003034
 30
0.0
 10
-0.2503916175720488
 20
2.224699279079652
 30
0.0
 10
-0.2496980075409839
 20
2.242892263688944
 30
0.0
 10
-0.2492863487141792
 20
2.264662724699366
 30
0.0
 10
-0.2494121960508551
 20
2.286355126770168
 30
0.0
 10
-0.2500321741123891
 20
2.30435731519153
 30
0.0
 10
-0.2508632668434607
 20
2.318710396136253
 30
0.0
 10
-0.2516579889045951
 20
2.32945031297964
 30
0.0
 10
-0.2526291030681696
 20
2.340164611340895
 30
0.0
 10
-0.2541522302967295
 20
2.354417183882497
 30
0.0
 10
-0.2564492564983979
 20
2.372175804774787
 30
0.0
 10
-0.2597479195661098
 20
2.393407398263232
 30
0.0
 10
-0.2635131515871738
 20
2.414571229118068
 30
0.0
 10
-0.2676788870965471
 20
2.4356768924265
 30
0.0
 10
-0.2721859926561642
 20
2.456732976496028
 30
0.0
 10
-0.2761811486160114
 20
2.474244967722002
 30
0.0
 10
-0.2794949072847014
 20
2.488237476020478
 30
0.0
 10
-0.2820326469164072
 20
2.49872424387535
 30
0.0
 10
-0.2846161134005576
 20
2.509204370555961
 30
0.0
 10
-0.2872391243826607
 20
2.519678753899799
 30
0.0
 10
-0.2899106214086966
 20
2.53014609550829
 30
0.0
 10
-0.2935482544588509
 20
2.544091564837289
 30
0.0
 10
-0.2973160101516063
 20
2.558018140858314
 30
0.0
 10
-0.3012451052738674
 20
2.57192126969914
 30
0.0
 10
-0.3042797878259059
 20
2.582335895157295
 30
0.0
 10
-0.3068875596601736
 20
2.591003169703075
 30
0.0
 10
-0.309024355649665
 20
2.597929924459338
 30
0.0
 10
-0.3111954995224001
 20
2.604850667108189
 30
0.0
 10
-0.3139698538113048
 20
2.613472223557502
 30
0.0
 10
-0.318544625589517
 20
2.627207214321932
 30
0.0
 10
-0.3245257942666704
 20
2.644257900842979
 30
0.0
 10
-0.3321425274314609
 20
2.664522236807215
 30
0.0
 10
-0.3402126052704978
 20
2.684583569301711
 30
0.0
 10
-0.3515040293003016
 20
2.711094170120111
 30
0.0
 10
-0.3664769208652844
 20
2.743848033446854
 30
0.0
 10
-0.3823028286931073
 20
2.776220022871897
 30
0.0
 10
-0.3953252621596061
 20
2.80195568465716
 30
0.0
 10
-0.4052366890877107
 20
2.82119269858648
 30
0.0
 10
-0.4152484571991266
 20
2.840384782125137
 30
0.0
 10
-0.4253433861644278
 20
2.859539673163494
 30
0.0
 10
-0.4355112977384047
 20
2.878661754230678
 30
0.0
 10
-0.4457321448513495
 20
2.897755793260136
 30
0.0
 10
-0.4559865526815118
 20
2.916832751232746
 30
0.0
 10
-0.4662543006420096
 20
2.93590278175094
 30
0.0
 10
-0.4765172849120024
 20
2.954975281078013
 30
0.0
 10
-0.4867622340642045
 20
2.974057066904095
 30
0.0
 10
-0.4969624217757497
 20
2.993161911894089
 30
0.0
 10
-0.5070921503290994
 20
3.012303052436684
 30
0.0
 10
-0.517125419288691
 20
3.031493882577514
 30
0.0
 10
-0.5270325531250581
 20
3.050749689064392
 30
0.0
 10
-0.5367763771359813
 20
3.070089621839891
 30
0.0
 10
-0.5447187222837744
 20
3.086297672816758
 30
0.0
 10
-0.5509274153055093
 20
3.09933890220505
 30
0.0
 10
-0.55549731986149
 20
3.109164442600857
 30
0.0
 10
-0.5599598802429405
 20
3.119045279525171
 30
0.0
 10
-0.5628502985818511
 20
3.125676095683962
 30
0.0
 10
-0.5642746182571843
 20
3.129002264631495
 30
0.0
  0
SPLINE
  5
1000006F
102
{ACAD_XDICTIONARY
360
10000070
102
}
330
1F
100
AcDbEntity
  8
MODELSKETCH_VISIBLE
100
AcDbSpline
210
0.0
220
0.0
230
1.0
 70
     8
 71
     3
 72
   343
 73
   339
 74
     0
 42
0.000000001
 43
0.00000001
 40
0.0
 40
0.0
 40
0.0
 40
0.0
 40
0.0016340518222632
 40
0.0032681036445265
 40
0.0049021554667897
 40
0.006536207289053
 40
0.0081702591113162
 40
0.0098043109335795
 40
0.0114383627558427
 40
0.0122553886669744
 40
0.013072414578106
 40
0.0138894404892376
 40
0.0147064664003692
 40
0.0163405182226325
 40
0.0179745700448957
 40
0.019608621867159
 40
0.0212426736894222
 40
0.0228767255116855
 40
0.0245107773339487
 40
0.0253278032450803
 40
0.026144829156212
 40
0.0269618550673436
 40
0.0277788809784752
 40
0.0285959068896068
 40
0.0294129328007385
 40
0.0298214457563043
 40
0.0302299587118701
 40
0.0306384716674359
 40
0.0310469846230017
 40
0.0314554975785675
 40
0.0318640105341333
 40
0.032681036445265
 40
0.0334980623563966
 40
0.0343150882675282
 40
0.0351321141786598
 40
0.0359491400897915
 40
0.0375831919120547
 40
0.039217243734318
 40
0.0400342696454496
 40
0.0408512955565812
 40
0.0416683214677128
 40
0.0424853473788444
 40
0.0433023732899761
 40
0.0441193992011077
 40
0.0449364251122393
 40
0.0457534510233709
 40
0.0465704769345026
 40
0.0473875028456342
 40
0.0482045287567658
 40
0.0490215546678974
 40
0.0498385805790291
 40
0.0502470935345949
 40
0.0506556064901607
 40
0.0508598629679436
 40
0.0510641194457265
 40
0.0514726324012923
 40
0.0518811453568581
 40
0.0522896583124239
 40
0.0526981712679898
 40
0.0531066842235556
 40
0.0539237101346872
 40
0.0547407360458188
 40
0.0555577619569504
 40
0.0563747878680821
 40
0.0571918137792137
 40
0.0588258656014769
 40
0.0604599174237402
 40
0.0620939692460034
 40
0.0629109951571351
 40
0.0637280210682667
 40
0.0645450469793983
 40
0.0649535599349641
 40
0.0653620728905299
 40
0.0661790988016615
 40
0.0669961247127932
 40
0.0678131506239248
 40
0.0686301765350564
 40
0.0690386894906222
 40
0.069447202446188
 40
0.0698557154017539
 40
0.0702642283573197
 40
0.0704684848351026
 40
0.0706727413128855
 40
0.0708769977906684
 40
0.0710812542684513
 40
0.0712855107462342
 40
0.0714897672240171
 40
0.0718982801795829
 40
0.0723067931351487
 40
0.0727153060907145
 40
0.0735323320018462
 40
0.0743493579129778
 40
0.0751663838241094
 40
0.075983409735241
 40
0.0768004356463727
 40
0.0776174615575043
 40
0.0784344874686359
 40
0.0792515133797675
 40
0.0800685392908992
 40
0.0817025911131624
 40
0.0833366429354256
 40
0.0841536688465573
 40
0.0849706947576889
 40
0.0857877206688205
 40
0.0866047465799522
 40
0.0874217724910838
 40
0.0882387984022154
 40
0.0886473113577812
 40
0.089055824313347
 40
0.0892600807911299
 40
0.0894643372689128
 40
0.0895664655078043
 40
0.0896685937466957
 40
0.0898728502244786
 40
0.0900771067022615
 40
0.0902813631800445
 40
0.0906898761356103
 40
0.0915069020467419
 40
0.0923239279578735
 40
0.0931409538690051
 40
0.0939579797801368
 40
0.0947750056912684
 40
0.0955920316024
 40
0.0964090575135316
 40
0.0972260834246633
 40
0.0980431093357949
 40
0.0988601352469265
 40
0.0992686482024923
 40
0.0994729046802752
 40
0.0996771611580581
 40
0.099881417635841
 40
0.0999835458747325
 40
0.1000856741136239
 40
0.1002899305914068
 40
0.1004941870691897
 40
0.1009027000247556
 40
0.1013112129803214
 40
0.1017197259358872
 40
0.102128238891453
 40
0.1029452648025846
 40
0.1037622907137162
 40
0.1045793166248479
 40
0.1053963425359795
 40
0.1062133684471111
 40
0.1070303943582427
 40
0.1078474202693744
 40
0.108664446180506
 40
0.1090729591360718
 40
0.1094814720916376
 40
0.1098899850472034
 40
0.1100942415249863
 40
0.1102984980027692
 40
0.1104006262416607
 40
0.1105027544805521
 40
0.1106048827194436
 40
0.110707010958335
 40
0.110911267436118
 40
0.1111155239139009
 40
0.1115240368694667
 40
0.1119325498250325
 40
0.1123410627805983
 40
0.1127495757361641
 40
0.1131580886917299
 40
0.1135666016472957
 40
0.1143836275584274
 40
0.115200653469559
 40
0.1160176793806906
 40
0.1168347052918222
 40
0.1176517312029539
 40
0.1184687571140855
 40
0.1188772700696513
 40
0.1190815265474342
 40
0.1192857830252171
 40
0.119490039503
 40
0.1195921677418915
 40
0.1196942959807829
 40
0.1198985524585658
 40
0.1201028089363487
 40
0.1205113218919145
 40
0.1209198348474804
 40
0.1213283478030462
 40
0.121736860758612
 40
0.1225538866697436
 40
0.1233709125808752
 40
0.1241879384920068
 40
0.1250049644031385
 40
0.1254134773587043
 40
0.1258219903142701
 40
0.1262305032698359
 40
0.1266390162254017
 40
0.1268432727031846
 40
0.1270475291809675
 40
0.1272517856587504
 40
0.1273539138976419
 40
0.1274560421365333
 40
0.1275581703754248
 40
0.1276602986143162
 40
0.1278645550920992
 40
0.1280688115698821
 40
0.128273068047665
 40
0.1286815810032308
 40
0.1290900939587966
 40
0.1294986069143624
 40
0.1299071198699282
 40
0.1307241457810598
 40
0.1315411716921915
 40
0.1323581976033231
 40
0.1331752235144547
 40
0.1335837364700205
 40
0.1339922494255864
 40
0.1344007623811522
 40
0.134809275336718
 40
0.1352177882922838
 40
0.1353199165311752
 40
0.1354220447700667
 40
0.1356263012478496
 40
0.1360348142034154
 40
0.1364433271589812
 40
0.1372603530701128
 40
0.1380773789812444
 40
0.1388944048923761
 40
0.1397114308035077
 40
0.1405284567146393
 40
0.141345482625771
 40
0.1421625085369026
 40
0.1429795344480342
 40
0.1437965603591658
 40
0.1442050733147316
 40
0.1446135862702975
 40
0.1454306121814291
 40
0.1462476380925607
 40
0.1470646640036923
 40
0.1478816899148239
 40
0.1486987158259556
 40
0.1495157417370872
 40
0.1503327676482188
 40
0.1511497935593504
 40
0.1515583065149163
 40
0.1517625629926992
 40
0.1519668194704821
 40
0.152171075948265
 40
0.1522732041871565
 40
0.1523753324260479
 40
0.1525795889038308
 40
0.1527838453816137
 40
0.1531923583371795
 40
0.1536008712927453
 40
0.1540093842483111
 40
0.1544178972038769
 40
0.1552349231150086
 40
0.1560519490261402
 40
0.1568689749372718
 40
0.1576860008484035
 40
0.1585030267595351
 40
0.1593200526706667
 40
0.1601370785817983
 40
0.1605455915373641
 40
0.1609541044929299
 40
0.1613626174484957
 40
0.1617711304040615
 40
0.1625881563151932
 40
0.1634051822263248
 40
0.1642222081374564
 40
0.1650392340485881
 40
0.1658562599597197
 40
0.1666732858708513
 40
0.1670817988264171
 40
0.1674903117819829
 40
0.1678988247375487
 40
0.1683073376931145
 40
0.1687158506486803
 40
0.1691243636042462
 40
0.1699413895153778
 40
0.1707584154265094
 40
0.171575441337641
 40
0.1732094931599043
 40
0.1748435449821675
 40
0.1756605708932992
 40
0.1764775968044308
 40
0.1772946227155624
 40
0.178111648626694
 40
0.1789286745378257
 40
0.1797457004489573
 40
0.1805627263600889
 40
0.1809712393156547
 40
0.1813797522712205
 40
0.1817882652267863
 40
0.1821967781823521
 40
0.1830138040934838
 40
0.1838308300046154
 40
0.184647855915747
 40
0.1854648818268786
 40
0.1858733947824445
 40
0.1862819077380103
 40
0.1864861642157932
 40
0.1866904206935761
 40
0.186894677171359
 40
0.1870989336491419
 40
0.1875074466047077
 40
0.1879159595602735
 40
0.1883244725158393
 40
0.1885287289936222
 40
0.1887329854714052
 40
0.189141498426971
 40
0.1895500113825368
 40
0.1899585243381026
 40
0.1903670372936684
 40
0.1911840632048
 40
0.1920010891159316
 40
0.1928181150270633
 40
0.1936351409381949
 40
0.1944521668493265
 40
0.1952691927604581
 40
0.1956777057160239
 40
0.1960862186715898
 40
0.1969032445827214
 40
0.197720270493853
 40
0.1985372964049846
 40
0.1993543223161163
 40
0.2001713482272479
 40
0.2005798611828137
 40
0.2009883741383795
 40
0.2013968870939453
 40
0.2018054000495111
 40
0.2020096565272941
 40
0.202213913005077
 40
0.2024181694828598
 40
0.2026224259606428
 40
0.2028266824384257
 40
0.2030309389162085
 40
0.2034394518717744
 40
0.204256477782906
 40
0.2050735036940376
 40
0.2058905296051692
 40
0.2067075555163009
 40
0.2075245814274325
 40
0.2083416073385641
 40
0.2091586332496957
 40
0.2091586332496957
 40
0.2091586332496957
 40
0.2091586332496957
 10
2.656180386898176
 20
2.623444456385271
 30
0.0
 10
2.666140889592838
 20
2.604118470557553
 30
0.0
 10
2.68556259854124
 20
2.565306418218331
 30
0.0
 10
2.713409081729192
 20
2.506676006300943
 30
0.0
 10
2.740134074359993
 20
2.447686030484159
 30
0.0
 10
2.765868542579289
 20
2.388378480152313
 30
0.0
 10
2.790718146209309
 20
2.328787231165919
 30
0.0
 10
2.814769284845772
 20
2.268939984315989
 30
0.0
 10
2.834205885187726
 20
2.218872982558712
 30
0.0
 10
2.849421329977261
 20
2.178712349321349
 30
0.0
 10
2.860671744646192
 20
2.148540201620764
 30
0.0
 10
2.871769393333092
 20
2.118319075235652
 30
0.0
 10
2.886316703604417
 20
2.077944229715223
 30
0.0
 10
2.903935249253436
 20
2.027294336884554
 30
0.0
 10
2.923888804735687
 20
1.966133353625754
 30
0.0
 10
2.942421372876652
 20
1.904516784053256
 30
0.0
 10
2.959373730466866
 20
1.842393579211973
 30
0.0
 10
2.974665931864527
 20
1.779738107539283
 30
0.0
 10
2.986019412622579
 20
1.727079556526371
 30
0.0
 10
2.994294499271384
 20
1.684693757703882
 30
0.0
 10
3.000106545284876
 20
1.652778000872369
 30
0.0
 10
3.005542625388196
 20
1.620741705242741
 30
0.0
 10
3.010631890921774
 20
1.588594214375074
 30
0.0
 10
3.015394991364332
 20
1.556342158921934
 30
0.0
 10
3.01910666077706
 20
1.529382837418779
 30
0.0
 10
3.021927948223098
 20
1.507767970016277
 30
0.0
 10
3.023971207029419
 20
1.491533356129164
 30
0.0
 10
3.025942846065678
 20
1.475276362645388
 30
0.0
 10
3.027844113951313
 20
1.458994629533803
 30
0.0
 10
3.029672659334548
 20
1.442716845110696
 30
0.0
 10
3.032015544823717
 20
1.421014484971317
 30
0.0
 10
3.034767567314729
 20
1.393890811241171
 30
0.0
 10
3.037792071579764
 20
1.361348581004092
 30
0.0
 10
3.040540572157193
 20
1.32881263546318
 30
0.0
 10
3.043012653178471
 20
1.296282943882578
 30
0.0
 10
3.045936093892918
 20
1.252918467717592
 30
0.0
 10
3.048879246330797
 20
1.198728982949649
 30
0.0
 10
3.050810443831987
 20
1.144562424945233
 30
0.0
 10
3.051678226402878
 20
1.101244520242971
 30
0.0
 10
3.051964701800802
 20
1.06876434653615
 30
0.0
 10
3.051855371467843
 20
1.036293140021427
 30
0.0
 10
3.051310370184353
 20
1.003831803870963
 30
0.0
 10
3.050276220308758
 20
0.9713815496478814
 30
0.0
 10
3.048693639638774
 20
0.9389437204271927
 30
0.0
 10
3.046514105697088
 20
0.9065194154967867
 30
0.0
 10
3.043689685835732
 20
0.8741097208539175
 30
0.0
 10
3.040178566680772
 20
0.8417155835910108
 30
0.0
 10
3.035947793727329
 20
0.8093377511029318
 30
0.0
 10
3.030977059972332
 20
0.7769766804981255
 30
0.0
 10
3.025262130684295
 20
0.7446324787553464
 30
0.0
 10
3.019891437283385
 20
0.7176927305160269
 30
0.0
 10
3.015247446287004
 20
0.6961488639116522
 30
0.0
 10
3.01220549293185
 20
0.6826869687697716
 30
0.0
 10
3.009691988098102
 20
0.6719195799126862
 30
0.0
 10
3.007126220537093
 20
0.6611522210295848
 30
0.0
 10
3.003833295014923
 20
0.6477322129665869
 30
0.0
 10
2.999753168815615
 20
0.6316816278250748
 30
0.0
 10
2.995554903518509
 20
0.6156815340421103
 30
0.0
 10
2.991248649722689
 20
0.5997272148618721
 30
0.0
 10
2.985377600243204
 20
0.5785097630572867
 30
0.0
 10
2.977817469751366
 20
0.5520819271019048
 30
0.0
 10
2.968396514885936
 20
0.5205166551773973
 30
0.0
 10
2.958630546528191
 20
0.4890979015786885
 30
0.0
 10
2.948519302663468
 20
0.4578257790730216
 30
0.0
 10
2.934572954846475
 20
0.4163269587766424
 30
0.0
 10
2.916255436787627
 20
0.3648290961612213
 30
0.0
 10
2.892782280990295
 20
0.3036653369625413
 30
0.0
 10
2.871878174990838
 20
0.253265940324275
 30
0.0
 10
2.854264291654652
 20
0.2133246402716807
 30
0.0
 10
2.840581392992385
 20
0.1835693195260244
 30
0.0
 10
2.828759879211379
 20
0.158951200539204
 30
0.0
 10
2.819033239955089
 20
0.1393711254876169
 30
0.0
 10
2.809120371532067
 20
0.1198701377928737
 30
0.0
 10
2.796379943956289
 20
0.0956422609257635
 30
0.0
 10
2.780532463435122
 20
0.0668061896132306
 30
0.0
 10
2.764127926987586
 20
0.0382066875713525
 30
0.0
 10
2.749996402929256
 20
0.0145695780081946
 30
0.0
 10
2.738417483341984
 20
-0.0042238746049109
 30
0.0
 10
2.729597400406286
 20
-0.018261254969026
 30
0.0
 10
2.72064248979448
 20
-0.0322413704610678
 30
0.0
 10
2.713068702721466
 20
-0.0438441944283129
 30
0.0
 10
2.706943565403856
 20
-0.0530983332801778
 30
0.0
 10
2.702316764243995
 20
-0.0600250704138264
 30
0.0
 10
2.697657528557053
 20
-0.0669375548873132
 30
0.0
 10
2.692964850128455
 20
-0.0738376254023724
 30
0.0
 10
2.688247108882081
 20
-0.0807134775169985
 30
0.0
 10
2.681923383660902
 20
-0.0898499182539478
 30
0.0
 10
2.673956976996953
 20
-0.1012120760049665
 30
0.0
 10
2.664300771355039
 20
-0.1147555246699648
 30
0.0
 10
2.65130035562549
 20
-0.1326949254925954
 30
0.0
 10
2.634820677463801
 20
-0.154902721487351
 30
0.0
 10
2.614698561094683
 20
-0.1812247760751927
 30
0.0
 10
2.59425117225448
 20
-0.2072395853948829
 30
0.0
 10
2.573499252077319
 20
-0.2329667406052601
 30
0.0
 10
2.552468225966626
 20
-0.2584302581475502
 30
0.0
 10
2.531156204031823
 20
-0.2836283528351399
 30
0.0
 10
2.509551286389847
 20
-0.3085497842938878
 30
0.0
 10
2.487643854035794
 20
-0.3331854666079418
 30
0.0
 10
2.458016575043052
 20
-0.3656388047200005
 30
0.0
 10
2.420173622324794
 20
-0.4054414506085084
 30
0.0
 10
2.381178682832099
 20
-0.4441559536147144
 30
0.0
 10
2.349244385013773
 20
-0.4744301294087892
 30
0.0
 10
2.324911999688482
 20
-0.496775251333738
 30
0.0
 10
2.300185083165335
 20
-0.5187477069413504
 30
0.0
 10
2.275050239600921
 20
-0.5403348442293936
 30
0.0
 10
2.249493392398107
 20
-0.5615233613790679
 30
0.0
 10
2.227832435850504
 20
-0.5788370383252798
 30
0.0
 10
2.210276896940427
 20
-0.5924737447401762
 30
0.0
 10
2.199208032498021
 20
-0.6009054571573431
 30
0.0
 10
2.190293819446411
 20
-0.6075948287531824
 30
0.0
 10
2.184697285246521
 20
-0.6117522788394578
 30
0.0
 10
2.180205402349388
 20
-0.6150635939539499
 30
0.0
 10
2.175707630182201
 20
-0.6183622178390349
 30
0.0
 10
2.170072849769973
 20
-0.6224627308736382
 30
0.0
 10
2.163291351391257
 20
-0.6273463452585786
 30
0.0
 10
2.154222673217209
 20
-0.6338083102748806
 30
0.0
 10
2.138282116662139
 20
-0.6449858605066937
 30
0.0
 10
2.115306248892969
 20
-0.6605751509299684
 30
0.0
 10
2.087401016480021
 20
-0.6786608881156275
 30
0.0
 10
2.059152860391854
 20
-0.6961089882356347
 30
0.0
 10
2.030552684342026
 20
-0.7129025342825966
 30
0.0
 10
2.001590984365127
 20
-0.7290238552870758
 30
0.0
 10
1.972257814870642
 20
-0.744454457763371
 30
0.0
 10
1.94254274622324
 20
-0.7591749494944432
 30
0.0
 10
1.912434822284035
 20
-0.7731649553729051
 30
0.0
 10
1.881922499142836
 20
-0.7864030216589035
 30
0.0
 10
1.856148439648126
 20
-0.796789267086917
 30
0.0
 10
1.8379186863362
 20
-0.8037102859990126
 30
0.0
 10
1.827447194441847
 20
-0.8075637496946004
 30
0.0
 10
1.81956598861152
 20
-0.8104027894997409
 30
0.0
 10
1.812975580682808
 20
-0.8127256222177488
 30
0.0
 10
1.807688522775492
 20
-0.8145581947128017
 30
0.0
 10
1.802398921345078
 20
-0.8163710641694566
 30
0.0
 10
1.795781484661459
 20
-0.8186004926496003
 30
0.0
 10
1.785182293335669
 20
-0.8220894276065859
 30
0.0
 10
1.77191203891397
 20
-0.8263043653783962
 30
0.0
 10
1.755953832694659
 20
-0.8311288789379542
 30
0.0
 10
1.739961755870931
 20
-0.8357202676818851
 30
0.0
 10
1.71859382788225
 20
-0.8415312716212824
 30
0.0
 10
1.691799166699994
 20
-0.8482116610784957
 30
0.0
 10
1.65950921624362
 20
-0.8552895419198964
 30
0.0
 10
1.627081524598565
 20
-0.8614193098224867
 30
0.0
 10
1.594514105308045
 20
-0.8665872910919648
 30
0.0
 10
1.561804349015505
 20
-0.8707755249794771
 30
0.0
 10
1.528949001103104
 20
-0.873961608435218
 30
0.0
 10
1.495944119396365
 20
-0.8761184083160498
 30
0.0
 10
1.468311548106366
 20
-0.8770312112610235
 30
0.0
 10
1.446125631721621
 20
-0.8772117691505468
 30
0.0
 10
1.429445489281178
 20
-0.8770669720143079
 30
0.0
 10
1.415510744489847
 20
-0.8767080615847168
 30
0.0
 10
1.404341765440929
 20
-0.8762749088859977
 30
0.0
 10
1.397352143927522
 20
-0.8759426600493838
 30
0.0
 10
1.391755186313491
 20
-0.8756395358615657
 30
0.0
 10
1.387554292604304
 20
-0.8753933910364173
 30
0.0
 10
1.383352364473056
 20
-0.8751284592525136
 30
0.0
 10
1.377758175047296
 20
-0.8747507382286213
 30
0.0
 10
1.370777131038422
 20
-0.8742324285216083
 30
0.0
 10
1.35963410895343
 20
-0.8733046520213675
 30
0.0
 10
1.345754588870886
 20
-0.8719599976849604
 30
0.0
 10
1.329178464346155
 20
-0.870049613388423
 30
0.0
 10
1.312681900580901
 20
-0.8678412050859297
 30
0.0
 10
1.296265236164871
 20
-0.8653335707934992
 30
0.0
 10
1.279929089869042
 20
-0.8625243753773993
 30
0.0
 10
1.258254374084813
 20
-0.8583787469829556
 30
0.0
 10
1.231357230783492
 20
-0.8524617079374572
 30
0.0
 10
1.199385223787383
 20
-0.8442206010902518
 30
0.0
 10
1.167710195337071
 20
-0.8348672466824298
 30
0.0
 10
1.136326473355512
 20
-0.8244228881688648
 30
0.0
 10
1.105230236446677
 20
-0.8129018364920767
 30
0.0
 10
1.07955464736025
 20
-0.8024098206165249
 30
0.0
 10
1.06170668903198
 20
-0.7945974255385494
 30
0.0
 10
1.051543676181433
 20
-0.7899990518315455
 30
0.0
 10
1.043939358629591
 20
-0.7864830540140413
 30
0.0
 10
1.037617438496092
 20
-0.7834969015833231
 30
0.0
 10
1.032568892454922
 20
-0.7810741625343692
 30
0.0
 10
1.027526503611826
 20
-0.7786289005323734
 30
0.0
 10
1.021249954852941
 20
-0.7755373566087609
 30
0.0
 10
1.011259849877028
 20
-0.7705148244829538
 30
0.0
 10
0.9988717518845777
 20
-0.7640954596905978
 30
0.0
 10
0.9841637257215662
 20
-0.7561674856174843
 30
0.0
 10
0.9696128820620852
 20
-0.748015778485186
 30
0.0
 10
0.9504209166805355
 20
-0.7368490198895891
 30
0.0
 10
0.9268231330876459
 20
-0.7223322139960942
 30
0.0
 10
0.8991381780541546
 20
-0.7040116721481251
 30
0.0
 10
0.8720972752596686
 20
-0.6847741482491079
 30
0.0
 10
0.8501155996993227
 20
-0.6679563727904512
 30
0.0
 10
0.8328756869159597
 20
-0.6540103424407897
 30
0.0
 10
0.8201219695123311
 20
-0.643299927218174
 30
0.0
 10
0.8075476142451378
 20
-0.6323341397103326
 30
0.0
 10
0.797220993107397
 20
-0.6229795638088264
 30
0.0
 10
0.7890523135004316
 20
-0.6153640254388447
 30
0.0
 10
0.7829724623857467
 20
-0.6095859728306737
 30
0.0
 10
0.777945017699937
 20
-0.6047151597422811
 30
0.0
 10
0.7739467954776159
 20
-0.6007849486873895
 30
0.0
 10
0.7709597236264929
 20
-0.5978201521439944
 30
0.0
 10
0.7679855401368246
 20
-0.594839409830997
 30
0.0
 10
0.764043700738305
 20
-0.5908504251430299
 30
0.0
 10
0.7591581528593152
 20
-0.5858341201559226
 30
0.0
 10
0.7533628146257776
 20
-0.5797674910854186
 30
0.0
 10
0.7457246959334208
 20
-0.5716159322114216
 30
0.0
 10
0.7363431433797202
 20
-0.5613096623261932
 30
0.0
 10
0.7253477244988834
 20
-0.5487574796923782
 30
0.0
 10
0.7146110819874595
 20
-0.5360232382969919
 30
0.0
 10
0.700635108961654
 20
-0.5188053567033766
 30
0.0
 10
0.6837907787338513
 20
-0.4968428370865341
 30
0.0
 10
0.6645380182066855
 20
-0.4698120960486837
 30
0.0
 10
0.6461986270534239
 20
-0.4421387509183037
 30
0.0
 10
0.6316328533559645
 20
-0.4185731470636733
 30
0.0
 10
0.6203811963765563
 20
-0.3994385630063716
 30
0.0
 10
0.6121351470636791
 20
-0.3849520631140027
 30
0.0
 10
0.6040736769518827
 20
-0.3703356707703357
 30
0.0
 10
0.5961890025142773
 20
-0.3555950099705633
 30
0.0
 10
0.5904031739950494
 20
-0.3444493600435096
 30
0.0
 10
0.5865974748223988
 20
-0.3369831876656527
 30
0.0
 10
0.5840734618647769
 20
-0.331995299822664
 30
0.0
 10
0.5796964742727894
 20
-0.3232510582694725
 30
0.0
 10
0.5735600692402023
 20
-0.3107255430789337
 30
0.0
 10
0.5639773028229109
 20
-0.2906120978852615
 30
0.0
 10
0.5524220198305495
 20
-0.2653418171177727
 30
0.0
 10
0.5391777903600907
 20
-0.2348279920023509
 30
0.0
 10
0.5265085881784186
 20
-0.2041391859900085
 30
0.0
 10
0.5143731663778779
 20
-0.173287905796959
 30
0.0
 10
0.5027354178484369
 20
-0.1422851538727384
 30
0.0
 10
0.4915635452537107
 20
-0.1111406048158536
 30
0.0
 10
0.4808295286262863
 20
-0.0798627878407107
 30
0.0
 10
0.4705084094458699
 20
-0.0484592992074812
 30
0.0
 10
0.4622336546777167
 20
-0.022190448167888
 30
0.0
 10
0.4557988723050485
 20
-0.0011190532490864
 30
0.0
 10
0.4494890051508703
 20
0.0199903615126311
 30
0.0
 10
0.4418503050839305
 20
0.0464528054582987
 30
0.0
 10
0.4331226617321743
 20
0.0783412926452681
 30
0.0
 10
0.4248769584886763
 20
0.1103764655977181
 30
0.0
 10
0.4171576234084389
 20
0.1425718467777386
 30
0.0
 10
0.410010717721132
 20
0.1749414552127519
 30
0.0
 10
0.4034839726099999
 20
0.2074998201324961
 30
0.0
 10
0.3976269430219637
 20
0.2402620186664124
 30
0.0
 10
0.3933470942176817
 20
0.2677467909578834
 30
0.0
 10
0.3906902378833534
 20
0.2870892956179985
 30
0.0
 10
0.3892723786968675
 20
0.2981727393238453
 30
0.0
 10
0.388260052502073
 20
0.306500745625207
 30
0.0
 10
0.3874596915235843
 20
0.3134542946999712
 30
0.0
 10
0.3868459233240822
 20
0.3190243495117216
 30
0.0
 10
0.3862507429368575
 20
0.324591990533925
 30
0.0
 10
0.385541504798064
 20
0.3315497206591088
 30
0.0
 10
0.3844815462540002
 20
0.3426770362677208
 30
0.0
 10
0.3832990898674732
 20
0.3565770818318659
 30
0.0
 10
0.3821069525072313
 20
0.3732424919347007
 30
0.0
 10
0.3811330733389378
 20
0.3898938517632717
 30
0.0
 10
0.3801159629675406
 20
0.4120775351674794
 30
0.0
 10
0.3793530669071802
 20
0.4397743852382708
 30
0.0
 10
0.3791893318739779
 20
0.4729621803569176
 30
0.0
 10
0.3797136418325556
 20
0.5061056541328398
 30
0.0
 10
0.3808604417941202
 20
0.5392090292307679
 30
0.0
 10
0.3825621476663236
 20
0.5722766592261282
 30
0.0
 10
0.3847490119913279
 20
0.6053130369963761
 30
0.0
 10
0.3869157983724653
 20
0.6328211667894207
 30
0.0
 10
0.3888185970131065
 20
0.6548167604263585
 30
0.0
 10
0.3903211344696407
 20
0.6713085961696177
 30
0.0
 10
0.3918883043492818
 20
0.6877962685159726
 30
0.0
 10
0.3940579253888318
 20
0.7097746743833048
 30
0.0
 10
0.3969332945141623
 20
0.7372371597166537
 30
0.0
 10
0.4006719698053429
 20
0.770173575296757
 30
0.0
 10
0.4047223613632327
 20
0.8030899108087798
 30
0.0
 10
0.4091026976435361
 20
0.8359849938760483
 30
0.0
 10
0.4138263207551081
 20
0.8688579581929305
 30
0.0
 10
0.4180558919599137
 20
0.8962332238082956
 30
0.0
 10
0.4216174835610886
 20
0.9181219367293617
 30
0.0
 10
0.4243777542920088
 20
0.9345328362211017
 30
0.0
 10
0.4272269282592476
 20
0.9509376163595836
 30
0.0
 10
0.4301650640368891
 20
0.967338133115449
 30
0.0
 10
0.4331865779893161
 20
0.9837071359741529
 30
0.0
 10
0.4373258516984093
 20
1.005495481126022
 30
0.0
 10
0.442704285037083
 20
1.032660364999952
 30
0.0
 10
0.4494744780933094
 20
1.065149782215318
 30
0.0
 10
0.4589115906037194
 20
1.108328028748761
 30
0.0
 10
0.4714697900344273
 20
1.162039126308966
 30
0.0
 10
0.4850773130876154
 20
1.215389710059762
 30
0.0
 10
0.4966543284167512
 20
1.257832778382406
 30
0.0
 10
0.5057067662614008
 20
1.289538072827863
 30
0.0
 10
0.5151583391781345
 20
1.321106239818478
 30
0.0
 10
0.5250468648398622
 20
1.352524286590675
 30
0.0
 10
0.5354200941190682
 20
1.383775807792576
 30
0.0
 10
0.546338908606571
 20
1.414839886839552
 30
0.0
 10
0.5559573495262504
 20
1.44054816354936
 30
0.0
 10
0.5640151222261413
 20
1.460990065176774
 30
0.0
 10
0.5702558435250855
 20
1.476253675162441
 30
0.0
 10
0.5767127498037178
 20
1.491443012248055
 30
0.0
 10
0.5856342138747417
 20
1.511588182772296
 30
0.0
 10
0.5973828322274696
 20
1.536564611250568
 30
0.0
 10
0.6124625717334236
 20
1.566199160010847
 30
0.0
 10
0.6285128176086306
 20
1.595500261296947
 30
0.0
 10
0.6426470320565603
 20
1.619657137213179
 30
0.0
 10
0.6543465694854348
 20
1.638847774744435
 30
0.0
 10
0.6618030696808382
 20
1.650792647010745
 30
0.0
 10
0.6678411631168164
 20
1.660322823409003
 30
0.0
 10
0.6724035475461054
 20
1.667460694983508
 30
0.0
 10
0.6769908854770669
 20
1.674582466535695
 30
0.0
 10
0.6831330167097235
 20
1.684055633468229
 30
0.0
 10
0.6908515784541704
 20
1.695864137729035
 30
0.0
 10
0.7001501303197358
 20
1.710004428774677
 30
0.0
 10
0.7079051572002611
 20
1.721782953503499
 30
0.0
 10
0.7140985216581459
 20
1.731214484916016
 30
0.0
 10
0.7202811842001684
 20
1.74065477715845
 30
0.0
 10
0.7279958014631752
 20
1.752466363512237
 30
0.0
 10
0.737246282910047
 20
1.766646045062666
 30
0.0
 10
0.7465032019411904
 20
1.780820457704259
 30
0.0
 10
0.7588705412634388
 20
1.799699392910898
 30
0.0
 10
0.7744047142362479
 20
1.823236679184548
 30
0.0
 10
0.7932496358806533
 20
1.851314529398828
 30
0.0
 10
0.8123782736238161
 20
1.879160172391704
 30
0.0
 10
0.8318714325087825
 20
1.906707473339686
 30
0.0
 10
0.8518145444115812
 20
1.933886510590024
 30
0.0
 10
0.86888706841797
 20
1.956164734658703
 30
0.0
 10
0.8828699963177056
 20
1.973721392645135
 30
0.0
 10
0.8970911236089041
 20
1.991083096524858
 30
0.0
 10
0.9153384229067375
 20
2.012399826669433
 30
0.0
 10
0.938016859714671
 20
2.037340139378421
 30
0.0
 10
0.9614973906911415
 20
2.061623978735841
 30
0.0
 10
0.9857863305551151
 20
2.085246176478563
 30
0.0
 10
1.006694233367961
 20
2.104385337718671
 30
0.0
 10
1.023809015529905
 20
2.119378732072734
 30
0.0
 10
1.036834824413982
 20
2.130468499596001
 30
0.0
 10
1.050045201421475
 20
2.141407208260615
 30
0.0
 10
1.061202597981519
 20
2.150401052842052
 30
0.0
 10
1.070214346209735
 20
2.157525885638917
 30
0.0
 10
1.077015125065259
 20
2.162835146980808
 30
0.0
 10
1.083856981751217
 20
2.168110844837409
 30
0.0
 10
1.090724356504357
 20
2.173342781556001
 30
0.0
 10
1.097618818902331
 20
2.17853415599911
 30
0.0
 10
1.106845527939644
 20
2.18540303113978
 30
0.0
 10
1.123079576512534
 20
2.197289195268975
 30
0.0
 10
1.146507518986679
 20
2.213904917081762
 30
0.0
 10
1.174971005943806
 20
2.233304468925198
 30
0.0
 10
1.203768610694063
 20
2.252189061736178
 30
0.0
 10
1.232894865145559
 20
2.270567137697019
 30
0.0
 10
1.262354575731577
 20
2.288431285126629
 30
0.0
 10
1.292163876926604
 20
2.305756638380877
 30
0.0
 10
1.312289848259225
 20
2.31691678628258
 30
0.0
 10
1.322424406318311
 20
2.322386551771177
 30
0.0
  0
SPLINE
  5
10000073
102
{ACAD_XDICTIONARY
360
10000074
102
}
330
1F
100
AcDbEntity
  8
MODELSKETCH_VISIBLE
100
AcDbSpline
210
0.0
220
0.0
230
1.0
 70
     8
 71
     3
 72
    72
 73
    68
 74
     0
 42
0.000000001
 43
0.00000001
 40
0.0
 40
0.0
 40
0.0
 40
0.0
 40
0.0004466176992872
 40
0.0006699265489309
 40
0.0008932353985745
 40
0.0011165442482181
 40
0.0013398530978617
 40
0.0015631619475054
 40
0.0016748163723272
 40
0.001786470797149
 40
0.0018981252219708
 40
0.0020097796467926
 40
0.0021214340716144
 40
0.0022330884964362
 40
0.0024563973460799
 40
0.0026797061957235
 40
0.0029030150453671
 40
0.0031263238950107
 40
0.003572941594298
 40
0.0040195592935852
 40
0.0042428681432289
 40
0.0044661769928725
 40
0.0046894858425161
 40
0.0049127946921597
 40
0.0051361035418033
 40
0.005359412391447
 40
0.0058060300907342
 40
0.0062526477900215
 40
0.0066992654893087
 40
0.007145883188596
 40
0.0075925008878832
 40
0.0080391185871705
 40
0.0084857362864577
 40
0.0087090451361013
 40
0.008932353985745
 40
0.0091556628353886
 40
0.0093789716850322
 40
0.0096022805346758
 40
0.0098255893843194
 40
0.0102722070836067
 40
0.0107188247828939
 40
0.0111654424821812
 40
0.0116120601814684
 40
0.0120586778807557
 40
0.0125052955800429
 40
0.0129519132793302
 40
0.0133985309786174
 40
0.0138451486779047
 40
0.0142917663771919
 40
0.0147383840764792
 40
0.0151850017757664
 40
0.0156316194750537
 40
0.0160782371743409
 40
0.0165248548736282
 40
0.0169714725729154
 40
0.0174180902722027
 40
0.0178647079714899
 40
0.0183113256707772
 40
0.0187579433700644
 40
0.0196511787686389
 40
0.0205444141672134
 40
0.0214376495657879
 40
0.0223308849643624
 40
0.0232241203629369
 40
0.0250105911600859
 40
0.0267970619572349
 40
0.0285835327543838
 40
0.0285835327543838
 40
0.0285835327543838
 40
0.0285835327543838
 10
-1.029012088982824
 20
2.629999450296884
 30
0.0
 10
-1.024008004380818
 20
2.626848395482222
 30
0.0
 10
-1.016504746255008
 20
2.622118374079469
 30
0.0
 10
-1.006563617346252
 20
2.615735894425785
 30
0.0
 10
-0.9991579246725183
 20
2.61088890847613
 30
0.0
 10
-0.991823661231303
 20
2.60595629090541
 30
0.0
 10
-0.984586282220068
 20
2.600907525218578
 30
0.0
 10
-0.9786609264999934
 20
2.596573391941602
 30
0.0
 10
-0.974002047659324
 20
2.593008493552079
 30
0.0
 10
-0.9705534371871786
 20
2.59028021458901
 30
0.0
 10
-0.9671564149220895
 20
2.587490090053185
 30
0.0
 10
-0.9638134141165065
 20
2.584635202884682
 30
0.0
 10
-0.9605127175852789
 20
2.5817296000153
 30
0.0
 10
-0.956158008792627
 20
2.577800052960738
 30
0.0
 10
-0.9507838026672752
 20
2.572805184133808
 30
0.0
 10
-0.9444042512102413
 20
2.566728027668506
 30
0.0
 10
-0.9380646234014159
 20
2.560603009472071
 30
0.0
 10
-0.9296353429468847
 20
2.552408078119074
 30
0.0
 10
-0.9190980512984407
 20
2.542165242411809
 30
0.0
 10
-0.908477207919579
 20
2.532022571177808
 30
0.0
 10
-0.8998991615625094
 20
2.524005985059751
 30
0.0
 10
-0.8934192638806956
 20
2.518049126909021
 30
0.0
 10
-0.8868882010470526
 20
2.512153606733733
 30
0.0
 10
-0.8803015690648387
 20
2.506324706199548
 30
0.0
 10
-0.8736659634680588
 20
2.500554510847845
 30
0.0
 10
-0.8647625961541995
 20
2.492927953090907
 30
0.0
 10
-0.8535450549275124
 20
2.483500444555034
 30
0.0
 10
-0.8399938670700633
 20
2.472296442604429
 30
0.0
 10
-0.8263982904070397
 20
2.461142195779585
 30
0.0
 10
-0.81280649080148
 20
2.449982564872008
 30
0.0
 10
-0.7992732153076025
 20
2.438767036858452
 30
0.0
 10
-0.7858540028858545
 20
2.42744152807991
 30
0.0
 10
-0.7748169418408962
 20
2.41786338871539
 30
0.0
 10
-0.7661093825394584
 20
2.410083285697213
 30
0.0
 10
-0.7596499752046716
 20
2.4041795760305
 30
0.0
 10
-0.7532722032857478
 20
2.398197242347471
 30
0.0
 10
-0.7469909673164934
 20
2.392121934083697
 30
0.0
 10
-0.7408069488199392
 20
2.385952994784756
 30
0.0
 10
-0.7326801582354562
 20
2.377613549056379
 30
0.0
 10
-0.7227297770218964
 20
2.366988812151981
 30
0.0
 10
-0.7110783124386865
 20
2.353960796279003
 30
0.0
 10
-0.6996769597833007
 20
2.340691895226263
 30
0.0
 10
-0.6884891306646409
 20
2.327217348261681
 30
0.0
 10
-0.6774791618087429
 20
2.313571500541287
 30
0.0
 10
-0.6666101938533887
 20
2.29978986083816
 30
0.0
 10
-0.6558434447823113
 20
2.28590974615909
 30
0.0
 10
-0.6451311014907006
 20
2.271977333746013
 30
0.0
 10
-0.6344557453308667
 20
2.258008921907193
 30
0.0
 10
-0.6238022128715893
 20
2.244023656649315
 30
0.0
 10
-0.6131452716868127
 20
2.230040971942147
 30
0.0
 10
-0.6024578123075415
 20
2.216082537086362
 30
0.0
 10
-0.5917145973328848
 20
2.202168336018131
 30
0.0
 10
-0.5808901972168632
 20
2.18831855869441
 30
0.0
 10
-0.5699909732936087
 20
2.174528154290341
 30
0.0
 10
-0.559033783158263
 20
2.16078374692081
 30
0.0
 10
-0.5480314041867527
 20
2.147075197371827
 30
0.0
 10
-0.5369966738391818
 20
2.133392319027986
 30
0.0
 10
-0.5259414221683637
 20
2.1197257245893
 30
0.0
 10
-0.5111907434122133
 20
2.10151180611765
 30
0.0
 10
-0.4927540095070246
 20
2.078743126871454
 30
0.0
 10
-0.4706292366429801
 20
2.051421261027322
 30
0.0
 10
-0.4485046492262072
 20
2.024099248028585
 30
0.0
 10
-0.4263800121981704
 20
1.996777274396975
 30
0.0
 10
-0.3968805134911653
 20
1.960347962469627
 30
0.0
 10
-0.3600061341577241
 20
1.9148113272816
 30
0.0
 10
-0.3157568815205326
 20
1.860167363022234
 30
0.0
 10
-0.2862573792742272
 20
1.82373805390337
 30
0.0
 10
-0.2715076282120967
 20
1.805523399295515
 30
0.0
  0
ARC
  5
10000077
102
{ACAD_XDICTIONARY
360
10000078
102
}
330
1F
100
AcDbEntity
  8
MODELSKETCH_VISIBLE
100
AcDbCircle
 10
-0.0197273693985194
 20
-0.060240820904181
 30
0.0
 40
3.789808568747103
100
AcDbArc
 50
270.2982472838365
 51
45.08314415150021
  0
ARC
  5
1000007B
102
{ACAD_XDICTIONARY
360
1000007C
102
}
330
1F
100
AcDbEntity
  8
MODELSKETCH_VISIBLE
100
AcDbCircle
 10
0.0197273693985196
 20
-0.060240820904181
 30
0.0
 40
3.789808568747103
100
AcDbArc
 50
134.9168558484999
 51
269.7017527161635
  0
SPLINE
  5
1000007F
102
{ACAD_XDICTIONARY
360
10000080
102
}
330
1F
100
AcDbEntity
  8
MODELSKETCH_VISIBLE
100
AcDbSpline
210
0.0
220
0.0
230
1.0
 70
     8
 71
     3
 72
   343
 73
   339
 74
     0
 42
0.000000001
 43
0.00000001
 40
0.0
 40
0.0
 40
0.0
 40
0.0
 40
0.0016340518222633
 40
0.0032681036445265
 40
0.0049021554667898
 40
0.006536207289053
 40
0.0081702591113163
 40
0.0098043109335795
 40
0.0114383627558428
 40
0.0122553886669744
 40
0.013072414578106
 40
0.0138894404892376
 40
0.0147064664003693
 40
0.0163405182226325
 40
0.0179745700448958
 40
0.019608621867159
 40
0.0212426736894223
 40
0.0228767255116855
 40
0.0245107773339488
 40
0.0253278032450804
 40
0.026144829156212
 40
0.0269618550673436
 40
0.0277788809784753
 40
0.0285959068896069
 40
0.0294129328007385
 40
0.0298214457563043
 40
0.0302299587118701
 40
0.0306384716674359
 40
0.0310469846230018
 40
0.0314554975785676
 40
0.0318640105341334
 40
0.032681036445265
 40
0.0334980623563966
 40
0.0343150882675283
 40
0.0351321141786599
 40
0.0359491400897915
 40
0.0375831919120548
 40
0.039217243734318
 40
0.0400342696454496
 40
0.0408512955565813
 40
0.0416683214677129
 40
0.0424853473788445
 40
0.0433023732899761
 40
0.0441193992011078
 40
0.0449364251122394
 40
0.045753451023371
 40
0.0465704769345026
 40
0.0473875028456343
 40
0.0482045287567659
 40
0.0490215546678975
 40
0.0498385805790291
 40
0.050247093534595
 40
0.0506556064901608
 40
0.0508598629679437
 40
0.0510641194457266
 40
0.0514726324012924
 40
0.0518811453568582
 40
0.052289658312424
 40
0.0526981712679898
 40
0.0531066842235556
 40
0.0539237101346873
 40
0.0547407360458189
 40
0.0555577619569505
 40
0.0563747878680821
 40
0.0571918137792138
 40
0.058825865601477
 40
0.0604599174237403
 40
0.0620939692460035
 40
0.0629109951571351
 40
0.0637280210682668
 40
0.0645450469793984
 40
0.0649535599349642
 40
0.06536207289053
 40
0.0661790988016616
 40
0.0669961247127933
 40
0.0678131506239249
 40
0.0686301765350565
 40
0.0690386894906223
 40
0.0694472024461881
 40
0.0698557154017539
 40
0.0702642283573198
 40
0.0704684848351027
 40
0.0706727413128856
 40
0.0708769977906685
 40
0.0710812542684514
 40
0.0712855107462343
 40
0.0714897672240172
 40
0.071898280179583
 40
0.0723067931351488
 40
0.0727153060907147
 40
0.0735323320018463
 40
0.0743493579129779
 40
0.0751663838241095
 40
0.0759834097352411
 40
0.0768004356463728
 40
0.0776174615575044
 40
0.078434487468636
 40
0.0792515133797676
 40
0.0800685392908993
 40
0.0817025911131625
 40
0.0833366429354258
 40
0.0841536688465574
 40
0.084970694757689
 40
0.0857877206688206
 40
0.0866047465799523
 40
0.0874217724910839
 40
0.0882387984022155
 40
0.0886473113577813
 40
0.0890558243133471
 40
0.08926008079113
 40
0.089464337268913
 40
0.0895664655078044
 40
0.0896685937466959
 40
0.0898728502244788
 40
0.0900771067022617
 40
0.0902813631800446
 40
0.0906898761356104
 40
0.091506902046742
 40
0.0923239279578737
 40
0.0931409538690053
 40
0.0939579797801369
 40
0.0947750056912685
 40
0.0955920316024002
 40
0.0964090575135318
 40
0.0972260834246634
 40
0.098043109335795
 40
0.0988601352469266
 40
0.0992686482024925
 40
0.0994729046802754
 40
0.0996771611580583
 40
0.0998814176358412
 40
0.0999835458747326
 40
0.1000856741136241
 40
0.100289930591407
 40
0.1004941870691899
 40
0.1009027000247557
 40
0.1013112129803215
 40
0.1017197259358874
 40
0.1021282388914532
 40
0.1029452648025848
 40
0.1037622907137164
 40
0.104579316624848
 40
0.1053963425359797
 40
0.1062133684471113
 40
0.1070303943582429
 40
0.1078474202693745
 40
0.1086644461805061
 40
0.109072959136072
 40
0.1094814720916378
 40
0.1098899850472036
 40
0.1100942415249865
 40
0.1102984980027694
 40
0.1104006262416609
 40
0.1105027544805523
 40
0.1106048827194438
 40
0.1107070109583352
 40
0.1109112674361181
 40
0.111115523913901
 40
0.1115240368694669
 40
0.1119325498250327
 40
0.1123410627805985
 40
0.1127495757361643
 40
0.1131580886917301
 40
0.1135666016472959
 40
0.1143836275584275
 40
0.1152006534695592
 40
0.1160176793806908
 40
0.1168347052918224
 40
0.117651731202954
 40
0.1184687571140857
 40
0.1188772700696515
 40
0.1190815265474344
 40
0.1192857830252173
 40
0.1194900395030002
 40
0.1195921677418916
 40
0.1196942959807831
 40
0.119898552458566
 40
0.1201028089363489
 40
0.1205113218919147
 40
0.1209198348474805
 40
0.1213283478030464
 40
0.1217368607586122
 40
0.1225538866697438
 40
0.1233709125808754
 40
0.124187938492007
 40
0.1250049644031387
 40
0.1254134773587045
 40
0.1258219903142703
 40
0.1262305032698361
 40
0.1266390162254019
 40
0.1268432727031848
 40
0.1270475291809677
 40
0.1272517856587506
 40
0.1273539138976421
 40
0.1274560421365335
 40
0.127558170375425
 40
0.1276602986143164
 40
0.1278645550920993
 40
0.1280688115698822
 40
0.1282730680476651
 40
0.128681581003231
 40
0.1290900939587968
 40
0.1294986069143626
 40
0.1299071198699284
 40
0.13072414578106
 40
0.1315411716921916
 40
0.1323581976033233
 40
0.1331752235144549
 40
0.1335837364700207
 40
0.1339922494255865
 40
0.1344007623811523
 40
0.1348092753367182
 40
0.135217788292284
 40
0.1353199165311754
 40
0.1354220447700669
 40
0.1356263012478498
 40
0.1360348142034156
 40
0.1364433271589814
 40
0.137260353070113
 40
0.1380773789812447
 40
0.1388944048923763
 40
0.1397114308035079
 40
0.1405284567146395
 40
0.1413454826257712
 40
0.1421625085369028
 40
0.1429795344480344
 40
0.143796560359166
 40
0.1442050733147319
 40
0.1446135862702977
 40
0.1454306121814293
 40
0.1462476380925609
 40
0.1470646640036926
 40
0.1478816899148242
 40
0.1486987158259558
 40
0.1495157417370874
 40
0.150332767648219
 40
0.1511497935593507
 40
0.1515583065149165
 40
0.1517625629926994
 40
0.1519668194704823
 40
0.1521710759482652
 40
0.1522732041871567
 40
0.1523753324260481
 40
0.152579588903831
 40
0.1527838453816139
 40
0.1531923583371797
 40
0.1536008712927455
 40
0.1540093842483113
 40
0.1544178972038772
 40
0.1552349231150088
 40
0.1560519490261404
 40
0.156868974937272
 40
0.1576860008484037
 40
0.1585030267595353
 40
0.1593200526706669
 40
0.1601370785817985
 40
0.1605455915373644
 40
0.1609541044929302
 40
0.161362617448496
 40
0.1617711304040618
 40
0.1625881563151934
 40
0.1634051822263251
 40
0.1642222081374567
 40
0.1650392340485883
 40
0.1658562599597199
 40
0.1666732858708516
 40
0.1670817988264174
 40
0.1674903117819832
 40
0.167898824737549
 40
0.1683073376931148
 40
0.1687158506486806
 40
0.1691243636042464
 40
0.169941389515378
 40
0.1707584154265097
 40
0.1715754413376413
 40
0.1732094931599045
 40
0.1748435449821678
 40
0.1756605708932994
 40
0.176477596804431
 40
0.1772946227155627
 40
0.1781116486266943
 40
0.1789286745378259
 40
0.1797457004489575
 40
0.1805627263600892
 40
0.180971239315655
 40
0.1813797522712208
 40
0.1817882652267866
 40
0.1821967781823524
 40
0.1830138040934841
 40
0.1838308300046157
 40
0.1846478559157473
 40
0.1854648818268789
 40
0.1858733947824447
 40
0.1862819077380106
 40
0.1864861642157935
 40
0.1866904206935764
 40
0.1868946771713593
 40
0.1870989336491422
 40
0.187507446604708
 40
0.1879159595602738
 40
0.1883244725158396
 40
0.1885287289936225
 40
0.1887329854714054
 40
0.1891414984269713
 40
0.189550011382537
 40
0.1899585243381028
 40
0.1903670372936687
 40
0.1911840632048003
 40
0.1920010891159319
 40
0.1928181150270635
 40
0.1936351409381952
 40
0.1944521668493268
 40
0.1952691927604584
 40
0.1956777057160242
 40
0.19608621867159
 40
0.1969032445827217
 40
0.1977202704938533
 40
0.1985372964049849
 40
0.1993543223161166
 40
0.2001713482272482
 40
0.200579861182814
 40
0.2009883741383798
 40
0.2013968870939456
 40
0.2018054000495114
 40
0.2020096565272943
 40
0.2022139130050772
 40
0.2024181694828601
 40
0.2026224259606431
 40
0.202826682438426
 40
0.2030309389162089
 40
0.2034394518717747
 40
0.2042564777829063
 40
0.2050735036940379
 40
0.2058905296051696
 40
0.2067075555163012
 40
0.2075245814274328
 40
0.2083416073385644
 40
0.2091586332496961
 40
0.2091586332496961
 40
0.2091586332496961
 40
0.2091586332496961
 10
-2.656180386898177
 20
2.623444456385268
 30
0.0
 10
-2.666140889592839
 20
2.604118470557551
 30
0.0
 10
-2.68556259854124
 20
2.56530641821833
 30
0.0
 10
-2.713409081729193
 20
2.506676006300938
 30
0.0
 10
-2.740134074359992
 20
2.447686030484158
 30
0.0
 10
-2.76586854257929
 20
2.388378480152309
 30
0.0
 10
-2.790718146209306
 20
2.328787231165916
 30
0.0
 10
-2.814769284845775
 20
2.268939984315984
 30
0.0
 10
-2.834205885187724
 20
2.218872982558709
 30
0.0
 10
-2.849421329977261
 20
2.178712349321346
 30
0.0
 10
-2.860671744646191
 20
2.14854020162076
 30
0.0
 10
-2.871769393333091
 20
2.118319075235649
 30
0.0
 10
-2.886316703604419
 20
2.07794422971522
 30
0.0
 10
-2.903935249253438
 20
2.027294336884551
 30
0.0
 10
-2.923888804735685
 20
1.966133353625751
 30
0.0
 10
-2.942421372876654
 20
1.904516784053252
 30
0.0
 10
-2.959373730466866
 20
1.84239357921197
 30
0.0
 10
-2.974665931864529
 20
1.779738107539281
 30
0.0
 10
-2.98601941262258
 20
1.72707955652637
 30
0.0
 10
-2.994294499271384
 20
1.684693757703874
 30
0.0
 10
-3.000106545284874
 20
1.652778000872368
 30
0.0
 10
-3.005542625388197
 20
1.620741705242738
 30
0.0
 10
-3.010631890921773
 20
1.588594214375068
 30
0.0
 10
-3.015394991364332
 20
1.556342158921934
 30
0.0
 10
-3.019106660777061
 20
1.529382837418775
 30
0.0
 10
-3.021927948223099
 20
1.507767970016274
 30
0.0
 10
-3.023971207029415
 20
1.491533356129158
 30
0.0
 10
-3.02594284606568
 20
1.475276362645385
 30
0.0
 10
-3.027844113951313
 20
1.4589946295338
 30
0.0
 10
-3.029672659334548
 20
1.442716845110692
 30
0.0
 10
-3.032015544823715
 20
1.421014484971312
 30
0.0
 10
-3.034767567314729
 20
1.393890811241169
 30
0.0
 10
-3.037792071579764
 20
1.361348581004088
 30
0.0
 10
-3.040540572157194
 20
1.328812635463174
 30
0.0
 10
-3.04301265317847
 20
1.296282943882572
 30
0.0
 10
-3.045936093892919
 20
1.252918467717586
 30
0.0
 10
-3.048879246330799
 20
1.198728982949648
 30
0.0
 10
-3.050810443831987
 20
1.144562424945227
 30
0.0
 10
-3.051678226402877
 20
1.101244520242968
 30
0.0
 10
-3.0519647018008
 20
1.068764346536142
 30
0.0
 10
-3.051855371467843
 20
1.03629314002142
 30
0.0
 10
-3.051310370184352
 20
1.003831803870957
 30
0.0
 10
-3.050276220308759
 20
0.971381549647877
 30
0.0
 10
-3.048693639638773
 20
0.9389437204271854
 30
0.0
 10
-3.046514105697086
 20
0.906519415496783
 30
0.0
 10
-3.043689685835731
 20
0.87410972085391
 30
0.0
 10
-3.040178566680771
 20
0.841715583591005
 30
0.0
 10
-3.035947793727328
 20
0.8093377511029264
 30
0.0
 10
-3.03097705997233
 20
0.7769766804981187
 30
0.0
 10
-3.025262130684295
 20
0.7446324787553422
 30
0.0
 10
-3.019891437283383
 20
0.7176927305160237
 30
0.0
 10
-3.015247446287002
 20
0.6961488639116465
 30
0.0
 10
-3.012205492931848
 20
0.6826869687697615
 30
0.0
 10
-3.009691988098103
 20
0.6719195799126839
 30
0.0
 10
-3.00712622053709
 20
0.6611522210295765
 30
0.0
 10
-3.003833295014923
 20
0.6477322129665839
 30
0.0
 10
-2.999753168815614
 20
0.6316816278250673
 30
0.0
 10
-2.995554903518512
 20
0.6156815340421093
 30
0.0
 10
-2.991248649722685
 20
0.5997272148618635
 30
0.0
 10
-2.985377600243206
 20
0.5785097630572892
 30
0.0
 10
-2.977817469751363
 20
0.552081927101896
 30
0.0
 10
-2.968396514885935
 20
0.5205166551773932
 30
0.0
 10
-2.95863054652819
 20
0.4890979015786848
 30
0.0
 10
-2.948519302663468
 20
0.4578257790730152
 30
0.0
 10
-2.934572954846472
 20
0.4163269587766402
 30
0.0
 10
-2.916255436787628
 20
0.3648290961612167
 30
0.0
 10
-2.892782280990291
 20
0.3036653369625344
 30
0.0
 10
-2.871878174990836
 20
0.2532659403242723
 30
0.0
 10
-2.854264291654649
 20
0.2133246402716735
 30
0.0
 10
-2.840581392992384
 20
0.1835693195260221
 30
0.0
 10
-2.828759879211376
 20
0.1589512005391982
 30
0.0
 10
-2.819033239955086
 20
0.1393711254876145
 30
0.0
 10
-2.809120371532066
 20
0.1198701377928677
 30
0.0
 10
-2.796379943956286
 20
0.0956422609257617
 30
0.0
 10
-2.780532463435117
 20
0.066806189613225
 30
0.0
 10
-2.764127926987583
 20
0.0382066875713484
 30
0.0
 10
-2.749996402929251
 20
0.0145695780081907
 30
0.0
 10
-2.738417483341982
 20
-0.0042238746049162
 30
0.0
 10
-2.729597400406283
 20
-0.0182612549690314
 30
0.0
 10
-2.720642489794475
 20
-0.0322413704610746
 30
0.0
 10
-2.713068702721462
 20
-0.0438441944283152
 30
0.0
 10
-2.706943565403855
 20
-0.0530983332801842
 30
0.0
 10
-2.702316764243991
 20
-0.0600250704138301
 30
0.0
 10
-2.697657528557051
 20
-0.0669375548873179
 30
0.0
 10
-2.69296485012845
 20
-0.0738376254023768
 30
0.0
 10
-2.688247108882077
 20
-0.0807134775170052
 30
0.0
 10
-2.681923383660898
 20
-0.0898499182539506
 30
0.0
 10
-2.673956976996952
 20
-0.1012120760049695
 30
0.0
 10
-2.664300771355031
 20
-0.1147555246699725
 30
0.0
 10
-2.651300355625489
 20
-0.132694925492597
 30
0.0
 10
-2.634820677463796
 20
-0.1549027214873568
 30
0.0
 10
-2.61469856109468
 20
-0.181224776075196
 30
0.0
 10
-2.594251172254478
 20
-0.2072395853948858
 30
0.0
 10
-2.573499252077316
 20
-0.2329667406052652
 30
0.0
 10
-2.552468225966622
 20
-0.2584302581475539
 30
0.0
 10
-2.531156204031819
 20
-0.2836283528351436
 30
0.0
 10
-2.509551286389844
 20
-0.3085497842938918
 30
0.0
 10
-2.48764385403579
 20
-0.3331854666079451
 30
0.0
 10
-2.458016575043049
 20
-0.365638804720004
 30
0.0
 10
-2.420173622324785
 20
-0.4054414506085173
 30
0.0
 10
-2.381178682832096
 20
-0.444155953614717
 30
0.0
 10
-2.349244385013769
 20
-0.4744301294087934
 30
0.0
 10
-2.324911999688479
 20
-0.4967752513337413
 30
0.0
 10
-2.300185083165331
 20
-0.5187477069413533
 30
0.0
 10
-2.275050239600914
 20
-0.5403348442293983
 30
0.0
 10
-2.249493392398106
 20
-0.5615233613790692
 30
0.0
 10
-2.227832435850498
 20
-0.5788370383252837
 30
0.0
 10
-2.210276896940425
 20
-0.5924737447401781
 30
0.0
 10
-2.199208032498016
 20
-0.600905457157346
 30
0.0
 10
-2.190293819446405
 20
-0.6075948287531862
 30
0.0
 10
-2.184697285246517
 20
-0.6117522788394598
 30
0.0
 10
-2.180205402349383
 20
-0.6150635939539537
 30
0.0
 10
-2.175707630182198
 20
-0.6183622178390374
 30
0.0
 10
-2.17007284976997
 20
-0.6224627308736409
 30
0.0
 10
-2.163291351391252
 20
-0.6273463452585825
 30
0.0
 10
-2.154222673217205
 20
-0.6338083102748825
 30
0.0
 10
-2.138282116662134
 20
-0.6449858605066966
 30
0.0
 10
-2.115306248892967
 20
-0.66057515092997
 30
0.0
 10
-2.087401016480015
 20
-0.678660888115631
 30
0.0
 10
-2.05915286039185
 20
-0.6961089882356375
 30
0.0
 10
-2.030552684342022
 20
-0.712902534282599
 30
0.0
 10
-2.001590984365124
 20
-0.7290238552870784
 30
0.0
 10
-1.972257814870637
 20
-0.7444544577633733
 30
0.0
 10
-1.942542746223235
 20
-0.7591749494944454
 30
0.0
 10
-1.912434822284032
 20
-0.773164955372907
 30
0.0
 10
-1.88192249914283
 20
-0.7864030216589062
 30
0.0
 10
-1.856148439648122
 20
-0.7967892670869183
 30
0.0
 10
-1.837918686336195
 20
-0.8037102859990144
 30
0.0
 10
-1.827447194441841
 20
-0.8075637496946028
 30
0.0
 10
-1.819565988611517
 20
-0.8104027894997421
 30
0.0
 10
-1.812975580682802
 20
-0.8127256222177507
 30
0.0
 10
-1.807688522775489
 20
-0.8145581947128032
 30
0.0
 10
-1.802398921345072
 20
-0.8163710641694585
 30
0.0
 10
-1.795781484661456
 20
-0.8186004926496016
 30
0.0
 10
-1.785182293335665
 20
-0.8220894276065873
 30
0.0
 10
-1.771912038913966
 20
-0.8263043653783977
 30
0.0
 10
-1.755953832694647
 20
-0.8311288789379575
 30
0.0
 10
-1.73996175587093
 20
-0.835720267681886
 30
0.0
 10
-1.718593827882243
 20
-0.8415312716212837
 30
0.0
 10
-1.691799166699991
 20
-0.8482116610784964
 30
0.0
 10
-1.659509216243616
 20
-0.855289541919898
 30
0.0
 10
-1.62708152459856
 20
-0.8614193098224882
 30
0.0
 10
-1.59451410530804
 20
-0.8665872910919654
 30
0.0
 10
-1.561804349015502
 20
-0.8707755249794775
 30
0.0
 10
-1.5289490011031
 20
-0.8739616084352186
 30
0.0
 10
-1.495944119396358
 20
-0.8761184083160501
 30
0.0
 10
-1.468311548106364
 20
-0.8770312112610238
 30
0.0
 10
-1.446125631721616
 20
-0.8772117691505467
 30
0.0
 10
-1.429445489281173
 20
-0.8770669720143077
 30
0.0
 10
-1.415510744489841
 20
-0.8767080615847168
 30
0.0
 10
-1.404341765440924
 20
-0.8762749088859974
 30
0.0
 10
-1.397352143927517
 20
-0.8759426600493836
 30
0.0
 10
-1.391755186313486
 20
-0.8756395358615652
 30
0.0
 10
-1.387554292604299
 20
-0.8753933910364177
 30
0.0
 10
-1.383352364473051
 20
-0.875128459252513
 30
0.0
 10
-1.377758175047291
 20
-0.8747507382286211
 30
0.0
 10
-1.370777131038417
 20
-0.8742324285216077
 30
0.0
 10
-1.359634108953428
 20
-0.8733046520213672
 30
0.0
 10
-1.345754588870881
 20
-0.87195999768496
 30
0.0
 10
-1.32917846434615
 20
-0.8700496133884227
 30
0.0
 10
-1.312681900580896
 20
-0.8678412050859293
 30
0.0
 10
-1.296265236164864
 20
-0.8653335707934979
 30
0.0
 10
-1.279929089869041
 20
-0.8625243753773986
 30
0.0
 10
-1.258254374084808
 20
-0.8583787469829546
 30
0.0
 10
-1.231357230783488
 20
-0.8524617079374561
 30
0.0
 10
-1.199385223787378
 20
-0.8442206010902501
 30
0.0
 10
-1.167710195337065
 20
-0.8348672466824286
 30
0.0
 10
-1.136326473355507
 20
-0.8244228881688628
 30
0.0
 10
-1.105230236446675
 20
-0.8129018364920759
 30
0.0
 10
-1.079554647360246
 20
-0.8024098206165226
 30
0.0
 10
-1.061706689031975
 20
-0.7945974255385476
 30
0.0
 10
-1.051543676181428
 20
-0.7899990518315435
 30
0.0
 10
-1.043939358629586
 20
-0.7864830540140391
 30
0.0
 10
-1.037617438496088
 20
-0.7834969015833214
 30
0.0
 10
-1.032568892454919
 20
-0.7810741625343677
 30
0.0
 10
-1.027526503611821
 20
-0.7786289005323712
 30
0.0
 10
-1.021249954852938
 20
-0.775537356608759
 30
0.0
 10
-1.011259849877024
 20
-0.7705148244829525
 30
0.0
 10
-0.9988717518845739
 20
-0.7640954596905959
 30
0.0
 10
-0.984163725721557
 20
-0.7561674856174786
 30
0.0
 10
-0.9696128820620828
 20
-0.7480157784851849
 30
0.0
 10
-0.950420916680532
 20
-0.7368490198895865
 30
0.0
 10
-0.9268231330876424
 20
-0.7223322139960926
 30
0.0
 10
-0.8991381780541503
 20
-0.7040116721481218
 30
0.0
 10
-0.8720972752596649
 20
-0.6847741482491054
 30
0.0
 10
-0.8501155996993226
 20
-0.6679563727904508
 30
0.0
 10
-0.8328756869159549
 20
-0.6540103424407857
 30
0.0
 10
-0.8201219695123305
 20
-0.6432999272181735
 30
0.0
 10
-0.8075476142451343
 20
-0.6323341397103293
 30
0.0
 10
-0.7972209931073959
 20
-0.6229795638088252
 30
0.0
 10
-0.789052313500428
 20
-0.6153640254388413
 30
0.0
 10
-0.782972462385744
 20
-0.6095859728306714
 30
0.0
 10
-0.7779450176999342
 20
-0.6047151597422784
 30
0.0
 10
-0.7739467954776116
 20
-0.6007849486873846
 30
0.0
 10
-0.7709597236264898
 20
-0.5978201521439919
 30
0.0
 10
-0.7679855401368221
 20
-0.5948394098309944
 30
0.0
 10
-0.7640437007383024
 20
-0.5908504251430271
 30
0.0
 10
-0.759158152859311
 20
-0.5858341201559186
 30
0.0
 10
-0.7533628146257757
 20
-0.5797674910854169
 30
0.0
 10
-0.7457246959334171
 20
-0.5716159322114175
 30
0.0
 10
-0.7363431433797191
 20
-0.5613096623261915
 30
0.0
 10
-0.7253477244988794
 20
-0.5487574796923742
 30
0.0
 10
-0.7146110819874576
 20
-0.5360232382969896
 30
0.0
 10
-0.7006351089616514
 20
-0.5188053567033734
 30
0.0
 10
-0.6837907787338497
 20
-0.4968428370865327
 30
0.0
 10
-0.6645380182066821
 20
-0.4698120960486784
 30
0.0
 10
-0.6461986270534221
 20
-0.442138750918301
 30
0.0
 10
-0.6316328533559629
 20
-0.4185731470636705
 30
0.0
 10
-0.620381196376554
 20
-0.3994385630063673
 30
0.0
 10
-0.6121351470636768
 20
-0.3849520631139985
 30
0.0
 10
-0.6040736769518812
 20
-0.3703356707703334
 30
0.0
 10
-0.5961890025142763
 20
-0.3555950099705603
 30
0.0
 10
-0.5904031739950479
 20
-0.344449360043508
 30
0.0
 10
-0.5865974748223969
 20
-0.3369831876656486
 30
0.0
 10
-0.5840734618647736
 20
-0.3319952998226581
 30
0.0
 10
-0.5796964742727897
 20
-0.3232510582694738
 30
0.0
 10
-0.5735600692401995
 20
-0.310725543078928
 30
0.0
 10
-0.5639773028229095
 20
-0.2906120978852579
 30
0.0
 10
-0.5524220198305472
 20
-0.265341817117768
 30
0.0
 10
-0.5391777903600906
 20
-0.23482799200235
 30
0.0
 10
-0.5265085881784171
 20
-0.2041391859900049
 30
0.0
 10
-0.5143731663778766
 20
-0.1732879057969549
 30
0.0
 10
-0.5027354178484363
 20
-0.1422851538727369
 30
0.0
 10
-0.4915635452537089
 20
-0.1111406048158487
 30
0.0
 10
-0.4808295286262857
 20
-0.0798627878407093
 30
0.0
 10
-0.4705084094458682
 20
-0.0484592992074754
 30
0.0
 10
-0.4622336546777166
 20
-0.0221904481678882
 30
0.0
 10
-0.455798872305047
 20
-0.0011190532490818
 30
0.0
 10
-0.4494890051508695
 20
0.0199903615126345
 30
0.0
 10
-0.4418503050839297
 20
0.0464528054583017
 30
0.0
 10
-0.4331226617321735
 20
0.0783412926452705
 30
0.0
 10
-0.4248769584886753
 20
0.1103764655977225
 30
0.0
 10
-0.4171576234084385
 20
0.142571846777741
 30
0.0
 10
-0.4100107177211312
 20
0.1749414552127547
 30
0.0
 10
-0.4034839726099994
 20
0.2074998201324995
 30
0.0
 10
-0.3976269430219634
 20
0.2402620186664145
 30
0.0
 10
-0.3933470942176806
 20
0.2677467909578879
 30
0.0
 10
-0.3906902378833534
 20
0.2870892956179995
 30
0.0
 10
-0.3892723786968668
 20
0.2981727393238484
 30
0.0
 10
-0.3882600525020728
 20
0.3065007456252106
 30
0.0
 10
-0.3874596915235837
 20
0.3134542946999722
 30
0.0
 10
-0.3868459233240818
 20
0.3190243495117249
 30
0.0
 10
-0.3862507429368575
 20
0.3245919905339259
 30
0.0
 10
-0.3855415047980638
 20
0.3315497206591124
 30
0.0
 10
-0.3844815462539999
 20
0.3426770362677239
 30
0.0
 10
-0.383299089867473
 20
0.3565770818318687
 30
0.0
 10
-0.3821069525072309
 20
0.3732424919347043
 30
0.0
 10
-0.3811330733389377
 20
0.3898938517632731
 30
0.0
 10
-0.3801159629675404
 20
0.4120775351674835
 30
0.0
 10
-0.3793530669071802
 20
0.4397743852382715
 30
0.0
 10
-0.3791893318739779
 20
0.4729621803569214
 30
0.0
 10
-0.3797136418325553
 20
0.5061056541328415
 30
0.0
 10
-0.3808604417941202
 20
0.5392090292307699
 30
0.0
 10
-0.3825621476663235
 20
0.57227665922613
 30
0.0
 10
-0.3847490119913282
 20
0.605313036996378
 30
0.0
 10
-0.3869157983724653
 20
0.6328211667894228
 30
0.0
 10
-0.3888185970131068
 20
0.6548167604263605
 30
0.0
 10
-0.3903211344696408
 20
0.6713085961696194
 30
0.0
 10
-0.3918883043492819
 20
0.6877962685159744
 30
0.0
 10
-0.3940579253888323
 20
0.7097746743833068
 30
0.0
 10
-0.3969332945141619
 20
0.7372371597166532
 30
0.0
 10
-0.400671969805345
 20
0.7701735752967731
 30
0.0
 10
-0.4047223613632322
 20
0.8030899108087757
 30
0.0
 10
-0.4091026976435369
 20
0.8359849938760533
 30
0.0
 10
-0.4138263207551084
 20
0.8688579581929322
 30
0.0
 10
-0.4180558919599139
 20
0.8962332238082973
 30
0.0
 10
-0.4216174835610888
 20
0.9181219367293633
 30
0.0
 10
-0.4243777542920097
 20
0.9345328362211064
 30
0.0
 10
-0.4272269282592481
 20
0.9509376163595854
 30
0.0
 10
-0.4301650640368898
 20
0.967338133115453
 30
0.0
 10
-0.4331865779893165
 20
0.9837071359741539
 30
0.0
 10
-0.4373258516984094
 20
1.005495481126022
 30
0.0
 10
-0.442704285037083
 20
1.032660364999951
 30
0.0
 10
-0.4494744780933103
 20
1.065149782215322
 30
0.0
 10
-0.4589115906037193
 20
1.10832802874876
 30
0.0
 10
-0.4714697900344289
 20
1.162039126308972
 30
0.0
 10
-0.4850773130876143
 20
1.215389710059758
 30
0.0
 10
-0.4966543284167522
 20
1.257832778382409
 30
0.0
 10
-0.5057067662614009
 20
1.289538072827863
 30
0.0
 10
-0.5151583391781341
 20
1.321106239818478
 30
0.0
 10
-0.5250468648398631
 20
1.352524286590678
 30
0.0
 10
-0.5354200941190687
 20
1.383775807792578
 30
0.0
 10
-0.5463389086065704
 20
1.414839886839551
 30
0.0
 10
-0.5559573495262513
 20
1.440548163549364
 30
0.0
 10
-0.5640151222261415
 20
1.460990065176774
 30
0.0
 10
-0.5702558435250861
 20
1.476253675162444
 30
0.0
 10
-0.576712749803718
 20
1.491443012248055
 30
0.0
 10
-0.5856342138747425
 20
1.511588182772299
 30
0.0
 10
-0.5973828322274679
 20
1.536564611250564
 30
0.0
 10
-0.6124625717334251
 20
1.566199160010851
 30
0.0
 10
-0.6285128176086306
 20
1.595500261296946
 30
0.0
 10
-0.6426470320565615
 20
1.619657137213182
 30
0.0
 10
-0.6543465694854349
 20
1.638847774744436
 30
0.0
 10
-0.661803069680838
 20
1.650792647010744
 30
0.0
 10
-0.6678411631168172
 20
1.660322823409005
 30
0.0
 10
-0.6724035475461054
 20
1.667460694983508
 30
0.0
 10
-0.6769908854770672
 20
1.674582466535697
 30
0.0
 10
-0.6831330167097232
 20
1.684055633468229
 30
0.0
 10
-0.6908515784541718
 20
1.695864137729037
 30
0.0
 10
-0.7001501303197358
 20
1.710004428774678
 30
0.0
 10
-0.7079051572002617
 20
1.721782953503499
 30
0.0
 10
-0.7140985216581461
 20
1.731214484916016
 30
0.0
 10
-0.720281184200169
 20
1.74065477715845
 30
0.0
 10
-0.727995801463175
 20
1.752466363512237
 30
0.0
 10
-0.7372462829100469
 20
1.766646045062665
 30
0.0
 10
-0.7465032019411912
 20
1.78082045770426
 30
0.0
 10
-0.7588705412634384
 20
1.799699392910898
 30
0.0
 10
-0.7744047142362477
 20
1.823236679184547
 30
0.0
 10
-0.7932496358806544
 20
1.851314529398828
 30
0.0
 10
-0.8123782736238162
 20
1.879160172391704
 30
0.0
 10
-0.8318714325087827
 20
1.906707473339686
 30
0.0
 10
-0.851814544411582
 20
1.933886510590024
 30
0.0
 10
-0.8688870684179691
 20
1.956164734658701
 30
0.0
 10
-0.882869996317706
 20
1.973721392645136
 30
0.0
 10
-0.8970911236089038
 20
1.991083096524855
 30
0.0
 10
-0.9153384229067371
 20
2.012399826669432
 30
0.0
 10
-0.9380168597146703
 20
2.037340139378419
 30
0.0
 10
-0.9614973906911405
 20
2.06162397873584
 30
0.0
 10
-0.9857863305551161
 20
2.085246176478564
 30
0.0
 10
-1.006694233367958
 20
2.104385337718667
 30
0.0
 10
-1.023809015529906
 20
2.119378732072736
 30
0.0
 10
-1.036834824413982
 20
2.130468499595999
 30
0.0
 10
-1.050045201421477
 20
2.141407208260618
 30
0.0
 10
-1.061202597981519
 20
2.150401052842052
 30
0.0
 10
-1.070214346209735
 20
2.157525885638917
 30
0.0
 10
-1.077015125065259
 20
2.162835146980809
 30
0.0
 10
-1.083856981751213
 20
2.168110844837406
 30
0.0
 10
-1.090724356504368
 20
2.17334278155601
 30
0.0
 10
-1.097618818902327
 20
2.178534155999106
 30
0.0
 10
-1.106845527939647
 20
2.185403031139782
 30
0.0
 10
-1.123079576512531
 20
2.197289195268973
 30
0.0
 10
-1.146507518986681
 20
2.213904917081763
 30
0.0
 10
-1.174971005943807
 20
2.2333044689252
 30
0.0
 10
-1.203768610694062
 20
2.252189061736177
 30
0.0
 10
-1.232894865145561
 20
2.270567137697022
 30
0.0
 10
-1.262354575731575
 20
2.288431285126627
 30
0.0
 10
-1.292163876926604
 20
2.305756638380877
 30
0.0
 10
-1.312289848259223
 20
2.31691678628258
 30
0.0
 10
-1.322424406318309
 20
2.322386551771176
 30
0.0
  0
LINE
  5
10000083
102
{ACAD_XDICTIONARY
360
10000084
102
}
330
1F
100
AcDbEntity
  8
MODELSKETCH_VISIBLE
100
AcDbLine
 10
-1.029012088982824
 20
2.629999450296884
 30
0.0
 11
-1.32242440631831
 21
2.322386551771177
 31
0.0
  0
ENDSEC
  0
SECTION
  2
OBJECTS
  0
DICTIONARY
  5
C
330
0
100
AcDbDictionary
  3
ACAD_GROUP
350
D
  3
ACAD_LAYOUT
350
1A
  3
ACAD_MATERIAL
350
43
  3
ACAD_MLEADERSTYLE
350
6B
  3
ACAD_MLINESTYLE
350
17
  3
ACAD_PLOTSETTINGS
350
19
  3
ACAD_SCALELIST
350
47
  3
ACAD_VISUALSTYLE
350
2A
  3
ACDBHEADERROUNDTRIPXREC
350
10000089
  3
ACDBVARIABLEDICTIONARY
350
100000AA
  3
DWGPROPS
350
100000B1
  3
ONSHAPE_DATA
350
10000001
  0
DICTIONARY
  5
100000B2
330
8
100
AcDbDictionary
280
     1
  3
ACAD_XREC_ROUNDTRIP
360
100000B3
  0
DICTIONARY
  5
10000087
330
1F
100
AcDbDictionary
280
     1
  3
ACAD_SORTENTS
360
10000088
  0
DICTIONARY
  5
10000058
330
10000057
100
AcDbDictionary
280
     1
  3
BTDETID
360
10000059
  3
BTPARTID
360
1000005A
  0
DICTIONARY
  5
1000005C
330
1000005B
100
AcDbDictionary
280
     1
  3
BTDETID
360
1000005D
  3
BTPARTID
360
1000005E
  0
DICTIONARY
  5
10000060
330
1000005F
100
AcDbDictionary
280
     1
  3
BTDETID
360
10000061
  3
BTPARTID
360
10000062
  0
DICTIONARY
  5
10000064
330
10000063
100
AcDbDictionary
280
     1
  3
BTDETID
360
10000065
  3
BTPARTID
360
10000066
  0
DICTIONARY
  5
10000068
330
10000067
100
AcDbDictionary
280
     1
  3
BTDETID
360
10000069
  3
BTPARTID
360
1000006A
  0
DICTIONARY
  5
1000006C
330
1000006B
100
AcDbDictionary
280
     1
  3
BTDETID
360
1000006D
  3
BTPARTID
360
1000006E
  0
DICTIONARY
  5
10000070
330
1000006F
100
AcDbDictionary
280
     1
  3
BTDETID
360
10000071
  3
BTPARTID
360
10000072
  0
DICTIONARY
  5
10000074
330
10000073
100
AcDbDictionary
280
     1
  3
BTDETID
360
10000075
  3
BTPARTID
360
10000076
  0
DICTIONARY
  5
10000078
330
10000077
100
AcDbDictionary
280
     1
  3
BTDETID
360
10000079
  3
BTPARTID
360
1000007A
  0
DICTIONARY
  5
1000007C
330
1000007B
100
AcDbDictionary
280
     1
  3
BTDETID
360
1000007D
  3
BTPARTID
360
1000007E
  0
DICTIONARY
  5
10000080
330
1000007F
100
AcDbDictionary
280
     1
  3
BTDETID
360
10000081
  3
BTPARTID
360
10000082
  0
DICTIONARY
  5
10000084
330
10000083
100
AcDbDictionary
280
     1
  3
BTDETID
360
10000085
  3
BTPARTID
360
10000086
  0
DICTIONARY
  5
D
102
{ACAD_REACTORS
330
C
102
}
330
C
100
AcDbDictionary
  0
DICTIONARY
  5
1A
102
{ACAD_REACTORS
330
C
102
}
330
C
100
AcDbDictionary
  0
DICTIONARY
  5
43
102
{ACAD_REACTORS
330
C
102
}
330
C
100
AcDbDictionary
  3
BYBLOCK
350
45
  3
BYLAYER
350
44
  3
GLOBAL
350
46
  0
DICTIONARY
  5
6B
102
{ACAD_REACTORS
330
C
102
}
330
C
100
AcDbDictionary
  3
STANDARD
350
6C
  0
DICTIONARY
  5
17
102
{ACAD_REACTORS
330
C
102
}
330
C
100
AcDbDictionary
  3
STANDARD
350
18
  0
DICTIONARY
  5
19
102
{ACAD_REACTORS
330
C
102
}
330
C
100
AcDbDictionary
  0
DICTIONARY
  5
47
102
{ACAD_REACTORS
330
C
102
}
330
C
100
AcDbDictionary
  3
SCALE100_1
350
10000023
  3
SCALE10_1
350
1000001D
  3
SCALE12_1
350
1000001E
  3
SCALE16_1
350
1000001F
  3
SCALE1_1
350
10000006
  3
SCALE1_10
350
1000000D
  3
SCALE1_100
350
10000016
  3
SCALE1_12
350
1000000E
  3
SCALE1_16
350
1000000F
  3
SCALE1_2
350
10000007
  3
SCALE1_20
350
10000010
  3
SCALE1_25
350
10000011
  3
SCALE1_3
350
10000008
  3
SCALE1_32
350
10000012
  3
SCALE1_4
350
10000009
  3
SCALE1_40
350
10000013
  3
SCALE1_5
350
1000000A
  3
SCALE1_50
350
10000014
  3
SCALE1_6
350
1000000B
  3
SCALE1_8
350
1000000C
  3
SCALE1_80
350
10000015
  3
SCALE20_1
350
10000020
  3
SCALE2_1
350
10000017
  3
SCALE32_1
350
10000021
  3
SCALE3_1
350
10000018
  3
SCALE4_1
350
10000019
  3
SCALE50_1
350
10000022
  3
SCALE5_1
350
1000001A
  3
SCALE6_1
350
1000001B
  3
SCALE8_1
350
1000001C
  0
DICTIONARY
  5
2A
102
{ACAD_REACTORS
330
C
102
}
330
C
100
AcDbDictionary
  3
2DWIREFRAME
350
2F
  3
BASIC
350
32
  3
BRIGHTEN
350
36
  3
COLORCHANGE
350
3A
  3
CONCEPTUAL
350
34
  3
DIM
350
35
  3
EDGECOLOROFF
350
3D
  3
FACEPATTERN
350
39
  3
FLAT
350
2B
  3
FLATWITHEDGES
350
2C
  3
GOURAUD
350
2D
  3
GOURAUDWITHEDGES
350
2E
  3
HIDDEN
350
31
  3
JITTEROFF
350
3B
  3
LINEPATTERN
350
38
  3
OVERHANGOFF
350
3C
  3
REALISTIC
350
33
  3
SHADED
350
42
  3
SHADED_WITH_EDGES
350
41
  3
SHADES_OF_GRAY
350
3E
  3
SKETCHY
350
3F
  3
THICKEN
350
37
  3
WIREFRAME
350
30
  3
X-RAY
350
40
  0
DICTIONARY
  5
10000089
102
{ACAD_REACTORS
330
C
102
}
330
C
100
AcDbDictionary
  3
CEPSNID
350
10000093
  3
CEPSNTYPE
350
10000092
  3
DIMSTYLEDATA
350
100000A9
  3
FINGERPRINTGUID
350
10000094
  3
HYPERLINKBASE
350
1000008C
  3
INSUNITS
350
10000091
  3
LAYOUTDICT
350
1000008E
  3
LWETCUNION
350
10000090
  3
PLOTSETDICT
350
1000008F
  3
PSVPSCALE
350
10000096
  3
PUCSBASE
350
10000099
  3
PUCSORGBACK
350
1000009F
  3
PUCSORGBOTTOM
350
1000009B
  3
PUCSORGFRONT
350
1000009E
  3
PUCSORGLEFT
350
1000009C
  3
PUCSORGRIGHT
350
1000009D
  3
PUCSORGTOP
350
1000009A
  3
PUCSORTHOREF
350
10000097
  3
PUCSORTHOVIEW
350
10000098
  3
STYLESHEET
350
1000008D
  3
TSTACKALIGN
350
1000008A
  3
TSTACKSIZE
350
1000008B
  3
UCSBASE
350
100000A2
  3
UCSORGBACK
350
100000A8
  3
UCSORGBOTTOM
350
100000A4
  3
UCSORGFRONT
350
100000A7
  3
UCSORGLEFT
350
100000A5
  3
UCSORGRIGHT
350
100000A6
  3
UCSORGTOP
350
100000A3
  3
UCSORTHOREF
350
100000A0
  3
UCSORTHOVIEW
350
100000A1
  3
VERSIONGUID
350
10000095
  0
DICTIONARY
  5
100000AA
102
{ACAD_REACTORS
330
C
102
}
330
C
100
AcDbDictionary
  3
CANNOSCALE
350
100000B4
  3
CMLEADERSTYLE
350
100000AC
  3
CTABLESTYLE
350
100000AB
  3
DIMASSOC
350
100000AF
  3
HIDETEXT
350
100000B0
  3
MSLTSCALE
350
100000B5
  0
XRECORD
  5
100000B1
102
{ACAD_REACTORS
330
C
102
}
330
C
100
AcDbXrecord
  1
DWGPROPS COOKIE
  2

  3

  4

  6
File was created by BTDwgCreate
  7

  8

  9

300
=
301
=
302
=
303
=
304
=
305
=
306
=
307
=
308
=
309
=
 40
0.0
 41
2460843.204291782
 42
2460843.204291794
  1

 90
        0
  0
DICTIONARY
  5
10000001
102
{ACAD_REACTORS
330
C
102
}
330
C
100
AcDbDictionary
280
     1
  3
DIM_UNITS
360
10000003
  3
DWGGEN_VERSION
360
10000002
  3
FIRST_ANGLE
360
10000005
  0
XRECORD
  5
100000B3
102
{ACAD_REACTORS
330
100000B2
102
}
330
100000B2
100
AcDbXrecord
102
VTR_0.000_0.000_1.000_1.000_VISUALSTYLE
340
2F
102
VTR_0.000_0.000_1.000_1.000_GRIDDISPLAY
 70
     3
102
VTR_0.000_0.000_1.000_1.000_GRIDMAJOR
 70
     5
102
VTR_0.000_0.000_1.000_1.000_DEFAULTLIGHTING
280
     1
102
VTR_0.000_0.000_1.000_1.000_DEFAULTLIGHTINGTYPE
 70
     1
102
VTR_0.000_0.000_1.000_1.000_BRIGHTNESS
141
0.0
102
VTR_0.000_0.000_1.000_1.000_CONTRAST
142
0.0
  0
SORTENTSTABLE
  5
10000088
102
{ACAD_REACTORS
330
10000087
102
}
330
10000087
100
AcDbSortentsTable
330
1F
  0
XRECORD
  5
10000059
102
{ACAD_REACTORS
330
10000058
102
}
330
10000058
100
AcDbXrecord
1000
JJl
  0
XRECORD
  5
1000005A
102
{ACAD_REACTORS
330
10000058
102
}
330
10000058
100
AcDbXrecord
1000
JJn
  0
XRECORD
  5
1000005D
102
{ACAD_REACTORS
330
1000005C
102
}
330
1000005C
100
AcDbXrecord
1000
JJh
  0
XRECORD
  5
1000005E
102
{ACAD_REACTORS
330
1000005C
102
}
330
1000005C
100
AcDbXrecord
1000
JJj
  0
XRECORD
  5
10000061
102
{ACAD_REACTORS
330
10000060
102
}
330
10000060
100
AcDbXrecord
1000
JJd
  0
XRECORD
  5
10000062
102
{ACAD_REACTORS
330
10000060
102
}
330
10000060
100
AcDbXrecord
1000
JJf
  0
XRECORD
  5
10000065
102
{ACAD_REACTORS
330
10000064
102
}
330
10000064
100
AcDbXrecord
1000
JJZ
  0
XRECORD
  5
10000066
102
{ACAD_REACTORS
330
10000064
102
}
330
10000064
100
AcDbXrecord
1000
JJb
  0
XRECORD
  5
10000069
102
{ACAD_REACTORS
330
10000068
102
}
330
10000068
100
AcDbXrecord
1000
JJV
  0
XRECORD
  5
1000006A
102
{ACAD_REACTORS
330
10000068
102
}
330
10000068
100
AcDbXrecord
1000
JJX
  0
XRECORD
  5
1000006D
102
{ACAD_REACTORS
330
1000006C
102
}
330
1000006C
100
AcDbXrecord
1000
JJR
  0
XRECORD
  5
1000006E
102
{ACAD_REACTORS
330
1000006C
102
}
330
1000006C
100
AcDbXrecord
1000
JJT
  0
XRECORD
  5
10000071
102
{ACAD_REACTORS
330
10000070
102
}
330
10000070
100
AcDbXrecord
1000
JJp
  0
XRECORD
  5
10000072
102
{ACAD_REACTORS
330
10000070
102
}
330
10000070
100
AcDbXrecord
1000
JJr
  0
XRECORD
  5
10000075
102
{ACAD_REACTORS
330
10000074
102
}
330
10000074
100
AcDbXrecord
1000
JJN
  0
XRECORD
  5
10000076
102
{ACAD_REACTORS
330
10000074
102
}
330
10000074
100
AcDbXrecord
1000
JJP
  0
XRECORD
  5
10000079
102
{ACAD_REACTORS
330
10000078
102
}
330
10000078
100
AcDbXrecord
1000
JJt
  0
XRECORD
  5
1000007A
102
{ACAD_REACTORS
330
10000078
102
}
330
10000078
100
AcDbXrecord
1000
JJv
  0
XRECORD
  5
1000007D
102
{ACAD_REACTORS
330
1000007C
102
}
330
1000007C
100
AcDbXrecord
1000
JJB
  0
XRECORD
  5
1000007E
102
{ACAD_REACTORS
330
1000007C
102
}
330
1000007C
100
AcDbXrecord
1000
JJD
  0
XRECORD
  5
10000081
102
{ACAD_REACTORS
330
10000080
102
}
330
10000080
100
AcDbXrecord
1000
JJF
  0
XRECORD
  5
10000082
102
{ACAD_REACTORS
330
10000080
102
}
330
10000080
100
AcDbXrecord
1000
JJH
  0
XRECORD
  5
10000085
102
{ACAD_REACTORS
330
10000084
102
}
330
10000084
100
AcDbXrecord
1000
JJJ
  0
XRECORD
  5
10000086
102
{ACAD_REACTORS
330
10000084
102
}
330
10000084
100
AcDbXrecord
1000
JJL
  0
MATERIAL
  5
45
102
{ACAD_REACTORS
330
43
102
}
102
{ACAD_XDICTIONARY
360
100000B8
102
}
330
43
100
AcDbMaterial
  1
BYBLOCK
  0
MATERIAL
  5
44
102
{ACAD_REACTORS
330
43
102
}
102
{ACAD_XDICTIONARY
360
100000B6
102
}
330
43
100
AcDbMaterial
  1
BYLAYER
  0
MATERIAL
  5
46
102
{ACAD_REACTORS
330
43
102
}
102
{ACAD_XDICTIONARY
360
100000BA
102
}
330
43
100
AcDbMaterial
  1
GLOBAL
  0
ACAD_PROXY_OBJECT
  5
6C
102
{ACAD_REACTORS
330
6B
102
}
330
6B
100
AcDbProxyObject
 90
      499
 91
      505
 93
      610
310
40901902A4063FBFFFFFE056BD1B81E855B9FC0AD7A3703D0AD73F4214DD185B99185C9900AD7A3703D0AC73F90141901A02B5E8DC0F42B1CFC02B5E8DC0F42B1CFE5764000000000000300FC0
340
14
340
0
340
11
340
0
 94
        0
1001
ACAD_MLEADERVER
1070
     2
  0
MLINESTYLE
  5
18
102
{ACAD_REACTORS
330
17
102
}
330
17
100
AcDbMlineStyle
  2
Standard
 70
     0
  3

 62
   256
 51
90.0
 52
90.0
 71
     2
 49
0.5
 62
   256
  6
BYLAYER
 49
-0.5
 62
   256
  6
BYLAYER
  0
ACAD_PROXY_OBJECT
  5
10000023
102
{ACAD_REACTORS
330
47
102
}
330
47
100
AcDbProxyObject
 90
      499
 91
      503
 93
      121
310
9053130303A310000000000001650100
  0
ACAD_PROXY_OBJECT
  5
1000001D
102
{ACAD_REACTORS
330
47
102
}
330
47
100
AcDbProxyObject
 90
      499
 91
      503
 93
      113
310
90431303A310000000000000910100
  0
ACAD_PROXY_OBJECT
  5
1000001E
102
{ACAD_REACTORS
330
47
102
}
330
47
100
AcDbProxyObject
 90
      499
 91
      503
 93
      113
310
90431323A310000000000000A10100
  0
ACAD_PROXY_OBJECT
  5
1000001F
102
{ACAD_REACTORS
330
47
102
}
330
47
100
AcDbProxyObject
 90
      499
 91
      503
 93
      113
310
90431363A310000000000000C10100
  0
ACAD_PROXY_OBJECT
  5
10000006
102
{ACAD_REACTORS
330
47
102
}
330
47
100
AcDbProxyObject
 90
      499
 91
      503
 93
       41
310
903313A31500
  0
ACAD_PROXY_OBJECT
  5
1000000D
102
{ACAD_REACTORS
330
47
102
}
330
47
100
AcDbProxyObject
 90
      499
 91
      503
 93
      113
310
904313A31304000000000000244000
  0
ACAD_PROXY_OBJECT
  5
10000016
102
{ACAD_REACTORS
330
47
102
}
330
47
100
AcDbProxyObject
 90
      499
 91
      503
 93
      121
310
905313A3130304000000000000594000
  0
ACAD_PROXY_OBJECT
  5
1000000E
102
{ACAD_REACTORS
330
47
102
}
330
47
100
AcDbProxyObject
 90
      499
 91
      503
 93
      113
310
904313A31324000000000000284000
  0
ACAD_PROXY_OBJECT
  5
1000000F
102
{ACAD_REACTORS
330
47
102
}
330
47
100
AcDbProxyObject
 90
      499
 91
      503
 93
      113
310
904313A31364000000000000304000
  0
ACAD_PROXY_OBJECT
  5
10000007
102
{ACAD_REACTORS
330
47
102
}
330
47
100
AcDbProxyObject
 90
      499
 91
      503
 93
      105
310
903313A324000000000000004000
  0
ACAD_PROXY_OBJECT
  5
10000010
102
{ACAD_REACTORS
330
47
102
}
330
47
100
AcDbProxyObject
 90
      499
 91
      503
 93
      113
310
904313A32304000000000000344000
  0
ACAD_PROXY_OBJECT
  5
10000011
102
{ACAD_REACTORS
330
47
102
}
330
47
100
AcDbProxyObject
 90
      499
 91
      503
 93
      113
310
904313A32354000000000000394000
  0
ACAD_PROXY_OBJECT
  5
10000008
102
{ACAD_REACTORS
330
47
102
}
330
47
100
AcDbProxyObject
 90
      499
 91
      503
 93
      105
310
903313A334000000000000084000
  0
ACAD_PROXY_OBJECT
  5
10000012
102
{ACAD_REACTORS
330
47
102
}
330
47
100
AcDbProxyObject
 90
      499
 91
      503
 93
      113
310
904313A33324000000000000404000
  0
ACAD_PROXY_OBJECT
  5
10000009
102
{ACAD_REACTORS
330
47
102
}
330
47
100
AcDbProxyObject
 90
      499
 91
      503
 93
      105
310
903313A344000000000000104000
  0
ACAD_PROXY_OBJECT
  5
10000013
102
{ACAD_REACTORS
330
47
102
}
330
47
100
AcDbProxyObject
 90
      499
 91
      503
 93
      113
310
904313A34304000000000000444000
  0
ACAD_PROXY_OBJECT
  5
1000000A
102
{ACAD_REACTORS
330
47
102
}
330
47
100
AcDbProxyObject
 90
      499
 91
      503
 93
      105
310
903313A354000000000000144000
  0
ACAD_PROXY_OBJECT
  5
10000014
102
{ACAD_REACTORS
330
47
102
}
330
47
100
AcDbProxyObject
 90
      499
 91
      503
 93
      113
310
904313A35304000000000000494000
  0
ACAD_PROXY_OBJECT
  5
1000000B
102
{ACAD_REACTORS
330
47
102
}
330
47
100
AcDbProxyObject
 90
      499
 91
      503
 93
      105
310
903313A364000000000000184000
  0
ACAD_PROXY_OBJECT
  5
1000000C
102
{ACAD_REACTORS
330
47
102
}
330
47
100
AcDbProxyObject
 90
      499
 91
      503
 93
      105
310
903313A384000000000000204000
  0
ACAD_PROXY_OBJECT
  5
10000015
102
{ACAD_REACTORS
330
47
102
}
330
47
100
AcDbProxyObject
 90
      499
 91
      503
 93
      113
310
904313A38304000000000000544000
  0
ACAD_PROXY_OBJECT
  5
10000020
102
{ACAD_REACTORS
330
47
102
}
330
47
100
AcDbProxyObject
 90
      499
 91
      503
 93
      113
310
90432303A310000000000000D10100
  0
ACAD_PROXY_OBJECT
  5
10000017
102
{ACAD_REACTORS
330
47
102
}
330
47
100
AcDbProxyObject
 90
      499
 91
      503
 93
      105
310
903323A310000000000000010100
  0
ACAD_PROXY_OBJECT
  5
10000021
102
{ACAD_REACTORS
330
47
102
}
330
47
100
AcDbProxyObject
 90
      499
 91
      503
 93
      113
310
90433323A310000000000001010100
  0
ACAD_PROXY_OBJECT
  5
10000018
102
{ACAD_REACTORS
330
47
102
}
330
47
100
AcDbProxyObject
 90
      499
 91
      503
 93
      105
310
903333A310000000000000210100
  0
ACAD_PROXY_OBJECT
  5
10000019
102
{ACAD_REACTORS
330
47
102
}
330
47
100
AcDbProxyObject
 90
      499
 91
      503
 93
      105
310
903343A310000000000000410100
  0
ACAD_PROXY_OBJECT
  5
10000022
102
{ACAD_REACTORS
330
47
102
}
330
47
100
AcDbProxyObject
 90
      499
 91
      503
 93
      113
310
90435303A310000000000001250100
  0
ACAD_PROXY_OBJECT
  5
1000001A
102
{ACAD_REACTORS
330
47
102
}
330
47
100
AcDbProxyObject
 90
      499
 91
      503
 93
      105
310
903353A310000000000000510100
  0
ACAD_PROXY_OBJECT
  5
1000001B
102
{ACAD_REACTORS
330
47
102
}
330
47
100
AcDbProxyObject
 90
      499
 91
      503
 93
      105
310
903363A310000000000000610100
  0
ACAD_PROXY_OBJECT
  5
1000001C
102
{ACAD_REACTORS
330
47
102
}
330
47
100
AcDbProxyObject
 90
      499
 91
      503
 93
      105
310
903383A310000000000000810100
  0
ACAD_PROXY_OBJECT
  5
2F
102
{ACAD_REACTORS
330
2A
102
}
330
2A
100
AcDbProxyObject
 90
      499
 91
      501
 93
      436
310
42CC9915DA5C99599C985B595049028333333333333E33F0000000000000F90107901411070040501600405405064090741402480A0340
1001
ACAD
1000
AcDbSavedByObjectVersion
1070
     0
  0
ACAD_PROXY_OBJECT
  5
32
102
{ACAD_REACTORS
330
2A
102
}
330
2A
100
AcDbProxyObject
 90
      499
 91
      501
 93
      388
310
4150985CDA58D07406404333333333333E33F0000000000000F90107A41107004050150841D405064090741402480A0350
1001
ACAD
1000
AcDbSavedByObjectVersion
1070
     0
  0
ACAD_PROXY_OBJECT
  5
36
102
{ACAD_REACTORS
330
2A
102
}
330
2A
100
AcDbProxyObject
 90
      499
 91
      501
 93
      428
310
42109C9A59DA1D195B90C409028333333333333E33F0000000000000F9010790141107004050150841D405064090741402480A029950
1001
ACAD
1000
AcDbSavedByObjectVersion
1070
     0
  0
ACAD_PROXY_OBJECT
  5
3A
102
{ACAD_REACTORS
330
2A
102
}
330
2A
100
AcDbProxyObject
 90
      499
 91
      501
 93
      452
310
42D0DBDB1BDC90DA185B99D95104090240C333333333333E33F0000000000000F90108901411070040501508421405064090741402480A0350
1001
ACAD
1000
AcDbSavedByObjectVersion
1070
     0
  0
ACAD_PROXY_OBJECT
  5
34
102
{ACAD_REACTORS
330
2A
102
}
330
2A
100
AcDbProxyObject
 90
      499
 91
      501
 93
      500
310
4290DBDB98D95C1D1D585B10940D028333333333333E33F0000000000000F90107902409070040501000000000018199010841D405064090740C02480A0340
1001
ACAD
1000
AcDbSavedByObjectVersion
1070
     0
  0
ACAD_PROXY_OBJECT
  5
35
102
{ACAD_REACTORS
330
2A
102
}
330
2A
100
AcDbProxyObject
 90
      499
 91
      501
 93
      412
310
40D11A5B50B409028333333333333E33F0000000000000F9010790141107004050150841D405064090741402480A02677FFFFFD0
1001
ACAD
1000
AcDbSavedByObjectVersion
1070
     0
  0
ACAD_PROXY_OBJECT
  5
3D
102
{ACAD_REACTORS
330
2A
102
}
330
2A
100
AcDbProxyObject
 90
      499
 91
      501
 93
      452
310
43115919D950DBDB1BDC93D999916409028333333333333E33F0000000000000F9010790141107004050150841D405064090741402480A0350
1001
ACAD
1000
AcDbSavedByObjectVersion
1070
     0
  0
ACAD_PROXY_OBJECT
  5
39
102
{ACAD_REACTORS
330
2A
102
}
330
2A
100
AcDbProxyObject
 90
      499
 91
      501
 93
      444
310
42D19858D95C185D1D195C9B90F409028333333333333E33F0000000000000F9010790141107004050150841D405064090741402480A0350
1001
ACAD
1000
AcDbSavedByObjectVersion
1070
     0
  0
ACAD_PROXY_OBJECT
  5
2B
102
{ACAD_REACTORS
330
2A
102
}
330
2A
100
AcDbProxyObject
 90
      499
 91
      501
 93
      380
310
41119B185D240901404333333333333E33F0000000000000F9010740A907004050150841D405064090741402480A1B50
1001
ACAD
1000
AcDbSavedByObjectVersion
1070
     0
  0
ACAD_PROXY_OBJECT
  5
2C
102
{ACAD_REACTORS
330
2A
102
}
330
2A
100
AcDbProxyObject
 90
      499
 91
      501
 93
      468
310
43519B185D15DA5D1A115919D95CD0140901404333333333333E33F0000000000000F90107409019070040501600405405064090741402480A1B50
1001
ACAD
1000
AcDbSavedByObjectVersion
1070
     0
  0
ACAD_PROXY_OBJECT
  5
2D
102
{ACAD_REACTORS
330
2A
102
}
330
2A
100
AcDbProxyObject
 90
      499
 91
      501
 93
      404
310
41D1DBDD5C985D5910240902404333333333333E33F0000000000000F9010740A9070040501641D405064090741402480A1B50
1001
ACAD
1000
AcDbSavedByObjectVersion
1070
     0
  0
ACAD_PROXY_OBJECT
  5
2E
102
{ACAD_REACTORS
330
2A
102
}
330
2A
100
AcDbProxyObject
 90
      499
 91
      501
 93
      492
310
4411DBDD5C985D5915DA5D1A115919D95CD0340902404333333333333E33F0000000000000F90107409019070040501600405405064090741402480A1B50
1001
ACAD
1000
AcDbSavedByObjectVersion
1070
     0
  0
ACAD_PROXY_OBJECT
  5
31
102
{ACAD_REACTORS
330
2A
102
}
330
2A
100
AcDbProxyObject
 90
      499
 91
      501
 93
      476
310
41921A5919195B90640502408333333333333E33F0000000000000F901079024090700405020000000000001110200405405064090740C02480A0340
1001
ACAD
1000
AcDbSavedByObjectVersion
1070
     0
  0
ACAD_PROXY_OBJECT
  5
3B
102
{ACAD_REACTORS
330
2A
102
}
330
2A
100
AcDbProxyObject
 90
      499
 91
      501
 93
      428
310
42529A5D1D195C93D999914409028333333333333E33F0000000000000F9010790141107004050150A41D405064090741402480A0350
1001
ACAD
1000
AcDbSavedByObjectVersion
1070
     0
  0
ACAD_PROXY_OBJECT
  5
38
102
{ACAD_REACTORS
330
2A
102
}
330
2A
100
AcDbProxyObject
 90
      499
 91
      501
 93
      444
310
42D31A5B995C185D1D195C9B90E409028333333333333E33F0000000000000F9010790141107004050750841D405064090741402483A0350
1001
ACAD
1000
AcDbSavedByObjectVersion
1070
     0
  0
ACAD_PROXY_OBJECT
  5
3C
102
{ACAD_REACTORS
330
2A
102
}
330
2A
100
AcDbProxyObject
 90
      499
 91
      501
 93
      444
310
42D3DD995C9A185B99D3D999915409028333333333333E33F0000000000000F9010790141107004050150941D405064090741402480A0350
1001
ACAD
1000
AcDbSavedByObjectVersion
1070
     0
  0
ACAD_PROXY_OBJECT
  5
33
102
{ACAD_REACTORS
330
2A
102
}
330
2A
100
AcDbProxyObject
 90
      499
 91
      501
 93
      428
310
425499585B1A5CDD1A58D08409038333333333333E33F0000000000000F9010740A907004050150800405405064090740C02480A1B40
1001
ACAD
1000
AcDbSavedByObjectVersion
1070
     0
  0
ACAD_PROXY_OBJECT
  5
42
102
{ACAD_REACTORS
330
2A
102
}
330
2A
100
AcDbProxyObject
 90
      499
 91
      501
 93
      420
310
4194DA1859195911B40902404333333333333E33F0000000000000F9010740A41107004050150800405405064090840C02480A0B40
1001
ACAD
1000
AcDbSavedByObjectVersion
1070
     0
  0
ACAD_PROXY_OBJECT
  5
41
102
{ACAD_REACTORS
330
2A
102
}
330
2A
100
AcDbProxyObject
 90
      499
 91
      501
 93
      516
310
4454DA18591959081DDA5D1A08195919D95CD1A40902404333333333333E33F0000000000000F901074090142907004050250800405405064090740C02480A0B40
1001
ACAD
1000
AcDbSavedByObjectVersion
1070
     0
  0
ACAD_PROXY_OBJECT
  5
3E
102
{ACAD_REACTORS
330
2A
102
}
330
2A
100
AcDbProxyObject
 90
      499
 91
      501
 93
      532
310
4394DA1859195CC81BD98811DC985E5174090240C333333333333E33F0000000000000F901079024090741D01000000000000111010841D405064090740C02480A0340
1001
ACAD
1000
AcDbSavedByObjectVersion
1070
     0
  0
ACAD_PROXY_OBJECT
  5
3F
102
{ACAD_REACTORS
330
2A
102
}
330
2A
100
AcDbProxyObject
 90
      499
 91
      501
 93
      476
310
41D4DAD95D18DA1E51840502408333333333333E33F0000000000000F901079024090741D01000000000000111010B41D405064090741802480A0340
1001
ACAD
1000
AcDbSavedByObjectVersion
1070
     0
  0
ACAD_PROXY_OBJECT
  5
37
102
{ACAD_REACTORS
330
2A
102
}
330
2A
100
AcDbProxyObject
 90
      499
 91
      501
 93
      412
310
41D51A1A58DAD95B90D409028333333333333E33F0000000000000F9010790141107004050150C41D405064090741402480A0350
1001
ACAD
1000
AcDbSavedByObjectVersion
1070
     0
  0
ACAD_PROXY_OBJECT
  5
30
102
{ACAD_REACTORS
330
2A
102
}
330
2A
100
AcDbProxyObject
 90
      499
 91
      501
 93
      420
310
4255DA5C99599C985B595059028333333333333E33F0000000000000F90107901411070040501600405405064090740C02480A0340
1001
ACAD
1000
AcDbSavedByObjectVersion
1070
     0
  0
ACAD_PROXY_OBJECT
  5
40
102
{ACAD_REACTORS
330
2A
102
}
330
2A
100
AcDbProxyObject
 90
      499
 91
      501
 93
      404
310
41560B54985E51940902404000000000000E03F0000000000000F9010740501907004050150841D405064090740C02480A1B40
1001
ACAD
1000
AcDbSavedByObjectVersion
1070
     0
  0
XRECORD
  5
10000093
102
{ACAD_REACTORS
330
10000089
102
}
330
10000089
100
AcDbXrecord
340
0
  0
XRECORD
  5
10000092
102
{ACAD_REACTORS
330
10000089
102
}
330
10000089
100
AcDbXrecord
 90
        0
  0
XRECORD
  5
100000A9
102
{ACAD_REACTORS
330
10000089
102
}
330
10000089
100
AcDbXrecord
1000
DSTYLE
1002
{
1070
   340
340
11
1002
}
  0
XRECORD
  5
10000094
102
{ACAD_REACTORS
330
10000089
102
}
330
10000089
100
AcDbXrecord
  1
{74746163-71b8-7278-7239-323878706636}
  0
XRECORD
  5
1000008C
102
{ACAD_REACTORS
330
10000089
102
}
330
10000089
100
AcDbXrecord
  1

  0
XRECORD
  5
10000091
102
{ACAD_REACTORS
330
10000089
102
}
330
10000089
100
AcDbXrecord
 90
        1
  0
XRECORD
  5
1000008E
102
{ACAD_REACTORS
330
10000089
102
}
330
10000089
100
AcDbXrecord
340
1A
  0
XRECORD
  5
10000090
102
{ACAD_REACTORS
330
10000089
102
}
330
10000089
100
AcDbXrecord
 90
    10781
  0
XRECORD
  5
1000008F
102
{ACAD_REACTORS
330
10000089
102
}
330
10000089
100
AcDbXrecord
340
19
  0
XRECORD
  5
10000096
102
{ACAD_REACTORS
330
10000089
102
}
330
10000089
100
AcDbXrecord
 40
0.0
  0
XRECORD
  5
10000099
102
{ACAD_REACTORS
330
10000089
102
}
330
10000089
100
AcDbXrecord
340
0
  0
XRECORD
  5
1000009F
102
{ACAD_REACTORS
330
10000089
102
}
330
10000089
100
AcDbXrecord
 10
0.0
 20
0.0
 30
0.0
  0
XRECORD
  5
1000009B
102
{ACAD_REACTORS
330
10000089
102
}
330
10000089
100
AcDbXrecord
 10
0.0
 20
0.0
 30
0.0
  0
XRECORD
  5
1000009E
102
{ACAD_REACTORS
330
10000089
102
}
330
10000089
100
AcDbXrecord
 10
0.0
 20
0.0
 30
0.0
  0
XRECORD
  5
1000009C
102
{ACAD_REACTORS
330
10000089
102
}
330
10000089
100
AcDbXrecord
 10
0.0
 20
0.0
 30
0.0
  0
XRECORD
  5
1000009D
102
{ACAD_REACTORS
330
10000089
102
}
330
10000089
100
AcDbXrecord
 10
0.0
 20
0.0
 30
0.0
  0
XRECORD
  5
1000009A
102
{ACAD_REACTORS
330
10000089
102
}
330
10000089
100
AcDbXrecord
 10
0.0
 20
0.0
 30
0.0
  0
XRECORD
  5
10000097
102
{ACAD_REACTORS
330
10000089
102
}
330
10000089
100
AcDbXrecord
340
0
  0
XRECORD
  5
10000098
102
{ACAD_REACTORS
330
10000089
102
}
330
10000089
100
AcDbXrecord
 70
     0
  0
XRECORD
  5
1000008D
102
{ACAD_REACTORS
330
10000089
102
}
330
10000089
100
AcDbXrecord
  1

  0
XRECORD
  5
1000008A
102
{ACAD_REACTORS
330
10000089
102
}
330
10000089
100
AcDbXrecord
 90
        1
  0
XRECORD
  5
1000008B
102
{ACAD_REACTORS
330
10000089
102
}
330
10000089
100
AcDbXrecord
 90
       70
  0
XRECORD
  5
100000A2
102
{ACAD_REACTORS
330
10000089
102
}
330
10000089
100
AcDbXrecord
340
0
  0
XRECORD
  5
100000A8
102
{ACAD_REACTORS
330
10000089
102
}
330
10000089
100
AcDbXrecord
 10
0.0
 20
0.0
 30
0.0
  0
XRECORD
  5
100000A4
102
{ACAD_REACTORS
330
10000089
102
}
330
10000089
100
AcDbXrecord
 10
0.0
 20
0.0
 30
0.0
  0
XRECORD
  5
100000A7
102
{ACAD_REACTORS
330
10000089
102
}
330
10000089
100
AcDbXrecord
 10
0.0
 20
0.0
 30
0.0
  0
XRECORD
  5
100000A5
102
{ACAD_REACTORS
330
10000089
102
}
330
10000089
100
AcDbXrecord
 10
0.0
 20
0.0
 30
0.0
  0
XRECORD
  5
100000A6
102
{ACAD_REACTORS
330
10000089
102
}
330
10000089
100
AcDbXrecord
 10
0.0
 20
0.0
 30
0.0
  0
XRECORD
  5
100000A3
102
{ACAD_REACTORS
330
10000089
102
}
330
10000089
100
AcDbXrecord
 10
0.0
 20
0.0
 30
0.0
  0
XRECORD
  5
100000A0
102
{ACAD_REACTORS
330
10000089
102
}
330
10000089
100
AcDbXrecord
340
0
  0
XRECORD
  5
100000A1
102
{ACAD_REACTORS
330
10000089
102
}
330
10000089
100
AcDbXrecord
 70
     0
  0
XRECORD
  5
10000095
102
{ACAD_REACTORS
330
10000089
102
}
330
10000089
100
AcDbXrecord
  1
{FAEB1C32-E019-11D5-929B-00C0DF256EC4}
  0
DICTIONARYVAR
  5
100000B4
102
{ACAD_REACTORS
330
100000AA
102
}
330
100000AA
100
DictionaryVariables
280
     0
  1
1:1
  0
DICTIONARYVAR
  5
100000AC
102
{ACAD_REACTORS
330
100000AA
102
}
330
100000AA
100
DictionaryVariables
280
     0
  1
Standard
  0
DICTIONARYVAR
  5
100000AB
102
{ACAD_REACTORS
330
100000AA
102
}
330
100000AA
100
DictionaryVariables
280
     0
  1
Standard
  0
DICTIONARYVAR
  5
100000AF
102
{ACAD_REACTORS
330
100000AA
102
}
330
100000AA
100
DictionaryVariables
280
     0
  1
2
  0
DICTIONARYVAR
  5
100000B0
102
{ACAD_REACTORS
330
100000AA
102
}
330
100000AA
100
DictionaryVariables
280
     0
  1
1
  0
DICTIONARYVAR
  5
100000B5
102
{ACAD_REACTORS
330
100000AA
102
}
330
100000AA
100
DictionaryVariables
280
     0
  1
1
  0
XRECORD
  5
10000003
102
{ACAD_REACTORS
330
10000001
102
}
330
10000001
100
AcDbXrecord
 70
     1
  0
XRECORD
  5
10000002
102
{ACAD_REACTORS
330
10000001
102
}
330
10000001
100
AcDbXrecord
1040
89.0
  0
ACAD_PROXY_OBJECT
  5
10000005
102
{ACAD_REACTORS
330
10000001
102
}
330
10000001
100
AcDbProxyObject
 90
      499
 91
      509
 93
       34
310
40C8804000
  0
DICTIONARY
  5
100000B8
330
45
100
AcDbDictionary
280
     1
  3
ACAD_XREC_ROUNDTRIP
360
100000B9
  0
DICTIONARY
  5
100000B6
330
44
100
AcDbDictionary
280
     1
  3
ACAD_XREC_ROUNDTRIP
360
100000B7
  0
DICTIONARY
  5
100000BA
330
46
100
AcDbDictionary
280
     1
  3
ACAD_XREC_ROUNDTRIP
360
100000BB
  0
XRECORD
  5
100000B9
102
{ACAD_REACTORS
330
100000B8
102
}
330
100000B8
100
AcDbXrecord
102
MATERIAL
148
0.0
149
0.0
149
0.0
 93
        0
 94
      127
282
     0
 72
     1
 77
     1
171
     1
175
     1
179
     1
273
     0
  0
XRECORD
  5
100000B7
102
{ACAD_REACTORS
330
100000B6
102
}
330
100000B6
100
AcDbXrecord
102
MATERIAL
148
0.0
149
0.0
149
0.0
 93
        0
 94
      127
282
     0
 72
     1
 77
     1
171
     1
175
     1
179
     1
273
     0
  0
XRECORD
  5
100000BB
102
{ACAD_REACTORS
330
100000BA
102
}
330
100000BA
100
AcDbXrecord
102
MATERIAL
148
0.0
149
0.0
149
0.0
 93
        0
 94
      127
282
     0
 72
     1
 77
     1
171
     1
175
     1
179
     1
273
     0
  0
ENDSEC
  0
EOF
